<svg xmlns="http://www.w3.org/2000/svg" width="604.52969" height="75.90557" viewBox="0 0 604.52969 75.90557">
  <defs>
    <style>
      .cls-1 {
        fill: #f2ead9;
      }
    </style>
  </defs>
  <g id="Layer_2" data-name="Layer 2">
    <g id="Layer_1-2" data-name="Layer 1">
      <g>
        <g>
          <path class="cls-1" d="M163.38663.239h18.74609l26.57373,73.645H189.54874L185.22256,60.5969h-25.75L155.24942,73.884h-18.334Zm17.61279,47.2771-5.562-17.81909q-.51636-1.44105-1.02979-3.19287-.51636-1.7505-.92724-3.39917-.51636-1.85376-.92676-3.811h-.20606q-.51634,1.95777-1.02978,3.811-.5171,1.649-.97852,3.39917-.46362,1.75231-.97851,3.19287l-5.665,17.81909Z"/>
          <path class="cls-1" d="M210.14786,21.14792h16.1709v7.21021h.30908A21.27121,21.27121,0,0,1,233.477,21.8176a18.67936,18.67936,0,0,1,9.4248-2.2146,19.04637,19.04637,0,0,1,7.7251,1.49341,16.72651,16.72651,0,0,1,5.76758,4.12012,17.7323,17.7323,0,0,1,3.605,6.283,25.12912,25.12912,0,0,1,1.23633,8.08545V73.884H244.44668V42.98411a10.56367,10.56367,0,0,0-2.06-6.7981,7.44486,7.44486,0,0,0-6.18018-2.575,8.26283,8.26283,0,0,0-6.74609,3.08984,12.28927,12.28927,0,0,0-2.52393,8.03418V73.884H210.14786Z"/>
          <path class="cls-1" d="M292.44376,75.532a30.17453,30.17453,0,0,1-11.53614-2.11133,25.68607,25.68607,0,0,1-8.80615-5.87109,26.44251,26.44251,0,0,1-5.665-8.85791,29.93522,29.93522,0,0,1-2.00879-11.07251,30.63567,30.63567,0,0,1,1.957-11.07251,26.19349,26.19349,0,0,1,5.562-8.85816,25.31354,25.31354,0,0,1,8.70362-5.87085A29.49882,29.49882,0,0,1,292.03165,19.706a30.04449,30.04449,0,0,1,9.73388,1.49341,23.43731,23.43731,0,0,1,7.57031,4.17163,21.15605,21.15605,0,0,1,5.14991,6.386,24.58762,24.58762,0,0,1,2.57519,8.137H300.89a11.51811,11.51811,0,0,0-2.93554-5.71656,7.7315,7.7315,0,0,0-5.7168-2.11157,9.007,9.007,0,0,0-8.13672,4.17163q-2.67993,4.17151-2.67822,11.3816,0,7.10668,2.67822,11.2268,2.677,4.121,8.13672,4.12012,8.03394,0,9.167-9.064h16.06836a22.87914,22.87914,0,0,1-2.00879,8.49732,20.8468,20.8468,0,0,1-5.04687,6.90112,23.21539,23.21539,0,0,1-7.82813,4.5835A29.83253,29.83253,0,0,1,292.44376,75.532Z"/>
          <path class="cls-1" d="M319.84073.239h16.78906v27.398h.30908a22.34716,22.34716,0,0,1,6.48877-5.92237,17.94151,17.94151,0,0,1,9.167-2.11157,19.04472,19.04472,0,0,1,7.7251,1.49341,16.72854,16.72854,0,0,1,5.76807,4.12012,17.74708,17.74708,0,0,1,3.605,6.283,25.12929,25.12929,0,0,1,1.23584,8.08545V73.884H354.13956V42.98411A10.56634,10.56634,0,0,0,352.08,36.186a7.44486,7.44486,0,0,0-6.18018-2.575,8.26378,8.26378,0,0,0-6.74658,3.08984,12.28906,12.28906,0,0,0-2.52344,8.03418V73.884H319.84073Z"/>
          <path class="cls-1" d="M401.31338,75.532a30.56417,30.56417,0,0,1-11.58789-2.11133,25.74133,25.74133,0,0,1-14.626-14.729,29.94481,29.94481,0,0,1-2.0083-11.07251,29.94938,29.94938,0,0,1,2.0083-11.07251,25.73949,25.73949,0,0,1,14.626-14.729,32.85052,32.85052,0,0,1,23.1753,0,25.6573,25.6573,0,0,1,8.85791,5.87085,26.48856,26.48856,0,0,1,5.665,8.85816,29.94958,29.94958,0,0,1,2.0083,11.07251,29.945,29.945,0,0,1-2.0083,11.07251,26.4729,26.4729,0,0,1-5.665,8.85791,25.61682,25.61682,0,0,1-8.85791,5.87109A30.57594,30.57594,0,0,1,401.31338,75.532Zm-.103-11.948a9.35176,9.35176,0,0,0,8.39453-4.37744q2.83153-4.37659,2.832-11.5874,0-7.2085-2.832-11.63916a9.32692,9.32692,0,0,0-8.39453-4.429,9.20424,9.20424,0,0,0-8.34327,4.429q-2.781,4.43-2.78076,11.63916,0,7.21068,2.78076,11.5874A9.22794,9.22794,0,0,0,401.21036,63.584Z"/>
          <path class="cls-1" d="M425.10538,21.14792h17.3042l7.21,23.793q.51416,2.06176,1.08154,3.96558.56469,1.90722.97851,3.34766.41016,1.75231.82422,3.29589h.20557q.41089-1.545.82422-3.29589.41016-1.44141.92676-3.34766.51416-1.90467,1.13379-3.96558l7.3125-23.793h16.78906L461.46426,73.884H443.33682Z"/>
          <path class="cls-1" d="M480.724.239h16.78906v13.596H480.724Zm0,20.90893h16.78906V73.884H480.724Z"/>
          <path class="cls-1" d="M528.31,75.42893a31.25574,31.25574,0,0,1-11.74219-2.11133,24.96557,24.96557,0,0,1-8.85791-5.87109,26.06117,26.06117,0,0,1-5.562-8.90943,31.043,31.043,0,0,1-1.957-11.124,30.33875,30.33875,0,0,1,1.957-10.96948,26.19333,26.19333,0,0,1,5.562-8.85816,25.68457,25.68457,0,0,1,8.54883-5.87085,30.0307,30.0307,0,0,1,21.1665-.36059,25.27939,25.27939,0,0,1,7.87988,4.84106,26.26625,26.26625,0,0,1,7.05518,10.96949A42.66652,42.66652,0,0,1,554.5751,51.842H516.67081a15.48223,15.48223,0,0,0,3.708,8.446q2.88282,3.09009,8.13721,3.08984a9.91387,9.91387,0,0,0,5.459-1.39038A8.86911,8.86911,0,0,0,537.2709,58.125h16.377a19.51163,19.51163,0,0,1-3.08985,6.84961A21.94829,21.94829,0,0,1,544.79,70.58811a24.92637,24.92637,0,0,1-7.36475,3.605A31.31763,31.31763,0,0,1,528.31,75.42893Zm9.27-33.57788a12.42689,12.42689,0,0,0-3.19288-7.519,9.0369,9.0369,0,0,0-6.79834-2.781q-4.84276,0-7.416,2.781a14.414,14.414,0,0,0-3.39893,7.519Z"/>
          <path class="cls-1" d="M580.53067,75.532q-11.64111,0-18.437-4.99536a17.20221,17.20221,0,0,1-7.21-13.75049h15.86181a8.5336,8.5336,0,0,0,2.98682,5.87085,10.494,10.494,0,0,0,6.69531,1.957,11.61214,11.61214,0,0,0,6.02539-1.33887,4.304,4.304,0,0,0,2.21436-3.91406,3.73924,3.73924,0,0,0-1.13281-2.83252,8.40745,8.40745,0,0,0-2.98731-1.751,22.44324,22.44324,0,0,0-4.27441-1.03q-2.42139-.35961-4.99561-.87549-3.39843-.61815-6.79785-1.49365a20.85289,20.85289,0,0,1-6.12842-2.62646,13.04,13.04,0,0,1-4.37744-4.68653,15.3571,15.3571,0,0,1-1.64795-7.57031,14.6158,14.6158,0,0,1,1.80225-7.313,15.71537,15.71537,0,0,1,4.89258-5.30468,22.99543,22.99543,0,0,1,7.26171-3.19288,34.96475,34.96475,0,0,1,8.80616-1.08154q11.22582,0,17.20117,4.532a16.41858,16.41858,0,0,1,6.5918,12.36011H587.43155q-.51636-3.60424-2.72949-4.89258a11.28426,11.28426,0,0,0-5.7168-1.28759,10.507,10.507,0,0,0-5.20117,1.18457,3.91442,3.91442,0,0,0-2.11182,3.65649,2.73927,2.73927,0,0,0,1.03027,2.26611,8.6813,8.6813,0,0,0,2.78077,1.39038,30.63,30.63,0,0,0,4.06884.97852q2.3174.41272,4.78955.824,3.50025.61816,7.05518,1.49366a21.85089,21.85089,0,0,1,6.48926,2.72949,14.53779,14.53779,0,0,1,4.78955,4.99536,15.98389,15.98389,0,0,1,1.854,8.18848,15.13008,15.13008,0,0,1-6.79834,13.081,24.14465,24.14465,0,0,1-7.62207,3.2959A38.5928,38.5928,0,0,1,580.53067,75.532Z"/>
        </g>
        <g>
          <polygon class="cls-1" points="90.663 16.714 116.285 31.507 116.285 1.922 90.663 16.714"/>
          <polygon class="cls-1" points="25.621 59.191 0 44.399 0 73.984 25.621 59.191"/>
          <path class="cls-1" d="M25.62131,59.17518c49.13323,37.64337,91.66344,0,91.66344,0v.0318c-49.13323-37.64337-91.66344,0-91.66344,0"/>
          <path class="cls-1" d="M0,16.69859c49.13322,37.64337,91.66344,0,91.66344,0v.0318C42.53021-20.913,0,16.73039,0,16.73039"/>
        </g>
      </g>
    </g>
  </g>
</svg>
