<svg width="30" height="27" viewBox="0 0 30 27" fill="none" xmlns="http://www.w3.org/2000/svg">
<path d="M19.3542 0.339835C21.8927 0.881331 24.2973 1.47728 26.2504 3.35742C29.5802 6.56291 30.0581 12.4092 27.2834 16.3034C25.9959 18.1104 24.2784 18.3024 22.4168 18.0495C19.6007 17.667 19.5783 17.6721 19.7002 20.7516C19.7563 22.1694 19.9214 23.5799 20.0305 24.9945C20.1223 26.1843 19.7422 26.8629 18.5297 26.8669C15.8413 26.8757 13.1522 26.9598 10.4633 26.9997C9.47503 27.0144 9.01538 26.488 9.09408 25.3673C9.23213 23.4012 9.32109 21.4318 9.45052 19.465C9.53065 18.2474 9.09409 17.7459 7.96264 18.0145C5.28598 18.65 2.76104 18.8081 1.26288 15.5932C-0.485742 11.8407 -0.322154 7.59055 2.05621 4.83002C3.22255 3.47626 4.7491 2.27877 6.31683 1.60199C10.5591 -0.229418 14.9994 -0.241259 19.3542 0.339835Z" fill="#F2EAD9"/>
</svg>
