<svg width="1340" height="696" viewBox="0 0 1340 696" fill="none" xmlns="http://www.w3.org/2000/svg">
<path d="M14.0418 42C14.0418 42 21.6815 32 38.2519 32C54.8224 32 63 42 63 42C63 42 54.8224 52 38.2519 52C21.6815 52 14.0418 42 14.0418 42L0 51.4643V42V32.5357L14.0418 42Z" fill="#E1D9C9"/>
<path d="M173.265 42C173.265 42 181.026 32 197.859 32C214.693 32 223 42 223 42C223 42 214.693 52 197.859 52C181.026 52 173.265 42 173.265 42L159 51.4643V42V32.5357L173.265 42Z" fill="#E1D9C9"/>
<path d="M333.042 42C333.042 42 340.681 32 357.252 32C373.822 32 382 42 382 42C382 42 373.822 52 357.252 52C340.681 52 333.042 42 333.042 42L319 51.4643V42V32.5357L333.042 42Z" fill="#E1D9C9"/>
<path d="M493.042 42C493.042 42 500.681 32 517.252 32C533.822 32 542 42 542 42C542 42 533.822 52 517.252 52C500.681 52 493.042 42 493.042 42L479 51.4643V42V32.5357L493.042 42Z" fill="#E1D9C9"/>
<path d="M652.819 42C652.819 42 660.337 32 676.645 32C692.952 32 701 42 701 42C701 42 692.952 52 676.645 52C660.337 52 652.819 42 652.819 42L639 51.4643V42V32.5357L652.819 42Z" fill="#E1D9C9"/>
<path d="M811.819 42C811.819 42 819.337 32 835.645 32C851.952 32 860 42 860 42C860 42 851.952 52 835.645 52C819.337 52 811.819 42 811.819 42L798 51.4643V42V32.5357L811.819 42Z" fill="#E1D9C9"/>
<path d="M971.265 42C971.265 42 979.026 32 995.859 32C1012.69 32 1021 42 1021 42C1021 42 1012.69 52 995.859 52C979.026 52 971.265 42 971.265 42L957 51.4643V42V32.5357L971.265 42Z" fill="#E1D9C9"/>
<path d="M1131.26 42C1131.26 42 1139.03 32 1155.86 32C1172.69 32 1181 42 1181 42C1181 42 1172.69 52 1155.86 52C1139.03 52 1131.26 42 1131.26 42L1117 51.4643V42V32.5357L1131.26 42Z" fill="#E1D9C9"/>
<path d="M94.0418 42C94.0418 42 101.681 32 118.252 32C134.822 32 143 42 143 42C143 42 134.822 52 118.252 52C101.681 52 94.0418 42 94.0418 42L80 51.4643V42V32.5357L94.0418 42Z" fill="#E1D9C9"/>
<path d="M253.819 42C253.819 42 261.337 32 277.645 32C293.952 32 302 42 302 42C302 42 293.952 52 277.645 52C261.337 52 253.819 42 253.819 42L240 51.4643V42V32.5357L253.819 42Z" fill="#E1D9C9"/>
<path d="M412.819 42C412.819 42 420.337 32 436.645 32C452.952 32 461 42 461 42C461 42 452.952 52 436.645 52C420.337 52 412.819 42 412.819 42L399 51.4643V42V32.5357L412.819 42Z" fill="#E1D9C9"/>
<path d="M572.265 42C572.265 42 580.026 32 596.859 32C613.693 32 622 42 622 42C622 42 613.693 52 596.859 52C580.026 52 572.265 42 572.265 42L558 51.4643V42V32.5357L572.265 42Z" fill="#E1D9C9"/>
<path d="M732.042 42C732.042 42 739.681 32 756.252 32C772.822 32 781 42 781 42C781 42 772.822 52 756.252 52C739.681 52 732.042 42 732.042 42L718 51.4643V42V32.5357L732.042 42Z" fill="#E1D9C9"/>
<path d="M892.042 42C892.042 42 899.681 32 916.252 32C932.822 32 941 42 941 42C941 42 932.822 52 916.252 52C899.681 52 892.042 42 892.042 42L878 51.4643V42V32.5357L892.042 42Z" fill="#E1D9C9"/>
<path d="M1051.04 42C1051.04 42 1058.68 32 1075.25 32C1091.82 32 1100 42 1100 42C1100 42 1091.82 52 1075.25 52C1058.68 52 1051.04 42 1051.04 42L1037 51.4643V42V32.5357L1051.04 42Z" fill="#E1D9C9"/>
<path d="M1211.04 42C1211.04 42 1218.68 32 1235.25 32C1251.82 32 1260 42 1260 42C1260 42 1251.82 52 1235.25 52C1218.68 52 1211.04 42 1211.04 42L1197 51.4643V42V32.5357L1211.04 42Z" fill="#E1D9C9"/>
<path d="M1291.04 42C1291.04 42 1298.68 32 1315.25 32C1331.82 32 1340 42 1340 42C1340 42 1331.82 52 1315.25 52C1298.68 52 1291.04 42 1291.04 42L1277 51.4643V42V32.5357L1291.04 42Z" fill="#E1D9C9"/>
<path d="M14.0418 108C14.0418 108 21.6815 98 38.2519 98C54.8224 98 63 108 63 108C63 108 54.8224 118 38.2519 118C21.6815 118 14.0418 108 14.0418 108L0 117.464V108V98.5357L14.0418 108Z" fill="#E1D9C9"/>
<path d="M173.265 108C173.265 108 181.026 98 197.859 98C214.693 98 223 108 223 108C223 108 214.693 118 197.859 118C181.026 118 173.265 108 173.265 108L159 117.464V108V98.5357L173.265 108Z" fill="#E1D9C9"/>
<path d="M333.042 108C333.042 108 340.681 98 357.252 98C373.822 98 382 108 382 108C382 108 373.822 118 357.252 118C340.681 118 333.042 108 333.042 108L319 117.464V108V98.5357L333.042 108Z" fill="#E1D9C9"/>
<path d="M493.042 108C493.042 108 500.681 98 517.252 98C533.822 98 542 108 542 108C542 108 533.822 118 517.252 118C500.681 118 493.042 108 493.042 108L479 117.464V108V98.5357L493.042 108Z" fill="#E1D9C9"/>
<path d="M652.819 108C652.819 108 660.337 98 676.645 98C692.952 98 701 108 701 108C701 108 692.952 118 676.645 118C660.337 118 652.819 108 652.819 108L639 117.464V108V98.5357L652.819 108Z" fill="#E1D9C9"/>
<path d="M811.819 108C811.819 108 819.337 98 835.645 98C851.952 98 860 108 860 108C860 108 851.952 118 835.645 118C819.337 118 811.819 108 811.819 108L798 117.464V108V98.5357L811.819 108Z" fill="#E1D9C9"/>
<path d="M971.265 108C971.265 108 979.026 98 995.859 98C1012.69 98 1021 108 1021 108C1021 108 1012.69 118 995.859 118C979.026 118 971.265 108 971.265 108L957 117.464V108V98.5357L971.265 108Z" fill="#E1D9C9"/>
<path d="M1131.26 108C1131.26 108 1139.03 98 1155.86 98C1172.69 98 1181 108 1181 108C1181 108 1172.69 118 1155.86 118C1139.03 118 1131.26 108 1131.26 108L1117 117.464V108V98.5357L1131.26 108Z" fill="#E1D9C9"/>
<path d="M94.0418 108C94.0418 108 101.681 98 118.252 98C134.822 98 143 108 143 108C143 108 134.822 118 118.252 118C101.681 118 94.0418 108 94.0418 108L80 117.464V108V98.5357L94.0418 108Z" fill="#E1D9C9"/>
<path d="M253.819 108C253.819 108 261.337 98 277.645 98C293.952 98 302 108 302 108C302 108 293.952 118 277.645 118C261.337 118 253.819 108 253.819 108L240 117.464V108V98.5357L253.819 108Z" fill="#E1D9C9"/>
<path d="M412.819 108C412.819 108 420.337 98 436.645 98C452.952 98 461 108 461 108C461 108 452.952 118 436.645 118C420.337 118 412.819 108 412.819 108L399 117.464V108V98.5357L412.819 108Z" fill="#E1D9C9"/>
<path d="M572.265 108C572.265 108 580.026 98 596.859 98C613.693 98 622 108 622 108C622 108 613.693 118 596.859 118C580.026 118 572.265 108 572.265 108L558 117.464V108V98.5357L572.265 108Z" fill="#E1D9C9"/>
<path d="M732.042 108C732.042 108 739.681 98 756.252 98C772.822 98 781 108 781 108C781 108 772.822 118 756.252 118C739.681 118 732.042 108 732.042 108L718 117.464V108V98.5357L732.042 108Z" fill="#E1D9C9"/>
<path d="M892.042 108C892.042 108 899.681 98 916.252 98C932.822 98 941 108 941 108C941 108 932.822 118 916.252 118C899.681 118 892.042 108 892.042 108L878 117.464V108V98.5357L892.042 108Z" fill="#E1D9C9"/>
<path d="M1051.04 108C1051.04 108 1058.68 98 1075.25 98C1091.82 98 1100 108 1100 108C1100 108 1091.82 118 1075.25 118C1058.68 118 1051.04 108 1051.04 108L1037 117.464V108V98.5357L1051.04 108Z" fill="#E1D9C9"/>
<path d="M1211.04 108C1211.04 108 1218.68 98 1235.25 98C1251.82 98 1260 108 1260 108C1260 108 1251.82 118 1235.25 118C1218.68 118 1211.04 108 1211.04 108L1197 117.464V108V98.5357L1211.04 108Z" fill="#E1D9C9"/>
<path d="M1291.04 108C1291.04 108 1298.68 98 1315.25 98C1331.82 98 1340 108 1340 108C1340 108 1331.82 118 1315.25 118C1298.68 118 1291.04 108 1291.04 108L1277 117.464V108V98.5357L1291.04 108Z" fill="#E1D9C9"/>
<path d="M14.0418 142C14.0418 142 21.6815 132 38.2519 132C54.8224 132 63 142 63 142C63 142 54.8224 152 38.2519 152C21.6815 152 14.0418 142 14.0418 142L0 151.464V142V132.536L14.0418 142Z" fill="#E1D9C9"/>
<path d="M173.265 142C173.265 142 181.026 132 197.859 132C214.693 132 223 142 223 142C223 142 214.693 152 197.859 152C181.026 152 173.265 142 173.265 142L159 151.464V142V132.536L173.265 142Z" fill="#E1D9C9"/>
<path d="M333.042 142C333.042 142 340.681 132 357.252 132C373.822 132 382 142 382 142C382 142 373.822 152 357.252 152C340.681 152 333.042 142 333.042 142L319 151.464V142V132.536L333.042 142Z" fill="#E1D9C9"/>
<path d="M493.042 142C493.042 142 500.681 132 517.252 132C533.822 132 542 142 542 142C542 142 533.822 152 517.252 152C500.681 152 493.042 142 493.042 142L479 151.464V142V132.536L493.042 142Z" fill="#E1D9C9"/>
<path d="M652.819 142C652.819 142 660.337 132 676.645 132C692.952 132 701 142 701 142C701 142 692.952 152 676.645 152C660.337 152 652.819 142 652.819 142L639 151.464V142V132.536L652.819 142Z" fill="#E1D9C9"/>
<path d="M811.819 142C811.819 142 819.337 132 835.645 132C851.952 132 860 142 860 142C860 142 851.952 152 835.645 152C819.337 152 811.819 142 811.819 142L798 151.464V142V132.536L811.819 142Z" fill="#E1D9C9"/>
<path d="M971.265 142C971.265 142 979.026 132 995.859 132C1012.69 132 1021 142 1021 142C1021 142 1012.69 152 995.859 152C979.026 152 971.265 142 971.265 142L957 151.464V142V132.536L971.265 142Z" fill="#E1D9C9"/>
<path d="M1131.26 142C1131.26 142 1139.03 132 1155.86 132C1172.69 132 1181 142 1181 142C1181 142 1172.69 152 1155.86 152C1139.03 152 1131.26 142 1131.26 142L1117 151.464V142V132.536L1131.26 142Z" fill="#E1D9C9"/>
<path d="M94.0418 142C94.0418 142 101.681 132 118.252 132C134.822 132 143 142 143 142C143 142 134.822 152 118.252 152C101.681 152 94.0418 142 94.0418 142L80 151.464V142V132.536L94.0418 142Z" fill="#E1D9C9"/>
<path d="M253.819 142C253.819 142 261.337 132 277.645 132C293.952 132 302 142 302 142C302 142 293.952 152 277.645 152C261.337 152 253.819 142 253.819 142L240 151.464V142V132.536L253.819 142Z" fill="#E1D9C9"/>
<path d="M412.819 142C412.819 142 420.337 132 436.645 132C452.952 132 461 142 461 142C461 142 452.952 152 436.645 152C420.337 152 412.819 142 412.819 142L399 151.464V142V132.536L412.819 142Z" fill="#E1D9C9"/>
<path d="M572.265 142C572.265 142 580.026 132 596.859 132C613.693 132 622 142 622 142C622 142 613.693 152 596.859 152C580.026 152 572.265 142 572.265 142L558 151.464V142V132.536L572.265 142Z" fill="#E1D9C9"/>
<path d="M732.042 142C732.042 142 739.681 132 756.252 132C772.822 132 781 142 781 142C781 142 772.822 152 756.252 152C739.681 152 732.042 142 732.042 142L718 151.464V142V132.536L732.042 142Z" fill="#E1D9C9"/>
<path d="M892.042 142C892.042 142 899.681 132 916.252 132C932.822 132 941 142 941 142C941 142 932.822 152 916.252 152C899.681 152 892.042 142 892.042 142L878 151.464V142V132.536L892.042 142Z" fill="#E1D9C9"/>
<path d="M1051.04 142C1051.04 142 1058.68 132 1075.25 132C1091.82 132 1100 142 1100 142C1100 142 1091.82 152 1075.25 152C1058.68 152 1051.04 142 1051.04 142L1037 151.464V142V132.536L1051.04 142Z" fill="#E1D9C9"/>
<path d="M1211.04 142C1211.04 142 1218.68 132 1235.25 132C1251.82 132 1260 142 1260 142C1260 142 1251.82 152 1235.25 152C1218.68 152 1211.04 142 1211.04 142L1197 151.464V142V132.536L1211.04 142Z" fill="#E1D9C9"/>
<path d="M1291.04 142C1291.04 142 1298.68 132 1315.25 132C1331.82 132 1340 142 1340 142C1340 142 1331.82 152 1315.25 152C1298.68 152 1291.04 142 1291.04 142L1277 151.464V142V132.536L1291.04 142Z" fill="#E1D9C9"/>
<path d="M14.0418 176C14.0418 176 21.6815 166 38.2519 166C54.8224 166 63 176 63 176C63 176 54.8224 186 38.2519 186C21.6815 186 14.0418 176 14.0418 176L0 185.464V176V166.536L14.0418 176Z" fill="#E1D9C9"/>
<path d="M173.265 176C173.265 176 181.026 166 197.859 166C214.693 166 223 176 223 176C223 176 214.693 186 197.859 186C181.026 186 173.265 176 173.265 176L159 185.464V176V166.536L173.265 176Z" fill="#E1D9C9"/>
<path d="M333.042 176C333.042 176 340.681 166 357.252 166C373.822 166 382 176 382 176C382 176 373.822 186 357.252 186C340.681 186 333.042 176 333.042 176L319 185.464V176V166.536L333.042 176Z" fill="#E1D9C9"/>
<path d="M493.042 176C493.042 176 500.681 166 517.252 166C533.822 166 542 176 542 176C542 176 533.822 186 517.252 186C500.681 186 493.042 176 493.042 176L479 185.464V176V166.536L493.042 176Z" fill="#E1D9C9"/>
<path d="M652.819 176C652.819 176 660.337 166 676.645 166C692.952 166 701 176 701 176C701 176 692.952 186 676.645 186C660.337 186 652.819 176 652.819 176L639 185.464V176V166.536L652.819 176Z" fill="#E1D9C9"/>
<path d="M811.819 176C811.819 176 819.337 166 835.645 166C851.952 166 860 176 860 176C860 176 851.952 186 835.645 186C819.337 186 811.819 176 811.819 176L798 185.464V176V166.536L811.819 176Z" fill="#E1D9C9"/>
<path d="M971.265 176C971.265 176 979.026 166 995.859 166C1012.69 166 1021 176 1021 176C1021 176 1012.69 186 995.859 186C979.026 186 971.265 176 971.265 176L957 185.464V176V166.536L971.265 176Z" fill="#E1D9C9"/>
<path d="M1131.26 176C1131.26 176 1139.03 166 1155.86 166C1172.69 166 1181 176 1181 176C1181 176 1172.69 186 1155.86 186C1139.03 186 1131.26 176 1131.26 176L1117 185.464V176V166.536L1131.26 176Z" fill="#E1D9C9"/>
<path d="M94.0418 176C94.0418 176 101.681 166 118.252 166C134.822 166 143 176 143 176C143 176 134.822 186 118.252 186C101.681 186 94.0418 176 94.0418 176L80 185.464V176V166.536L94.0418 176Z" fill="#E1D9C9"/>
<path d="M253.819 176C253.819 176 261.337 166 277.645 166C293.952 166 302 176 302 176C302 176 293.952 186 277.645 186C261.337 186 253.819 176 253.819 176L240 185.464V176V166.536L253.819 176Z" fill="#E1D9C9"/>
<path d="M412.819 176C412.819 176 420.337 166 436.645 166C452.952 166 461 176 461 176C461 176 452.952 186 436.645 186C420.337 186 412.819 176 412.819 176L399 185.464V176V166.536L412.819 176Z" fill="#E1D9C9"/>
<path d="M572.265 176C572.265 176 580.026 166 596.859 166C613.693 166 622 176 622 176C622 176 613.693 186 596.859 186C580.026 186 572.265 176 572.265 176L558 185.464V176V166.536L572.265 176Z" fill="#E1D9C9"/>
<path d="M732.042 176C732.042 176 739.681 166 756.252 166C772.822 166 781 176 781 176C781 176 772.822 186 756.252 186C739.681 186 732.042 176 732.042 176L718 185.464V176V166.536L732.042 176Z" fill="#E1D9C9"/>
<path d="M892.042 176C892.042 176 899.681 166 916.252 166C932.822 166 941 176 941 176C941 176 932.822 186 916.252 186C899.681 186 892.042 176 892.042 176L878 185.464V176V166.536L892.042 176Z" fill="#E1D9C9"/>
<path d="M1051.04 176C1051.04 176 1058.68 166 1075.25 166C1091.82 166 1100 176 1100 176C1100 176 1091.82 186 1075.25 186C1058.68 186 1051.04 176 1051.04 176L1037 185.464V176V166.536L1051.04 176Z" fill="#E1D9C9"/>
<path d="M1211.04 176C1211.04 176 1218.68 166 1235.25 166C1251.82 166 1260 176 1260 176C1260 176 1251.82 186 1235.25 186C1218.68 186 1211.04 176 1211.04 176L1197 185.464V176V166.536L1211.04 176Z" fill="#E1D9C9"/>
<path d="M1291.04 176C1291.04 176 1298.68 166 1315.25 166C1331.82 166 1340 176 1340 176C1340 176 1331.82 186 1315.25 186C1298.68 186 1291.04 176 1291.04 176L1277 185.464V176V166.536L1291.04 176Z" fill="#E1D9C9"/>
<path d="M14.0418 210C14.0418 210 21.6815 200 38.2519 200C54.8224 200 63 210 63 210C63 210 54.8224 220 38.2519 220C21.6815 220 14.0418 210 14.0418 210L0 219.464V210V200.536L14.0418 210Z" fill="#E1D9C9"/>
<path d="M173.265 210C173.265 210 181.026 200 197.859 200C214.693 200 223 210 223 210C223 210 214.693 220 197.859 220C181.026 220 173.265 210 173.265 210L159 219.464V210V200.536L173.265 210Z" fill="#E1D9C9"/>
<path d="M333.042 210C333.042 210 340.681 200 357.252 200C373.822 200 382 210 382 210C382 210 373.822 220 357.252 220C340.681 220 333.042 210 333.042 210L319 219.464V210V200.536L333.042 210Z" fill="#E1D9C9"/>
<path d="M493.042 210C493.042 210 500.681 200 517.252 200C533.822 200 542 210 542 210C542 210 533.822 220 517.252 220C500.681 220 493.042 210 493.042 210L479 219.464V210V200.536L493.042 210Z" fill="#E1D9C9"/>
<path d="M652.819 210C652.819 210 660.337 200 676.645 200C692.952 200 701 210 701 210C701 210 692.952 220 676.645 220C660.337 220 652.819 210 652.819 210L639 219.464V210V200.536L652.819 210Z" fill="#E1D9C9"/>
<path d="M811.819 210C811.819 210 819.337 200 835.645 200C851.952 200 860 210 860 210C860 210 851.952 220 835.645 220C819.337 220 811.819 210 811.819 210L798 219.464V210V200.536L811.819 210Z" fill="#E1D9C9"/>
<path d="M971.265 210C971.265 210 979.026 200 995.859 200C1012.69 200 1021 210 1021 210C1021 210 1012.69 220 995.859 220C979.026 220 971.265 210 971.265 210L957 219.464V210V200.536L971.265 210Z" fill="#E1D9C9"/>
<path d="M1131.26 210C1131.26 210 1139.03 200 1155.86 200C1172.69 200 1181 210 1181 210C1181 210 1172.69 220 1155.86 220C1139.03 220 1131.26 210 1131.26 210L1117 219.464V210V200.536L1131.26 210Z" fill="#E1D9C9"/>
<path d="M94.0418 210C94.0418 210 101.681 200 118.252 200C134.822 200 143 210 143 210C143 210 134.822 220 118.252 220C101.681 220 94.0418 210 94.0418 210L80 219.464V210V200.536L94.0418 210Z" fill="#E1D9C9"/>
<path d="M253.819 210C253.819 210 261.337 200 277.645 200C293.952 200 302 210 302 210C302 210 293.952 220 277.645 220C261.337 220 253.819 210 253.819 210L240 219.464V210V200.536L253.819 210Z" fill="#E1D9C9"/>
<path d="M412.819 210C412.819 210 420.337 200 436.645 200C452.952 200 461 210 461 210C461 210 452.952 220 436.645 220C420.337 220 412.819 210 412.819 210L399 219.464V210V200.536L412.819 210Z" fill="#E1D9C9"/>
<path d="M572.265 210C572.265 210 580.026 200 596.859 200C613.693 200 622 210 622 210C622 210 613.693 220 596.859 220C580.026 220 572.265 210 572.265 210L558 219.464V210V200.536L572.265 210Z" fill="#E1D9C9"/>
<path d="M732.042 210C732.042 210 739.681 200 756.252 200C772.822 200 781 210 781 210C781 210 772.822 220 756.252 220C739.681 220 732.042 210 732.042 210L718 219.464V210V200.536L732.042 210Z" fill="#E1D9C9"/>
<path d="M892.042 210C892.042 210 899.681 200 916.252 200C932.822 200 941 210 941 210C941 210 932.822 220 916.252 220C899.681 220 892.042 210 892.042 210L878 219.464V210V200.536L892.042 210Z" fill="#E1D9C9"/>
<path d="M1051.04 210C1051.04 210 1058.68 200 1075.25 200C1091.82 200 1100 210 1100 210C1100 210 1091.82 220 1075.25 220C1058.68 220 1051.04 210 1051.04 210L1037 219.464V210V200.536L1051.04 210Z" fill="#E1D9C9"/>
<path d="M1211.04 210C1211.04 210 1218.68 200 1235.25 200C1251.82 200 1260 210 1260 210C1260 210 1251.82 220 1235.25 220C1218.68 220 1211.04 210 1211.04 210L1197 219.464V210V200.536L1211.04 210Z" fill="#E1D9C9"/>
<path d="M1291.04 210C1291.04 210 1298.68 200 1315.25 200C1331.82 200 1340 210 1340 210C1340 210 1331.82 220 1315.25 220C1298.68 220 1291.04 210 1291.04 210L1277 219.464V210V200.536L1291.04 210Z" fill="#E1D9C9"/>
<path d="M14.0418 244C14.0418 244 21.6815 234 38.2519 234C54.8224 234 63 244 63 244C63 244 54.8224 254 38.2519 254C21.6815 254 14.0418 244 14.0418 244L0 253.464V244V234.536L14.0418 244Z" fill="#E1D9C9"/>
<path d="M173.265 244C173.265 244 181.026 234 197.859 234C214.693 234 223 244 223 244C223 244 214.693 254 197.859 254C181.026 254 173.265 244 173.265 244L159 253.464V244V234.536L173.265 244Z" fill="#E1D9C9"/>
<path d="M333.042 244C333.042 244 340.681 234 357.252 234C373.822 234 382 244 382 244C382 244 373.822 254 357.252 254C340.681 254 333.042 244 333.042 244L319 253.464V244V234.536L333.042 244Z" fill="#E1D9C9"/>
<path d="M493.042 244C493.042 244 500.681 234 517.252 234C533.822 234 542 244 542 244C542 244 533.822 254 517.252 254C500.681 254 493.042 244 493.042 244L479 253.464V244V234.536L493.042 244Z" fill="#E1D9C9"/>
<path d="M652.819 244C652.819 244 660.337 234 676.645 234C692.952 234 701 244 701 244C701 244 692.952 254 676.645 254C660.337 254 652.819 244 652.819 244L639 253.464V244V234.536L652.819 244Z" fill="#E1D9C9"/>
<path d="M811.819 244C811.819 244 819.337 234 835.645 234C851.952 234 860 244 860 244C860 244 851.952 254 835.645 254C819.337 254 811.819 244 811.819 244L798 253.464V244V234.536L811.819 244Z" fill="#E1D9C9"/>
<path d="M971.265 244C971.265 244 979.026 234 995.859 234C1012.69 234 1021 244 1021 244C1021 244 1012.69 254 995.859 254C979.026 254 971.265 244 971.265 244L957 253.464V244V234.536L971.265 244Z" fill="#E1D9C9"/>
<path d="M1131.26 244C1131.26 244 1139.03 234 1155.86 234C1172.69 234 1181 244 1181 244C1181 244 1172.69 254 1155.86 254C1139.03 254 1131.26 244 1131.26 244L1117 253.464V244V234.536L1131.26 244Z" fill="#E1D9C9"/>
<path d="M94.0418 244C94.0418 244 101.681 234 118.252 234C134.822 234 143 244 143 244C143 244 134.822 254 118.252 254C101.681 254 94.0418 244 94.0418 244L80 253.464V244V234.536L94.0418 244Z" fill="#E1D9C9"/>
<path d="M253.819 244C253.819 244 261.337 234 277.645 234C293.952 234 302 244 302 244C302 244 293.952 254 277.645 254C261.337 254 253.819 244 253.819 244L240 253.464V244V234.536L253.819 244Z" fill="#E1D9C9"/>
<path d="M412.819 244C412.819 244 420.337 234 436.645 234C452.952 234 461 244 461 244C461 244 452.952 254 436.645 254C420.337 254 412.819 244 412.819 244L399 253.464V244V234.536L412.819 244Z" fill="#E1D9C9"/>
<path d="M572.265 244C572.265 244 580.026 234 596.859 234C613.693 234 622 244 622 244C622 244 613.693 254 596.859 254C580.026 254 572.265 244 572.265 244L558 253.464V244V234.536L572.265 244Z" fill="#E1D9C9"/>
<path d="M732.042 244C732.042 244 739.681 234 756.252 234C772.822 234 781 244 781 244C781 244 772.822 254 756.252 254C739.681 254 732.042 244 732.042 244L718 253.464V244V234.536L732.042 244Z" fill="#E1D9C9"/>
<path d="M892.042 244C892.042 244 899.681 234 916.252 234C932.822 234 941 244 941 244C941 244 932.822 254 916.252 254C899.681 254 892.042 244 892.042 244L878 253.464V244V234.536L892.042 244Z" fill="#E1D9C9"/>
<path d="M1051.04 244C1051.04 244 1058.68 234 1075.25 234C1091.82 234 1100 244 1100 244C1100 244 1091.82 254 1075.25 254C1058.68 254 1051.04 244 1051.04 244L1037 253.464V244V234.536L1051.04 244Z" fill="#E1D9C9"/>
<path d="M1211.04 244C1211.04 244 1218.68 234 1235.25 234C1251.82 234 1260 244 1260 244C1260 244 1251.82 254 1235.25 254C1218.68 254 1211.04 244 1211.04 244L1197 253.464V244V234.536L1211.04 244Z" fill="#E1D9C9"/>
<path d="M1291.04 244C1291.04 244 1298.68 234 1315.25 234C1331.82 234 1340 244 1340 244C1340 244 1331.82 254 1315.25 254C1298.68 254 1291.04 244 1291.04 244L1277 253.464V244V234.536L1291.04 244Z" fill="#E1D9C9"/>
<path d="M14.0418 278C14.0418 278 21.6815 268 38.2519 268C54.8224 268 63 278 63 278C63 278 54.8224 288 38.2519 288C21.6815 288 14.0418 278 14.0418 278L0 287.464V278V268.536L14.0418 278Z" fill="#E1D9C9"/>
<path d="M173.265 278C173.265 278 181.026 268 197.859 268C214.693 268 223 278 223 278C223 278 214.693 288 197.859 288C181.026 288 173.265 278 173.265 278L159 287.464V278V268.536L173.265 278Z" fill="#E1D9C9"/>
<path d="M333.042 278C333.042 278 340.681 268 357.252 268C373.822 268 382 278 382 278C382 278 373.822 288 357.252 288C340.681 288 333.042 278 333.042 278L319 287.464V278V268.536L333.042 278Z" fill="#E1D9C9"/>
<path d="M493.042 278C493.042 278 500.681 268 517.252 268C533.822 268 542 278 542 278C542 278 533.822 288 517.252 288C500.681 288 493.042 278 493.042 278L479 287.464V278V268.536L493.042 278Z" fill="#E1D9C9"/>
<path d="M652.819 278C652.819 278 660.337 268 676.645 268C692.952 268 701 278 701 278C701 278 692.952 288 676.645 288C660.337 288 652.819 278 652.819 278L639 287.464V278V268.536L652.819 278Z" fill="#E1D9C9"/>
<path d="M811.819 278C811.819 278 819.337 268 835.645 268C851.952 268 860 278 860 278C860 278 851.952 288 835.645 288C819.337 288 811.819 278 811.819 278L798 287.464V278V268.536L811.819 278Z" fill="#E1D9C9"/>
<path d="M971.265 278C971.265 278 979.026 268 995.859 268C1012.69 268 1021 278 1021 278C1021 278 1012.69 288 995.859 288C979.026 288 971.265 278 971.265 278L957 287.464V278V268.536L971.265 278Z" fill="#E1D9C9"/>
<path d="M1131.26 278C1131.26 278 1139.03 268 1155.86 268C1172.69 268 1181 278 1181 278C1181 278 1172.69 288 1155.86 288C1139.03 288 1131.26 278 1131.26 278L1117 287.464V278V268.536L1131.26 278Z" fill="#E1D9C9"/>
<path d="M94.0418 278C94.0418 278 101.681 268 118.252 268C134.822 268 143 278 143 278C143 278 134.822 288 118.252 288C101.681 288 94.0418 278 94.0418 278L80 287.464V278V268.536L94.0418 278Z" fill="#E1D9C9"/>
<path d="M253.819 278C253.819 278 261.337 268 277.645 268C293.952 268 302 278 302 278C302 278 293.952 288 277.645 288C261.337 288 253.819 278 253.819 278L240 287.464V278V268.536L253.819 278Z" fill="#E1D9C9"/>
<path d="M412.819 278C412.819 278 420.337 268 436.645 268C452.952 268 461 278 461 278C461 278 452.952 288 436.645 288C420.337 288 412.819 278 412.819 278L399 287.464V278V268.536L412.819 278Z" fill="#E1D9C9"/>
<path d="M572.265 278C572.265 278 580.026 268 596.859 268C613.693 268 622 278 622 278C622 278 613.693 288 596.859 288C580.026 288 572.265 278 572.265 278L558 287.464V278V268.536L572.265 278Z" fill="#E1D9C9"/>
<path d="M732.042 278C732.042 278 739.681 268 756.252 268C772.822 268 781 278 781 278C781 278 772.822 288 756.252 288C739.681 288 732.042 278 732.042 278L718 287.464V278V268.536L732.042 278Z" fill="#E1D9C9"/>
<path d="M892.042 278C892.042 278 899.681 268 916.252 268C932.822 268 941 278 941 278C941 278 932.822 288 916.252 288C899.681 288 892.042 278 892.042 278L878 287.464V278V268.536L892.042 278Z" fill="#E1D9C9"/>
<path d="M1051.04 278C1051.04 278 1058.68 268 1075.25 268C1091.82 268 1100 278 1100 278C1100 278 1091.82 288 1075.25 288C1058.68 288 1051.04 278 1051.04 278L1037 287.464V278V268.536L1051.04 278Z" fill="#E1D9C9"/>
<path d="M1211.04 278C1211.04 278 1218.68 268 1235.25 268C1251.82 268 1260 278 1260 278C1260 278 1251.82 288 1235.25 288C1218.68 288 1211.04 278 1211.04 278L1197 287.464V278V268.536L1211.04 278Z" fill="#E1D9C9"/>
<path d="M1291.04 278C1291.04 278 1298.68 268 1315.25 268C1331.82 268 1340 278 1340 278C1340 278 1331.82 288 1315.25 288C1298.68 288 1291.04 278 1291.04 278L1277 287.464V278V268.536L1291.04 278Z" fill="#E1D9C9"/>
<path d="M14.0418 312C14.0418 312 21.6815 302 38.2519 302C54.8224 302 63 312 63 312C63 312 54.8224 322 38.2519 322C21.6815 322 14.0418 312 14.0418 312L0 321.464V312V302.536L14.0418 312Z" fill="#E1D9C9"/>
<path d="M173.265 312C173.265 312 181.026 302 197.859 302C214.693 302 223 312 223 312C223 312 214.693 322 197.859 322C181.026 322 173.265 312 173.265 312L159 321.464V312V302.536L173.265 312Z" fill="#E1D9C9"/>
<path d="M333.042 312C333.042 312 340.681 302 357.252 302C373.822 302 382 312 382 312C382 312 373.822 322 357.252 322C340.681 322 333.042 312 333.042 312L319 321.464V312V302.536L333.042 312Z" fill="#E1D9C9"/>
<path d="M493.042 312C493.042 312 500.681 302 517.252 302C533.822 302 542 312 542 312C542 312 533.822 322 517.252 322C500.681 322 493.042 312 493.042 312L479 321.464V312V302.536L493.042 312Z" fill="#E1D9C9"/>
<path d="M652.819 312C652.819 312 660.337 302 676.645 302C692.952 302 701 312 701 312C701 312 692.952 322 676.645 322C660.337 322 652.819 312 652.819 312L639 321.464V312V302.536L652.819 312Z" fill="#E1D9C9"/>
<path d="M811.819 312C811.819 312 819.337 302 835.645 302C851.952 302 860 312 860 312C860 312 851.952 322 835.645 322C819.337 322 811.819 312 811.819 312L798 321.464V312V302.536L811.819 312Z" fill="#E1D9C9"/>
<path d="M971.265 312C971.265 312 979.026 302 995.859 302C1012.69 302 1021 312 1021 312C1021 312 1012.69 322 995.859 322C979.026 322 971.265 312 971.265 312L957 321.464V312V302.536L971.265 312Z" fill="#E1D9C9"/>
<path d="M1131.26 312C1131.26 312 1139.03 302 1155.86 302C1172.69 302 1181 312 1181 312C1181 312 1172.69 322 1155.86 322C1139.03 322 1131.26 312 1131.26 312L1117 321.464V312V302.536L1131.26 312Z" fill="#E1D9C9"/>
<path d="M94.0418 312C94.0418 312 101.681 302 118.252 302C134.822 302 143 312 143 312C143 312 134.822 322 118.252 322C101.681 322 94.0418 312 94.0418 312L80 321.464V312V302.536L94.0418 312Z" fill="#E1D9C9"/>
<path d="M253.819 312C253.819 312 261.337 302 277.645 302C293.952 302 302 312 302 312C302 312 293.952 322 277.645 322C261.337 322 253.819 312 253.819 312L240 321.464V312V302.536L253.819 312Z" fill="#E1D9C9"/>
<path d="M412.819 312C412.819 312 420.337 302 436.645 302C452.952 302 461 312 461 312C461 312 452.952 322 436.645 322C420.337 322 412.819 312 412.819 312L399 321.464V312V302.536L412.819 312Z" fill="#E1D9C9"/>
<path d="M572.265 312C572.265 312 580.026 302 596.859 302C613.693 302 622 312 622 312C622 312 613.693 322 596.859 322C580.026 322 572.265 312 572.265 312L558 321.464V312V302.536L572.265 312Z" fill="#E1D9C9"/>
<path d="M732.042 312C732.042 312 739.681 302 756.252 302C772.822 302 781 312 781 312C781 312 772.822 322 756.252 322C739.681 322 732.042 312 732.042 312L718 321.464V312V302.536L732.042 312Z" fill="#E1D9C9"/>
<path d="M892.042 312C892.042 312 899.681 302 916.252 302C932.822 302 941 312 941 312C941 312 932.822 322 916.252 322C899.681 322 892.042 312 892.042 312L878 321.464V312V302.536L892.042 312Z" fill="#E1D9C9"/>
<path d="M1051.04 312C1051.04 312 1058.68 302 1075.25 302C1091.82 302 1100 312 1100 312C1100 312 1091.82 322 1075.25 322C1058.68 322 1051.04 312 1051.04 312L1037 321.464V312V302.536L1051.04 312Z" fill="#E1D9C9"/>
<path d="M1211.04 312C1211.04 312 1218.68 302 1235.25 302C1251.82 302 1260 312 1260 312C1260 312 1251.82 322 1235.25 322C1218.68 322 1211.04 312 1211.04 312L1197 321.464V312V302.536L1211.04 312Z" fill="#E1D9C9"/>
<path d="M1291.04 312C1291.04 312 1298.68 302 1315.25 302C1331.82 302 1340 312 1340 312C1340 312 1331.82 322 1315.25 322C1298.68 322 1291.04 312 1291.04 312L1277 321.464V312V302.536L1291.04 312Z" fill="#E1D9C9"/>
<path d="M14.0418 346C14.0418 346 21.6815 336 38.2519 336C54.8224 336 63 346 63 346C63 346 54.8224 356 38.2519 356C21.6815 356 14.0418 346 14.0418 346L0 355.464V346V336.536L14.0418 346Z" fill="#E1D9C9"/>
<path d="M173.265 346C173.265 346 181.026 336 197.859 336C214.693 336 223 346 223 346C223 346 214.693 356 197.859 356C181.026 356 173.265 346 173.265 346L159 355.464V346V336.536L173.265 346Z" fill="#E1D9C9"/>
<path d="M333.042 346C333.042 346 340.681 336 357.252 336C373.822 336 382 346 382 346C382 346 373.822 356 357.252 356C340.681 356 333.042 346 333.042 346L319 355.464V346V336.536L333.042 346Z" fill="#E1D9C9"/>
<path d="M493.042 346C493.042 346 500.681 336 517.252 336C533.822 336 542 346 542 346C542 346 533.822 356 517.252 356C500.681 356 493.042 346 493.042 346L479 355.464V346V336.536L493.042 346Z" fill="#E1D9C9"/>
<path d="M652.819 346C652.819 346 660.337 336 676.645 336C692.952 336 701 346 701 346C701 346 692.952 356 676.645 356C660.337 356 652.819 346 652.819 346L639 355.464V346V336.536L652.819 346Z" fill="#E1D9C9"/>
<path d="M811.819 346C811.819 346 819.337 336 835.645 336C851.952 336 860 346 860 346C860 346 851.952 356 835.645 356C819.337 356 811.819 346 811.819 346L798 355.464V346V336.536L811.819 346Z" fill="#E1D9C9"/>
<path d="M971.265 346C971.265 346 979.026 336 995.859 336C1012.69 336 1021 346 1021 346C1021 346 1012.69 356 995.859 356C979.026 356 971.265 346 971.265 346L957 355.464V346V336.536L971.265 346Z" fill="#E1D9C9"/>
<path d="M1131.26 346C1131.26 346 1139.03 336 1155.86 336C1172.69 336 1181 346 1181 346C1181 346 1172.69 356 1155.86 356C1139.03 356 1131.26 346 1131.26 346L1117 355.464V346V336.536L1131.26 346Z" fill="#E1D9C9"/>
<path d="M94.0418 346C94.0418 346 101.681 336 118.252 336C134.822 336 143 346 143 346C143 346 134.822 356 118.252 356C101.681 356 94.0418 346 94.0418 346L80 355.464V346V336.536L94.0418 346Z" fill="#E1D9C9"/>
<path d="M253.819 346C253.819 346 261.337 336 277.645 336C293.952 336 302 346 302 346C302 346 293.952 356 277.645 356C261.337 356 253.819 346 253.819 346L240 355.464V346V336.536L253.819 346Z" fill="#E1D9C9"/>
<path d="M412.819 346C412.819 346 420.337 336 436.645 336C452.952 336 461 346 461 346C461 346 452.952 356 436.645 356C420.337 356 412.819 346 412.819 346L399 355.464V346V336.536L412.819 346Z" fill="#E1D9C9"/>
<path d="M572.265 346C572.265 346 580.026 336 596.859 336C613.693 336 622 346 622 346C622 346 613.693 356 596.859 356C580.026 356 572.265 346 572.265 346L558 355.464V346V336.536L572.265 346Z" fill="#E1D9C9"/>
<path d="M732.042 346C732.042 346 739.681 336 756.252 336C772.822 336 781 346 781 346C781 346 772.822 356 756.252 356C739.681 356 732.042 346 732.042 346L718 355.464V346V336.536L732.042 346Z" fill="#E1D9C9"/>
<path d="M892.042 346C892.042 346 899.681 336 916.252 336C932.822 336 941 346 941 346C941 346 932.822 356 916.252 356C899.681 356 892.042 346 892.042 346L878 355.464V346V336.536L892.042 346Z" fill="#E1D9C9"/>
<path d="M1051.04 346C1051.04 346 1058.68 336 1075.25 336C1091.82 336 1100 346 1100 346C1100 346 1091.82 356 1075.25 356C1058.68 356 1051.04 346 1051.04 346L1037 355.464V346V336.536L1051.04 346Z" fill="#E1D9C9"/>
<path d="M1211.04 346C1211.04 346 1218.68 336 1235.25 336C1251.82 336 1260 346 1260 346C1260 346 1251.82 356 1235.25 356C1218.68 356 1211.04 346 1211.04 346L1197 355.464V346V336.536L1211.04 346Z" fill="#E1D9C9"/>
<path d="M1291.04 346C1291.04 346 1298.68 336 1315.25 336C1331.82 336 1340 346 1340 346C1340 346 1331.82 356 1315.25 356C1298.68 356 1291.04 346 1291.04 346L1277 355.464V346V336.536L1291.04 346Z" fill="#E1D9C9"/>
<path d="M14.0418 380C14.0418 380 21.6815 370 38.2519 370C54.8224 370 63 380 63 380C63 380 54.8224 390 38.2519 390C21.6815 390 14.0418 380 14.0418 380L0 389.464V380V370.536L14.0418 380Z" fill="#E1D9C9"/>
<path d="M173.265 380C173.265 380 181.026 370 197.859 370C214.693 370 223 380 223 380C223 380 214.693 390 197.859 390C181.026 390 173.265 380 173.265 380L159 389.464V380V370.536L173.265 380Z" fill="#E1D9C9"/>
<path d="M333.042 380C333.042 380 340.681 370 357.252 370C373.822 370 382 380 382 380C382 380 373.822 390 357.252 390C340.681 390 333.042 380 333.042 380L319 389.464V380V370.536L333.042 380Z" fill="#E1D9C9"/>
<path d="M493.042 380C493.042 380 500.681 370 517.252 370C533.822 370 542 380 542 380C542 380 533.822 390 517.252 390C500.681 390 493.042 380 493.042 380L479 389.464V380V370.536L493.042 380Z" fill="#E1D9C9"/>
<path d="M652.819 380C652.819 380 660.337 370 676.645 370C692.952 370 701 380 701 380C701 380 692.952 390 676.645 390C660.337 390 652.819 380 652.819 380L639 389.464V380V370.536L652.819 380Z" fill="#E1D9C9"/>
<path d="M811.819 380C811.819 380 819.337 370 835.645 370C851.952 370 860 380 860 380C860 380 851.952 390 835.645 390C819.337 390 811.819 380 811.819 380L798 389.464V380V370.536L811.819 380Z" fill="#E1D9C9"/>
<path d="M971.265 380C971.265 380 979.026 370 995.859 370C1012.69 370 1021 380 1021 380C1021 380 1012.69 390 995.859 390C979.026 390 971.265 380 971.265 380L957 389.464V380V370.536L971.265 380Z" fill="#E1D9C9"/>
<path d="M1131.26 380C1131.26 380 1139.03 370 1155.86 370C1172.69 370 1181 380 1181 380C1181 380 1172.69 390 1155.86 390C1139.03 390 1131.26 380 1131.26 380L1117 389.464V380V370.536L1131.26 380Z" fill="#E1D9C9"/>
<path d="M94.0418 380C94.0418 380 101.681 370 118.252 370C134.822 370 143 380 143 380C143 380 134.822 390 118.252 390C101.681 390 94.0418 380 94.0418 380L80 389.464V380V370.536L94.0418 380Z" fill="#E1D9C9"/>
<path d="M253.819 380C253.819 380 261.337 370 277.645 370C293.952 370 302 380 302 380C302 380 293.952 390 277.645 390C261.337 390 253.819 380 253.819 380L240 389.464V380V370.536L253.819 380Z" fill="#E1D9C9"/>
<path d="M412.819 380C412.819 380 420.337 370 436.645 370C452.952 370 461 380 461 380C461 380 452.952 390 436.645 390C420.337 390 412.819 380 412.819 380L399 389.464V380V370.536L412.819 380Z" fill="#E1D9C9"/>
<path d="M572.265 380C572.265 380 580.026 370 596.859 370C613.693 370 622 380 622 380C622 380 613.693 390 596.859 390C580.026 390 572.265 380 572.265 380L558 389.464V380V370.536L572.265 380Z" fill="#E1D9C9"/>
<path d="M732.042 380C732.042 380 739.681 370 756.252 370C772.822 370 781 380 781 380C781 380 772.822 390 756.252 390C739.681 390 732.042 380 732.042 380L718 389.464V380V370.536L732.042 380Z" fill="#E1D9C9"/>
<path d="M892.042 380C892.042 380 899.681 370 916.252 370C932.822 370 941 380 941 380C941 380 932.822 390 916.252 390C899.681 390 892.042 380 892.042 380L878 389.464V380V370.536L892.042 380Z" fill="#E1D9C9"/>
<path d="M1051.04 380C1051.04 380 1058.68 370 1075.25 370C1091.82 370 1100 380 1100 380C1100 380 1091.82 390 1075.25 390C1058.68 390 1051.04 380 1051.04 380L1037 389.464V380V370.536L1051.04 380Z" fill="#E1D9C9"/>
<path d="M1211.04 380C1211.04 380 1218.68 370 1235.25 370C1251.82 370 1260 380 1260 380C1260 380 1251.82 390 1235.25 390C1218.68 390 1211.04 380 1211.04 380L1197 389.464V380V370.536L1211.04 380Z" fill="#E1D9C9"/>
<path d="M1291.04 380C1291.04 380 1298.68 370 1315.25 370C1331.82 370 1340 380 1340 380C1340 380 1331.82 390 1315.25 390C1298.68 390 1291.04 380 1291.04 380L1277 389.464V380V370.536L1291.04 380Z" fill="#E1D9C9"/>
<path d="M14.0418 414C14.0418 414 21.6815 404 38.2519 404C54.8224 404 63 414 63 414C63 414 54.8224 424 38.2519 424C21.6815 424 14.0418 414 14.0418 414L0 423.464V414V404.536L14.0418 414Z" fill="#E1D9C9"/>
<path d="M173.265 414C173.265 414 181.026 404 197.859 404C214.693 404 223 414 223 414C223 414 214.693 424 197.859 424C181.026 424 173.265 414 173.265 414L159 423.464V414V404.536L173.265 414Z" fill="#E1D9C9"/>
<path d="M333.042 414C333.042 414 340.681 404 357.252 404C373.822 404 382 414 382 414C382 414 373.822 424 357.252 424C340.681 424 333.042 414 333.042 414L319 423.464V414V404.536L333.042 414Z" fill="#E1D9C9"/>
<path d="M493.042 414C493.042 414 500.681 404 517.252 404C533.822 404 542 414 542 414C542 414 533.822 424 517.252 424C500.681 424 493.042 414 493.042 414L479 423.464V414V404.536L493.042 414Z" fill="#E1D9C9"/>
<path d="M652.819 414C652.819 414 660.337 404 676.645 404C692.952 404 701 414 701 414C701 414 692.952 424 676.645 424C660.337 424 652.819 414 652.819 414L639 423.464V414V404.536L652.819 414Z" fill="#E1D9C9"/>
<path d="M811.819 414C811.819 414 819.337 404 835.645 404C851.952 404 860 414 860 414C860 414 851.952 424 835.645 424C819.337 424 811.819 414 811.819 414L798 423.464V414V404.536L811.819 414Z" fill="#E1D9C9"/>
<path d="M971.265 414C971.265 414 979.026 404 995.859 404C1012.69 404 1021 414 1021 414C1021 414 1012.69 424 995.859 424C979.026 424 971.265 414 971.265 414L957 423.464V414V404.536L971.265 414Z" fill="#E1D9C9"/>
<path d="M1131.26 414C1131.26 414 1139.03 404 1155.86 404C1172.69 404 1181 414 1181 414C1181 414 1172.69 424 1155.86 424C1139.03 424 1131.26 414 1131.26 414L1117 423.464V414V404.536L1131.26 414Z" fill="#E1D9C9"/>
<path d="M94.0418 414C94.0418 414 101.681 404 118.252 404C134.822 404 143 414 143 414C143 414 134.822 424 118.252 424C101.681 424 94.0418 414 94.0418 414L80 423.464V414V404.536L94.0418 414Z" fill="#E1D9C9"/>
<path d="M253.819 414C253.819 414 261.337 404 277.645 404C293.952 404 302 414 302 414C302 414 293.952 424 277.645 424C261.337 424 253.819 414 253.819 414L240 423.464V414V404.536L253.819 414Z" fill="#E1D9C9"/>
<path d="M412.819 414C412.819 414 420.337 404 436.645 404C452.952 404 461 414 461 414C461 414 452.952 424 436.645 424C420.337 424 412.819 414 412.819 414L399 423.464V414V404.536L412.819 414Z" fill="#E1D9C9"/>
<path d="M572.265 414C572.265 414 580.026 404 596.859 404C613.693 404 622 414 622 414C622 414 613.693 424 596.859 424C580.026 424 572.265 414 572.265 414L558 423.464V414V404.536L572.265 414Z" fill="#E1D9C9"/>
<path d="M732.042 414C732.042 414 739.681 404 756.252 404C772.822 404 781 414 781 414C781 414 772.822 424 756.252 424C739.681 424 732.042 414 732.042 414L718 423.464V414V404.536L732.042 414Z" fill="#E1D9C9"/>
<path d="M892.042 414C892.042 414 899.681 404 916.252 404C932.822 404 941 414 941 414C941 414 932.822 424 916.252 424C899.681 424 892.042 414 892.042 414L878 423.464V414V404.536L892.042 414Z" fill="#E1D9C9"/>
<path d="M1051.04 414C1051.04 414 1058.68 404 1075.25 404C1091.82 404 1100 414 1100 414C1100 414 1091.82 424 1075.25 424C1058.68 424 1051.04 414 1051.04 414L1037 423.464V414V404.536L1051.04 414Z" fill="#E1D9C9"/>
<path d="M1211.04 414C1211.04 414 1218.68 404 1235.25 404C1251.82 404 1260 414 1260 414C1260 414 1251.82 424 1235.25 424C1218.68 424 1211.04 414 1211.04 414L1197 423.464V414V404.536L1211.04 414Z" fill="#E1D9C9"/>
<path d="M1291.04 414C1291.04 414 1298.68 404 1315.25 404C1331.82 404 1340 414 1340 414C1340 414 1331.82 424 1315.25 424C1298.68 424 1291.04 414 1291.04 414L1277 423.464V414V404.536L1291.04 414Z" fill="#E1D9C9"/>
<path d="M14.0418 448.001C14.0418 448.001 21.6815 438.001 38.2519 438.001C54.8224 438.001 63 448.001 63 448.001C63 448.001 54.8224 458.001 38.2519 458.001C21.6815 458.001 14.0418 448.001 14.0418 448.001L0 457.465V448.001V438.537L14.0418 448.001Z" fill="#E1D9C9"/>
<path d="M173.265 448.001C173.265 448.001 181.026 438.001 197.859 438.001C214.693 438.001 223 448.001 223 448.001C223 448.001 214.693 458.001 197.859 458.001C181.026 458.001 173.265 448.001 173.265 448.001L159 457.465V448.001V438.537L173.265 448.001Z" fill="#E1D9C9"/>
<path d="M333.042 448.001C333.042 448.001 340.681 438.001 357.252 438.001C373.822 438.001 382 448.001 382 448.001C382 448.001 373.822 458.001 357.252 458.001C340.681 458.001 333.042 448.001 333.042 448.001L319 457.465V448.001V438.537L333.042 448.001Z" fill="#E1D9C9"/>
<path d="M493.042 448.001C493.042 448.001 500.681 438.001 517.252 438.001C533.822 438.001 542 448.001 542 448.001C542 448.001 533.822 458.001 517.252 458.001C500.681 458.001 493.042 448.001 493.042 448.001L479 457.465V448.001V438.537L493.042 448.001Z" fill="#E1D9C9"/>
<path d="M652.819 448.001C652.819 448.001 660.337 438.001 676.645 438.001C692.952 438.001 701 448.001 701 448.001C701 448.001 692.952 458.001 676.645 458.001C660.337 458.001 652.819 448.001 652.819 448.001L639 457.465V448.001V438.537L652.819 448.001Z" fill="#E1D9C9"/>
<path d="M811.819 448.001C811.819 448.001 819.337 438.001 835.645 438.001C851.952 438.001 860 448.001 860 448.001C860 448.001 851.952 458.001 835.645 458.001C819.337 458.001 811.819 448.001 811.819 448.001L798 457.465V448.001V438.537L811.819 448.001Z" fill="#E1D9C9"/>
<path d="M971.265 448C971.265 448 979.026 438 995.859 438C1012.69 438 1021 448 1021 448C1021 448 1012.69 458 995.859 458C979.026 458 971.265 448 971.265 448L957 457.464V448V438.536L971.265 448Z" fill="#E1D9C9"/>
<path d="M1131.26 448.001C1131.26 448.001 1139.03 438.001 1155.86 438.001C1172.69 438.001 1181 448.001 1181 448.001C1181 448.001 1172.69 458.001 1155.86 458.001C1139.03 458.001 1131.26 448.001 1131.26 448.001L1117 457.465V448.001V438.537L1131.26 448.001Z" fill="#E1D9C9"/>
<path d="M94.0418 448.001C94.0418 448.001 101.681 438.001 118.252 438.001C134.822 438.001 143 448.001 143 448.001C143 448.001 134.822 458.001 118.252 458.001C101.681 458.001 94.0418 448.001 94.0418 448.001L80 457.465V448.001V438.537L94.0418 448.001Z" fill="#E1D9C9"/>
<path d="M253.819 448.001C253.819 448.001 261.337 438.001 277.645 438.001C293.952 438.001 302 448.001 302 448.001C302 448.001 293.952 458.001 277.645 458.001C261.337 458.001 253.819 448.001 253.819 448.001L240 457.465V448.001V438.537L253.819 448.001Z" fill="#E1D9C9"/>
<path d="M412.819 448.001C412.819 448.001 420.337 438.001 436.645 438.001C452.952 438.001 461 448.001 461 448.001C461 448.001 452.952 458.001 436.645 458.001C420.337 458.001 412.819 448.001 412.819 448.001L399 457.465V448.001V438.537L412.819 448.001Z" fill="#E1D9C9"/>
<path d="M572.265 448.001C572.265 448.001 580.026 438.001 596.859 438.001C613.693 438.001 622 448.001 622 448.001C622 448.001 613.693 458.001 596.859 458.001C580.026 458.001 572.265 448.001 572.265 448.001L558 457.465V448.001V438.537L572.265 448.001Z" fill="#E1D9C9"/>
<path d="M732.042 448.001C732.042 448.001 739.681 438.001 756.252 438.001C772.822 438.001 781 448.001 781 448.001C781 448.001 772.822 458.001 756.252 458.001C739.681 458.001 732.042 448.001 732.042 448.001L718 457.465V448.001V438.537L732.042 448.001Z" fill="#E1D9C9"/>
<path d="M892.042 448.001C892.042 448.001 899.681 438.001 916.252 438.001C932.822 438.001 941 448.001 941 448.001C941 448.001 932.822 458.001 916.252 458.001C899.681 458.001 892.042 448.001 892.042 448.001L878 457.465V448.001V438.537L892.042 448.001Z" fill="#E1D9C9"/>
<path d="M1051.04 448.001C1051.04 448.001 1058.68 438.001 1075.25 438.001C1091.82 438.001 1100 448.001 1100 448.001C1100 448.001 1091.82 458.001 1075.25 458.001C1058.68 458.001 1051.04 448.001 1051.04 448.001L1037 457.465V448.001V438.537L1051.04 448.001Z" fill="#E1D9C9"/>
<path d="M1211.04 448.001C1211.04 448.001 1218.68 438.001 1235.25 438.001C1251.82 438.001 1260 448.001 1260 448.001C1260 448.001 1251.82 458.001 1235.25 458.001C1218.68 458.001 1211.04 448.001 1211.04 448.001L1197 457.465V448.001V438.537L1211.04 448.001Z" fill="#E1D9C9"/>
<path d="M1291.04 448.001C1291.04 448.001 1298.68 438.001 1315.25 438.001C1331.82 438.001 1340 448.001 1340 448.001C1340 448.001 1331.82 458.001 1315.25 458.001C1298.68 458.001 1291.04 448.001 1291.04 448.001L1277 457.465V448.001V438.537L1291.04 448.001Z" fill="#E1D9C9"/>
<path d="M14.0418 482C14.0418 482 21.6815 472 38.2519 472C54.8224 472 63 482 63 482C63 482 54.8224 492 38.2519 492C21.6815 492 14.0418 482 14.0418 482L0 491.464V482V472.536L14.0418 482Z" fill="#E1D9C9"/>
<path d="M173.265 482C173.265 482 181.026 472 197.859 472C214.693 472 223 482 223 482C223 482 214.693 492 197.859 492C181.026 492 173.265 482 173.265 482L159 491.464V482V472.536L173.265 482Z" fill="#E1D9C9"/>
<path d="M333.042 482C333.042 482 340.681 472 357.252 472C373.822 472 382 482 382 482C382 482 373.822 492 357.252 492C340.681 492 333.042 482 333.042 482L319 491.464V482V472.536L333.042 482Z" fill="#E1D9C9"/>
<path d="M493.042 482C493.042 482 500.681 472 517.252 472C533.822 472 542 482 542 482C542 482 533.822 492 517.252 492C500.681 492 493.042 482 493.042 482L479 491.464V482V472.536L493.042 482Z" fill="#E1D9C9"/>
<path d="M652.819 482C652.819 482 660.337 472 676.645 472C692.952 472 701 482 701 482C701 482 692.952 492 676.645 492C660.337 492 652.819 482 652.819 482L639 491.464V482V472.536L652.819 482Z" fill="#E1D9C9"/>
<path d="M811.819 482C811.819 482 819.337 472 835.645 472C851.952 472 860 482 860 482C860 482 851.952 492 835.645 492C819.337 492 811.819 482 811.819 482L798 491.464V482V472.536L811.819 482Z" fill="#E1D9C9"/>
<path d="M971.265 482C971.265 482 979.026 472 995.859 472C1012.69 472 1021 482 1021 482C1021 482 1012.69 492 995.859 492C979.026 492 971.265 482 971.265 482L957 491.464V482V472.536L971.265 482Z" fill="#E1D9C9"/>
<path d="M1131.26 482C1131.26 482 1139.03 472 1155.86 472C1172.69 472 1181 482 1181 482C1181 482 1172.69 492 1155.86 492C1139.03 492 1131.26 482 1131.26 482L1117 491.464V482V472.536L1131.26 482Z" fill="#E1D9C9"/>
<path d="M94.0418 482C94.0418 482 101.681 472 118.252 472C134.822 472 143 482 143 482C143 482 134.822 492 118.252 492C101.681 492 94.0418 482 94.0418 482L80 491.464V482V472.536L94.0418 482Z" fill="#E1D9C9"/>
<path d="M253.819 482C253.819 482 261.337 472 277.645 472C293.952 472 302 482 302 482C302 482 293.952 492 277.645 492C261.337 492 253.819 482 253.819 482L240 491.464V482V472.536L253.819 482Z" fill="#E1D9C9"/>
<path d="M412.819 482C412.819 482 420.337 472 436.645 472C452.952 472 461 482 461 482C461 482 452.952 492 436.645 492C420.337 492 412.819 482 412.819 482L399 491.464V482V472.536L412.819 482Z" fill="#E1D9C9"/>
<path d="M572.265 482C572.265 482 580.026 472 596.859 472C613.693 472 622 482 622 482C622 482 613.693 492 596.859 492C580.026 492 572.265 482 572.265 482L558 491.464V482V472.536L572.265 482Z" fill="#E1D9C9"/>
<path d="M732.042 482C732.042 482 739.681 472 756.252 472C772.822 472 781 482 781 482C781 482 772.822 492 756.252 492C739.681 492 732.042 482 732.042 482L718 491.464V482V472.536L732.042 482Z" fill="#E1D9C9"/>
<path d="M892.042 482C892.042 482 899.681 472 916.252 472C932.822 472 941 482 941 482C941 482 932.822 492 916.252 492C899.681 492 892.042 482 892.042 482L878 491.464V482V472.536L892.042 482Z" fill="#E1D9C9"/>
<path d="M1051.04 482C1051.04 482 1058.68 472 1075.25 472C1091.82 472 1100 482 1100 482C1100 482 1091.82 492 1075.25 492C1058.68 492 1051.04 482 1051.04 482L1037 491.464V482V472.536L1051.04 482Z" fill="#E1D9C9"/>
<path d="M1211.04 482C1211.04 482 1218.68 472 1235.25 472C1251.82 472 1260 482 1260 482C1260 482 1251.82 492 1235.25 492C1218.68 492 1211.04 482 1211.04 482L1197 491.464V482V472.536L1211.04 482Z" fill="#E1D9C9"/>
<path d="M1291.04 482C1291.04 482 1298.68 472 1315.25 472C1331.82 472 1340 482 1340 482C1340 482 1331.82 492 1315.25 492C1298.68 492 1291.04 482 1291.04 482L1277 491.464V482V472.536L1291.04 482Z" fill="#E1D9C9"/>
<path d="M14.0418 516.001C14.0418 516.001 21.6815 506.001 38.2519 506.001C54.8224 506.001 63 516.001 63 516.001C63 516.001 54.8224 526.001 38.2519 526.001C21.6815 526.001 14.0418 516.001 14.0418 516.001L0 525.465V516.001V506.537L14.0418 516.001Z" fill="#E1D9C9"/>
<path d="M173.265 516.001C173.265 516.001 181.026 506.001 197.859 506.001C214.693 506.001 223 516.001 223 516.001C223 516.001 214.693 526.001 197.859 526.001C181.026 526.001 173.265 516.001 173.265 516.001L159 525.465V516.001V506.537L173.265 516.001Z" fill="#E1D9C9"/>
<path d="M333.042 516.001C333.042 516.001 340.681 506.001 357.252 506.001C373.822 506.001 382 516.001 382 516.001C382 516.001 373.822 526.001 357.252 526.001C340.681 526.001 333.042 516.001 333.042 516.001L319 525.465V516.001V506.537L333.042 516.001Z" fill="#E1D9C9"/>
<path d="M493.042 516.001C493.042 516.001 500.681 506.001 517.252 506.001C533.822 506.001 542 516.001 542 516.001C542 516.001 533.822 526.001 517.252 526.001C500.681 526.001 493.042 516.001 493.042 516.001L479 525.465V516.001V506.537L493.042 516.001Z" fill="#E1D9C9"/>
<path d="M652.819 516.001C652.819 516.001 660.337 506.001 676.645 506.001C692.952 506.001 701 516.001 701 516.001C701 516.001 692.952 526.001 676.645 526.001C660.337 526.001 652.819 516.001 652.819 516.001L639 525.465V516.001V506.537L652.819 516.001Z" fill="#E1D9C9"/>
<path d="M846.181 516C846.181 516 838.663 526 822.355 526C806.048 526 798 516 798 516C798 516 806.048 506 822.355 506C838.663 506 846.181 516 846.181 516L860 506.536L860 516L860 525.464L846.181 516Z" fill="#393939"/>
<path d="M971.265 516.001C971.265 516.001 979.026 506.001 995.859 506.001C1012.69 506.001 1021 516.001 1021 516.001C1021 516.001 1012.69 526.001 995.859 526.001C979.026 526.001 971.265 516.001 971.265 516.001L957 525.465V516.001V506.537L971.265 516.001Z" fill="#E1D9C9"/>
<path d="M1131.26 516.001C1131.26 516.001 1139.03 506.001 1155.86 506.001C1172.69 506.001 1181 516.001 1181 516.001C1181 516.001 1172.69 526.001 1155.86 526.001C1139.03 526.001 1131.26 516.001 1131.26 516.001L1117 525.465V516.001V506.537L1131.26 516.001Z" fill="#E1D9C9"/>
<path d="M94.0418 516.001C94.0418 516.001 101.681 506.001 118.252 506.001C134.822 506.001 143 516.001 143 516.001C143 516.001 134.822 526.001 118.252 526.001C101.681 526.001 94.0418 516.001 94.0418 516.001L80 525.465V516.001V506.537L94.0418 516.001Z" fill="#E1D9C9"/>
<path d="M253.819 516.001C253.819 516.001 261.337 506.001 277.645 506.001C293.952 506.001 302 516.001 302 516.001C302 516.001 293.952 526.001 277.645 526.001C261.337 526.001 253.819 516.001 253.819 516.001L240 525.465V516.001V506.537L253.819 516.001Z" fill="#E1D9C9"/>
<path d="M412.819 516.001C412.819 516.001 420.337 506.001 436.645 506.001C452.952 506.001 461 516.001 461 516.001C461 516.001 452.952 526.001 436.645 526.001C420.337 526.001 412.819 516.001 412.819 516.001L399 525.465V516.001V506.537L412.819 516.001Z" fill="#E1D9C9"/>
<path d="M572.265 516.001C572.265 516.001 580.026 506.001 596.859 506.001C613.693 506.001 622 516.001 622 516.001C622 516.001 613.693 526.001 596.859 526.001C580.026 526.001 572.265 516.001 572.265 516.001L558 525.465V516.001V506.537L572.265 516.001Z" fill="#E1D9C9"/>
<path d="M732.042 516.001C732.042 516.001 739.681 506.001 756.252 506.001C772.822 506.001 781 516.001 781 516.001C781 516.001 772.822 526.001 756.252 526.001C739.681 526.001 732.042 516.001 732.042 516.001L718 525.465V516.001V506.537L732.042 516.001Z" fill="#E1D9C9"/>
<path d="M892.042 516.001C892.042 516.001 899.681 506.001 916.252 506.001C932.822 506.001 941 516.001 941 516.001C941 516.001 932.822 526.001 916.252 526.001C899.681 526.001 892.042 516.001 892.042 516.001L878 525.465V516.001V506.537L892.042 516.001Z" fill="#E1D9C9"/>
<path d="M1051.04 516.001C1051.04 516.001 1058.68 506.001 1075.25 506.001C1091.82 506.001 1100 516.001 1100 516.001C1100 516.001 1091.82 526.001 1075.25 526.001C1058.68 526.001 1051.04 516.001 1051.04 516.001L1037 525.465V516.001V506.537L1051.04 516.001Z" fill="#E1D9C9"/>
<path d="M1211.04 516.001C1211.04 516.001 1218.68 506.001 1235.25 506.001C1251.82 506.001 1260 516.001 1260 516.001C1260 516.001 1251.82 526.001 1235.25 526.001C1218.68 526.001 1211.04 516.001 1211.04 516.001L1197 525.465V516.001V506.537L1211.04 516.001Z" fill="#E1D9C9"/>
<path d="M1291.04 516.001C1291.04 516.001 1298.68 506.001 1315.25 506.001C1331.82 506.001 1340 516.001 1340 516.001C1340 516.001 1331.82 526.001 1315.25 526.001C1298.68 526.001 1291.04 516.001 1291.04 516.001L1277 525.465V516.001V506.537L1291.04 516.001Z" fill="#E1D9C9"/>
<path d="M14.0418 550C14.0418 550 21.6815 540 38.2519 540C54.8224 540 63 550 63 550C63 550 54.8224 560 38.2519 560C21.6815 560 14.0418 550 14.0418 550L0 559.464V550V540.536L14.0418 550Z" fill="#E1D9C9"/>
<path d="M173.265 550C173.265 550 181.026 540 197.859 540C214.693 540 223 550 223 550C223 550 214.693 560 197.859 560C181.026 560 173.265 550 173.265 550L159 559.464V550V540.536L173.265 550Z" fill="#E1D9C9"/>
<path d="M333.042 550C333.042 550 340.681 540 357.252 540C373.822 540 382 550 382 550C382 550 373.822 560 357.252 560C340.681 560 333.042 550 333.042 550L319 559.464V550V540.536L333.042 550Z" fill="#E1D9C9"/>
<path d="M493.042 550C493.042 550 500.681 540 517.252 540C533.822 540 542 550 542 550C542 550 533.822 560 517.252 560C500.681 560 493.042 550 493.042 550L479 559.464V550V540.536L493.042 550Z" fill="#E1D9C9"/>
<path d="M652.819 550C652.819 550 660.337 540 676.645 540C692.952 540 701 550 701 550C701 550 692.952 560 676.645 560C660.337 560 652.819 550 652.819 550L639 559.464V550V540.536L652.819 550Z" fill="#E1D9C9"/>
<path d="M811.819 550C811.819 550 819.337 540 835.645 540C851.952 540 860 550 860 550C860 550 851.952 560 835.645 560C819.337 560 811.819 550 811.819 550L798 559.464V550V540.536L811.819 550Z" fill="#E1D9C9"/>
<path d="M971.265 550C971.265 550 979.026 540 995.859 540C1012.69 540 1021 550 1021 550C1021 550 1012.69 560 995.859 560C979.026 560 971.265 550 971.265 550L957 559.464V550V540.536L971.265 550Z" fill="#E1D9C9"/>
<path d="M1131.26 550C1131.26 550 1139.03 540 1155.86 540C1172.69 540 1181 550 1181 550C1181 550 1172.69 560 1155.86 560C1139.03 560 1131.26 550 1131.26 550L1117 559.464V550V540.536L1131.26 550Z" fill="#E1D9C9"/>
<path d="M94.0418 550C94.0418 550 101.681 540 118.252 540C134.822 540 143 550 143 550C143 550 134.822 560 118.252 560C101.681 560 94.0418 550 94.0418 550L80 559.464V550V540.536L94.0418 550Z" fill="#E1D9C9"/>
<path d="M253.819 550C253.819 550 261.337 540 277.645 540C293.952 540 302 550 302 550C302 550 293.952 560 277.645 560C261.337 560 253.819 550 253.819 550L240 559.464V550V540.536L253.819 550Z" fill="#E1D9C9"/>
<path d="M412.819 550C412.819 550 420.337 540 436.645 540C452.952 540 461 550 461 550C461 550 452.952 560 436.645 560C420.337 560 412.819 550 412.819 550L399 559.464V550V540.536L412.819 550Z" fill="#E1D9C9"/>
<path d="M572.265 550C572.265 550 580.026 540 596.859 540C613.693 540 622 550 622 550C622 550 613.693 560 596.859 560C580.026 560 572.265 550 572.265 550L558 559.464V550V540.536L572.265 550Z" fill="#E1D9C9"/>
<path d="M732.042 550C732.042 550 739.681 540 756.252 540C772.822 540 781 550 781 550C781 550 772.822 560 756.252 560C739.681 560 732.042 550 732.042 550L718 559.464V550V540.536L732.042 550Z" fill="#E1D9C9"/>
<path d="M892.042 550C892.042 550 899.681 540 916.252 540C932.822 540 941 550 941 550C941 550 932.822 560 916.252 560C899.681 560 892.042 550 892.042 550L878 559.464V550V540.536L892.042 550Z" fill="#E1D9C9"/>
<path d="M1051.04 550C1051.04 550 1058.68 540 1075.25 540C1091.82 540 1100 550 1100 550C1100 550 1091.82 560 1075.25 560C1058.68 560 1051.04 550 1051.04 550L1037 559.464V550V540.536L1051.04 550Z" fill="#E1D9C9"/>
<path d="M1211.04 550C1211.04 550 1218.68 540 1235.25 540C1251.82 540 1260 550 1260 550C1260 550 1251.82 560 1235.25 560C1218.68 560 1211.04 550 1211.04 550L1197 559.464V550V540.536L1211.04 550Z" fill="#E1D9C9"/>
<path d="M1291.04 550C1291.04 550 1298.68 540 1315.25 540C1331.82 540 1340 550 1340 550C1340 550 1331.82 560 1315.25 560C1298.68 560 1291.04 550 1291.04 550L1277 559.464V550V540.536L1291.04 550Z" fill="#E1D9C9"/>
<path d="M14.0418 584C14.0418 584 21.6815 574 38.2519 574C54.8224 574 63 584 63 584C63 584 54.8224 594 38.2519 594C21.6815 594 14.0418 584 14.0418 584L0 593.464V584V574.536L14.0418 584Z" fill="#E1D9C9"/>
<path d="M173.265 584C173.265 584 181.026 574 197.859 574C214.693 574 223 584 223 584C223 584 214.693 594 197.859 594C181.026 594 173.265 584 173.265 584L159 593.464V584V574.536L173.265 584Z" fill="#E1D9C9"/>
<path d="M333.042 584C333.042 584 340.681 574 357.252 574C373.822 574 382 584 382 584C382 584 373.822 594 357.252 594C340.681 594 333.042 584 333.042 584L319 593.464V584V574.536L333.042 584Z" fill="#E1D9C9"/>
<path d="M493.042 584C493.042 584 500.681 574 517.252 574C533.822 574 542 584 542 584C542 584 533.822 594 517.252 594C500.681 594 493.042 584 493.042 584L479 593.464V584V574.536L493.042 584Z" fill="#E1D9C9"/>
<path d="M652.819 584C652.819 584 660.337 574 676.645 574C692.952 574 701 584 701 584C701 584 692.952 594 676.645 594C660.337 594 652.819 584 652.819 584L639 593.464V584V574.536L652.819 584Z" fill="#E1D9C9"/>
<path d="M811.819 584C811.819 584 819.337 574 835.645 574C851.952 574 860 584 860 584C860 584 851.952 594 835.645 594C819.337 594 811.819 584 811.819 584L798 593.464V584V574.536L811.819 584Z" fill="#E1D9C9"/>
<path d="M971.265 584C971.265 584 979.026 574 995.859 574C1012.69 574 1021 584 1021 584C1021 584 1012.69 594 995.859 594C979.026 594 971.265 584 971.265 584L957 593.464V584V574.536L971.265 584Z" fill="#E1D9C9"/>
<path d="M1131.26 584C1131.26 584 1139.03 574 1155.86 574C1172.69 574 1181 584 1181 584C1181 584 1172.69 594 1155.86 594C1139.03 594 1131.26 584 1131.26 584L1117 593.464V584V574.536L1131.26 584Z" fill="#E1D9C9"/>
<path d="M94.0418 584C94.0418 584 101.681 574 118.252 574C134.822 574 143 584 143 584C143 584 134.822 594 118.252 594C101.681 594 94.0418 584 94.0418 584L80 593.464V584V574.536L94.0418 584Z" fill="#E1D9C9"/>
<path d="M253.819 584C253.819 584 261.337 574 277.645 574C293.952 574 302 584 302 584C302 584 293.952 594 277.645 594C261.337 594 253.819 584 253.819 584L240 593.464V584V574.536L253.819 584Z" fill="#E1D9C9"/>
<path d="M412.819 584C412.819 584 420.337 574 436.645 574C452.952 574 461 584 461 584C461 584 452.952 594 436.645 594C420.337 594 412.819 584 412.819 584L399 593.464V584V574.536L412.819 584Z" fill="#E1D9C9"/>
<path d="M572.265 584C572.265 584 580.026 574 596.859 574C613.693 574 622 584 622 584C622 584 613.693 594 596.859 594C580.026 594 572.265 584 572.265 584L558 593.464V584V574.536L572.265 584Z" fill="#E1D9C9"/>
<path d="M732.042 584C732.042 584 739.681 574 756.252 574C772.822 574 781 584 781 584C781 584 772.822 594 756.252 594C739.681 594 732.042 584 732.042 584L718 593.464V584V574.536L732.042 584Z" fill="#E1D9C9"/>
<path d="M892.042 584C892.042 584 899.681 574 916.252 574C932.822 574 941 584 941 584C941 584 932.822 594 916.252 594C899.681 594 892.042 584 892.042 584L878 593.464V584V574.536L892.042 584Z" fill="#E1D9C9"/>
<path d="M1051.04 584C1051.04 584 1058.68 574 1075.25 574C1091.82 574 1100 584 1100 584C1100 584 1091.82 594 1075.25 594C1058.68 594 1051.04 584 1051.04 584L1037 593.464V584V574.536L1051.04 584Z" fill="#E1D9C9"/>
<path d="M1211.04 584C1211.04 584 1218.68 574 1235.25 574C1251.82 574 1260 584 1260 584C1260 584 1251.82 594 1235.25 594C1218.68 594 1211.04 584 1211.04 584L1197 593.464V584V574.536L1211.04 584Z" fill="#E1D9C9"/>
<path d="M1291.04 584C1291.04 584 1298.68 574 1315.25 574C1331.82 574 1340 584 1340 584C1340 584 1331.82 594 1315.25 594C1298.68 594 1291.04 584 1291.04 584L1277 593.464V584V574.536L1291.04 584Z" fill="#E1D9C9"/>
<path d="M14.0418 618C14.0418 618 21.6815 608 38.2519 608C54.8224 608 63 618 63 618C63 618 54.8224 628 38.2519 628C21.6815 628 14.0418 618 14.0418 618L0 627.464V618V608.536L14.0418 618Z" fill="#E1D9C9"/>
<path d="M173.265 618C173.265 618 181.026 608 197.859 608C214.693 608 223 618 223 618C223 618 214.693 628 197.859 628C181.026 628 173.265 618 173.265 618L159 627.464V618V608.536L173.265 618Z" fill="#E1D9C9"/>
<path d="M333.042 618C333.042 618 340.681 608 357.252 608C373.822 608 382 618 382 618C382 618 373.822 628 357.252 628C340.681 628 333.042 618 333.042 618L319 627.464V618V608.536L333.042 618Z" fill="#E1D9C9"/>
<path d="M493.042 618C493.042 618 500.681 608 517.252 608C533.822 608 542 618 542 618C542 618 533.822 628 517.252 628C500.681 628 493.042 618 493.042 618L479 627.464V618V608.536L493.042 618Z" fill="#E1D9C9"/>
<path d="M652.819 618C652.819 618 660.337 608 676.645 608C692.952 608 701 618 701 618C701 618 692.952 628 676.645 628C660.337 628 652.819 618 652.819 618L639 627.464V618V608.536L652.819 618Z" fill="#E1D9C9"/>
<path d="M811.819 618C811.819 618 819.337 608 835.645 608C851.952 608 860 618 860 618C860 618 851.952 628 835.645 628C819.337 628 811.819 618 811.819 618L798 627.464V618V608.536L811.819 618Z" fill="#E1D9C9"/>
<path d="M971.265 618C971.265 618 979.026 608 995.859 608C1012.69 608 1021 618 1021 618C1021 618 1012.69 628 995.859 628C979.026 628 971.265 618 971.265 618L957 627.464V618V608.536L971.265 618Z" fill="#E1D9C9"/>
<path d="M1131.26 618C1131.26 618 1139.03 608 1155.86 608C1172.69 608 1181 618 1181 618C1181 618 1172.69 628 1155.86 628C1139.03 628 1131.26 618 1131.26 618L1117 627.464V618V608.536L1131.26 618Z" fill="#E1D9C9"/>
<path d="M94.0418 618C94.0418 618 101.681 608 118.252 608C134.822 608 143 618 143 618C143 618 134.822 628 118.252 628C101.681 628 94.0418 618 94.0418 618L80 627.464V618V608.536L94.0418 618Z" fill="#E1D9C9"/>
<path d="M253.819 618C253.819 618 261.337 608 277.645 608C293.952 608 302 618 302 618C302 618 293.952 628 277.645 628C261.337 628 253.819 618 253.819 618L240 627.464V618V608.536L253.819 618Z" fill="#E1D9C9"/>
<path d="M412.819 618C412.819 618 420.337 608 436.645 608C452.952 608 461 618 461 618C461 618 452.952 628 436.645 628C420.337 628 412.819 618 412.819 618L399 627.464V618V608.536L412.819 618Z" fill="#E1D9C9"/>
<path d="M572.265 618C572.265 618 580.026 608 596.859 608C613.693 608 622 618 622 618C622 618 613.693 628 596.859 628C580.026 628 572.265 618 572.265 618L558 627.464V618V608.536L572.265 618Z" fill="#E1D9C9"/>
<path d="M732.042 618C732.042 618 739.681 608 756.252 608C772.822 608 781 618 781 618C781 618 772.822 628 756.252 628C739.681 628 732.042 618 732.042 618L718 627.464V618V608.536L732.042 618Z" fill="#E1D9C9"/>
<path d="M892.042 618C892.042 618 899.681 608 916.252 608C932.822 608 941 618 941 618C941 618 932.822 628 916.252 628C899.681 628 892.042 618 892.042 618L878 627.464V618V608.536L892.042 618Z" fill="#E1D9C9"/>
<path d="M1051.04 618C1051.04 618 1058.68 608 1075.25 608C1091.82 608 1100 618 1100 618C1100 618 1091.82 628 1075.25 628C1058.68 628 1051.04 618 1051.04 618L1037 627.464V618V608.536L1051.04 618Z" fill="#E1D9C9"/>
<path d="M1211.04 618C1211.04 618 1218.68 608 1235.25 608C1251.82 608 1260 618 1260 618C1260 618 1251.82 628 1235.25 628C1218.68 628 1211.04 618 1211.04 618L1197 627.464V618V608.536L1211.04 618Z" fill="#E1D9C9"/>
<path d="M1291.04 618C1291.04 618 1298.68 608 1315.25 608C1331.82 608 1340 618 1340 618C1340 618 1331.82 628 1315.25 628C1298.68 628 1291.04 618 1291.04 618L1277 627.464V618V608.536L1291.04 618Z" fill="#E1D9C9"/>
<path d="M14.0418 652C14.0418 652 21.6815 642 38.2519 642C54.8224 642 63 652 63 652C63 652 54.8224 662 38.2519 662C21.6815 662 14.0418 652 14.0418 652L0 661.464V652V642.536L14.0418 652Z" fill="#E1D9C9"/>
<path d="M173.265 652C173.265 652 181.026 642 197.859 642C214.693 642 223 652 223 652C223 652 214.693 662 197.859 662C181.026 662 173.265 652 173.265 652L159 661.464V652V642.536L173.265 652Z" fill="#E1D9C9"/>
<path d="M333.042 652C333.042 652 340.681 642 357.252 642C373.822 642 382 652 382 652C382 652 373.822 662 357.252 662C340.681 662 333.042 652 333.042 652L319 661.464V652V642.536L333.042 652Z" fill="#E1D9C9"/>
<path d="M493.042 652C493.042 652 500.681 642 517.252 642C533.822 642 542 652 542 652C542 652 533.822 662 517.252 662C500.681 662 493.042 652 493.042 652L479 661.464V652V642.536L493.042 652Z" fill="#E1D9C9"/>
<path d="M652.819 652C652.819 652 660.337 642 676.645 642C692.952 642 701 652 701 652C701 652 692.952 662 676.645 662C660.337 662 652.819 652 652.819 652L639 661.464V652V642.536L652.819 652Z" fill="#E1D9C9"/>
<path d="M811.819 652C811.819 652 819.337 642 835.645 642C851.952 642 860 652 860 652C860 652 851.952 662 835.645 662C819.337 662 811.819 652 811.819 652L798 661.464V652V642.536L811.819 652Z" fill="#E1D9C9"/>
<path d="M971.265 652C971.265 652 979.026 642 995.859 642C1012.69 642 1021 652 1021 652C1021 652 1012.69 662 995.859 662C979.026 662 971.265 652 971.265 652L957 661.464V652V642.536L971.265 652Z" fill="#E1D9C9"/>
<path d="M1131.26 652C1131.26 652 1139.03 642 1155.86 642C1172.69 642 1181 652 1181 652C1181 652 1172.69 662 1155.86 662C1139.03 662 1131.26 652 1131.26 652L1117 661.464V652V642.536L1131.26 652Z" fill="#E1D9C9"/>
<path d="M94.0418 652C94.0418 652 101.681 642 118.252 642C134.822 642 143 652 143 652C143 652 134.822 662 118.252 662C101.681 662 94.0418 652 94.0418 652L80 661.464V652V642.536L94.0418 652Z" fill="#E1D9C9"/>
<path d="M253.819 652C253.819 652 261.337 642 277.645 642C293.952 642 302 652 302 652C302 652 293.952 662 277.645 662C261.337 662 253.819 652 253.819 652L240 661.464V652V642.536L253.819 652Z" fill="#E1D9C9"/>
<path d="M412.819 652C412.819 652 420.337 642 436.645 642C452.952 642 461 652 461 652C461 652 452.952 662 436.645 662C420.337 662 412.819 652 412.819 652L399 661.464V652V642.536L412.819 652Z" fill="#E1D9C9"/>
<path d="M572.265 652C572.265 652 580.026 642 596.859 642C613.693 642 622 652 622 652C622 652 613.693 662 596.859 662C580.026 662 572.265 652 572.265 652L558 661.464V652V642.536L572.265 652Z" fill="#E1D9C9"/>
<path d="M732.042 652C732.042 652 739.681 642 756.252 642C772.822 642 781 652 781 652C781 652 772.822 662 756.252 662C739.681 662 732.042 652 732.042 652L718 661.464V652V642.536L732.042 652Z" fill="#E1D9C9"/>
<path d="M892.042 652C892.042 652 899.681 642 916.252 642C932.822 642 941 652 941 652C941 652 932.822 662 916.252 662C899.681 662 892.042 652 892.042 652L878 661.464V652V642.536L892.042 652Z" fill="#E1D9C9"/>
<path d="M1051.04 652C1051.04 652 1058.68 642 1075.25 642C1091.82 642 1100 652 1100 652C1100 652 1091.82 662 1075.25 662C1058.68 662 1051.04 652 1051.04 652L1037 661.464V652V642.536L1051.04 652Z" fill="#E1D9C9"/>
<path d="M1211.04 652C1211.04 652 1218.68 642 1235.25 642C1251.82 642 1260 652 1260 652C1260 652 1251.82 662 1235.25 662C1218.68 662 1211.04 652 1211.04 652L1197 661.464V652V642.536L1211.04 652Z" fill="#E1D9C9"/>
<path d="M1291.04 652C1291.04 652 1298.68 642 1315.25 642C1331.82 642 1340 652 1340 652C1340 652 1331.82 662 1315.25 662C1298.68 662 1291.04 652 1291.04 652L1277 661.464V652V642.536L1291.04 652Z" fill="#E1D9C9"/>
<path d="M14.0418 686C14.0418 686 21.6815 676 38.2519 676C54.8224 676 63 686 63 686C63 686 54.8224 696 38.2519 696C21.6815 696 14.0418 686 14.0418 686L0 695.464V686V676.536L14.0418 686Z" fill="#E1D9C9"/>
<path d="M173.265 686C173.265 686 181.026 676 197.859 676C214.693 676 223 686 223 686C223 686 214.693 696 197.859 696C181.026 696 173.265 686 173.265 686L159 695.464V686V676.536L173.265 686Z" fill="#E1D9C9"/>
<path d="M333.042 686C333.042 686 340.681 676 357.252 676C373.822 676 382 686 382 686C382 686 373.822 696 357.252 696C340.681 696 333.042 686 333.042 686L319 695.464V686V676.536L333.042 686Z" fill="#E1D9C9"/>
<path d="M493.042 686C493.042 686 500.681 676 517.252 676C533.822 676 542 686 542 686C542 686 533.822 696 517.252 696C500.681 696 493.042 686 493.042 686L479 695.464V686V676.536L493.042 686Z" fill="#E1D9C9"/>
<path d="M652.819 686C652.819 686 660.337 676 676.645 676C692.952 676 701 686 701 686C701 686 692.952 696 676.645 696C660.337 696 652.819 686 652.819 686L639 695.464V686V676.536L652.819 686Z" fill="#E1D9C9"/>
<path d="M811.819 686C811.819 686 819.337 676 835.645 676C851.952 676 860 686 860 686C860 686 851.952 696 835.645 696C819.337 696 811.819 686 811.819 686L798 695.464V686V676.536L811.819 686Z" fill="#E1D9C9"/>
<path d="M971.265 686C971.265 686 979.026 676 995.859 676C1012.69 676 1021 686 1021 686C1021 686 1012.69 696 995.859 696C979.026 696 971.265 686 971.265 686L957 695.464V686V676.536L971.265 686Z" fill="#E1D9C9"/>
<path d="M1131.26 686C1131.26 686 1139.03 676 1155.86 676C1172.69 676 1181 686 1181 686C1181 686 1172.69 696 1155.86 696C1139.03 696 1131.26 686 1131.26 686L1117 695.464V686V676.536L1131.26 686Z" fill="#E1D9C9"/>
<path d="M94.0418 686C94.0418 686 101.681 676 118.252 676C134.822 676 143 686 143 686C143 686 134.822 696 118.252 696C101.681 696 94.0418 686 94.0418 686L80 695.464V686V676.536L94.0418 686Z" fill="#E1D9C9"/>
<path d="M253.819 686C253.819 686 261.337 676 277.645 676C293.952 676 302 686 302 686C302 686 293.952 696 277.645 696C261.337 696 253.819 686 253.819 686L240 695.464V686V676.536L253.819 686Z" fill="#E1D9C9"/>
<path d="M412.819 686C412.819 686 420.337 676 436.645 676C452.952 676 461 686 461 686C461 686 452.952 696 436.645 696C420.337 696 412.819 686 412.819 686L399 695.464V686V676.536L412.819 686Z" fill="#E1D9C9"/>
<path d="M572.265 686C572.265 686 580.026 676 596.859 676C613.693 676 622 686 622 686C622 686 613.693 696 596.859 696C580.026 696 572.265 686 572.265 686L558 695.464V686V676.536L572.265 686Z" fill="#E1D9C9"/>
<path d="M732.042 686C732.042 686 739.681 676 756.252 676C772.822 676 781 686 781 686C781 686 772.822 696 756.252 696C739.681 696 732.042 686 732.042 686L718 695.464V686V676.536L732.042 686Z" fill="#E1D9C9"/>
<path d="M892.042 686C892.042 686 899.681 676 916.252 676C932.822 676 941 686 941 686C941 686 932.822 696 916.252 696C899.681 696 892.042 686 892.042 686L878 695.464V686V676.536L892.042 686Z" fill="#E1D9C9"/>
<path d="M1051.04 686C1051.04 686 1058.68 676 1075.25 676C1091.82 676 1100 686 1100 686C1100 686 1091.82 696 1075.25 696C1058.68 696 1051.04 686 1051.04 686L1037 695.464V686V676.536L1051.04 686Z" fill="#E1D9C9"/>
<path d="M1211.04 686C1211.04 686 1218.68 676 1235.25 676C1251.82 676 1260 686 1260 686C1260 686 1251.82 696 1235.25 696C1218.68 696 1211.04 686 1211.04 686L1197 695.464V686V676.536L1211.04 686Z" fill="#E1D9C9"/>
<path d="M1291.04 686C1291.04 686 1298.68 676 1315.25 676C1331.82 676 1340 686 1340 686C1340 686 1331.82 696 1315.25 696C1298.68 696 1291.04 686 1291.04 686L1277 695.464V686V676.536L1291.04 686Z" fill="#E1D9C9"/>
<path d="M14.0418 9C14.0418 9 21.6815 0 38.2519 0C54.8224 0 63 9 63 9C63 9 54.8224 18 38.2519 18C21.6815 18 14.0418 9 14.0418 9L0 17.5179V9V0.482143L14.0418 9Z" fill="#E1D9C9"/>
<path d="M173.265 9C173.265 9 181.026 0 197.859 0C214.693 0 223 9 223 9C223 9 214.693 18 197.859 18C181.026 18 173.265 9 173.265 9L159 17.5179V9V0.482143L173.265 9Z" fill="#E1D9C9"/>
<path d="M333.042 9C333.042 9 340.681 0 357.252 0C373.822 0 382 9 382 9C382 9 373.822 18 357.252 18C340.681 18 333.042 9 333.042 9L319 17.5179V9V0.482143L333.042 9Z" fill="#E1D9C9"/>
<path d="M493.042 9C493.042 9 500.681 0 517.252 0C533.822 0 542 9 542 9C542 9 533.822 18 517.252 18C500.681 18 493.042 9 493.042 9L479 17.5179V9V0.482143L493.042 9Z" fill="#E1D9C9"/>
<path d="M652.819 9C652.819 9 660.337 0 676.645 0C692.952 0 701 9 701 9C701 9 692.952 18 676.645 18C660.337 18 652.819 9 652.819 9L639 17.5179V9V0.482143L652.819 9Z" fill="#E1D9C9"/>
<path d="M811.819 9C811.819 9 819.337 0 835.645 0C851.952 0 860 9 860 9C860 9 851.952 18 835.645 18C819.337 18 811.819 9 811.819 9L798 17.5179V9V0.482143L811.819 9Z" fill="#E1D9C9"/>
<path d="M971.265 9C971.265 9 979.026 0 995.859 0C1012.69 0 1021 9 1021 9C1021 9 1012.69 18 995.859 18C979.026 18 971.265 9 971.265 9L957 17.5179V9V0.482143L971.265 9Z" fill="#E1D9C9"/>
<path d="M1131.26 9C1131.26 9 1139.03 0 1155.86 0C1172.69 0 1181 9 1181 9C1181 9 1172.69 18 1155.86 18C1139.03 18 1131.26 9 1131.26 9L1117 17.5179V9V0.482143L1131.26 9Z" fill="#E1D9C9"/>
<path d="M94.0418 9C94.0418 9 101.681 0 118.252 0C134.822 0 143 9 143 9C143 9 134.822 18 118.252 18C101.681 18 94.0418 9 94.0418 9L80 17.5179V9V0.482143L94.0418 9Z" fill="#E1D9C9"/>
<path d="M253.819 9C253.819 9 261.337 0 277.645 0C293.952 0 302 9 302 9C302 9 293.952 18 277.645 18C261.337 18 253.819 9 253.819 9L240 17.5179V9V0.482143L253.819 9Z" fill="#E1D9C9"/>
<path d="M412.819 9C412.819 9 420.337 0 436.645 0C452.952 0 461 9 461 9C461 9 452.952 18 436.645 18C420.337 18 412.819 9 412.819 9L399 17.5179V9V0.482143L412.819 9Z" fill="#E1D9C9"/>
<path d="M572.265 9C572.265 9 580.026 0 596.859 0C613.693 0 622 9 622 9C622 9 613.693 18 596.859 18C580.026 18 572.265 9 572.265 9L558 17.5179V9V0.482143L572.265 9Z" fill="#E1D9C9"/>
<path d="M732.042 9C732.042 9 739.681 0 756.252 0C772.822 0 781 9 781 9C781 9 772.822 18 756.252 18C739.681 18 732.042 9 732.042 9L718 17.5179V9V0.482143L732.042 9Z" fill="#E1D9C9"/>
<path d="M892.042 9C892.042 9 899.681 0 916.252 0C932.822 0 941 9 941 9C941 9 932.822 18 916.252 18C899.681 18 892.042 9 892.042 9L878 17.5179V9V0.482143L892.042 9Z" fill="#E1D9C9"/>
<path d="M1051.04 9C1051.04 9 1058.68 0 1075.25 0C1091.82 0 1100 9 1100 9C1100 9 1091.82 18 1075.25 18C1058.68 18 1051.04 9 1051.04 9L1037 17.5179V9V0.482143L1051.04 9Z" fill="#E1D9C9"/>
<path d="M1211.04 9C1211.04 9 1218.68 0 1235.25 0C1251.82 0 1260 9 1260 9C1260 9 1251.82 18 1235.25 18C1218.68 18 1211.04 9 1211.04 9L1197 17.5179V9V0.482143L1211.04 9Z" fill="#E1D9C9"/>
<path d="M1291.04 9C1291.04 9 1298.68 0 1315.25 0C1331.82 0 1340 9 1340 9C1340 9 1331.82 18 1315.25 18C1298.68 18 1291.04 9 1291.04 9L1277 17.5179V9V0.482143L1291.04 9Z" fill="#E1D9C9"/>
<path d="M14.0418 75C14.0418 75 21.6815 66 38.2519 66C54.8224 66 63 75 63 75C63 75 54.8224 84 38.2519 84C21.6815 84 14.0418 75 14.0418 75L0 83.5179V75V66.4821L14.0418 75Z" fill="#E1D9C9"/>
<path d="M173.265 75C173.265 75 181.026 66 197.859 66C214.693 66 223 75 223 75C223 75 214.693 84 197.859 84C181.026 84 173.265 75 173.265 75L159 83.5179V75V66.4821L173.265 75Z" fill="#E1D9C9"/>
<path d="M333.042 75C333.042 75 340.681 66 357.252 66C373.822 66 382 75 382 75C382 75 373.822 84 357.252 84C340.681 84 333.042 75 333.042 75L319 83.5179V75V66.4821L333.042 75Z" fill="#E1D9C9"/>
<path d="M493.042 75C493.042 75 500.681 66 517.252 66C533.822 66 542 75 542 75C542 75 533.822 84 517.252 84C500.681 84 493.042 75 493.042 75L479 83.5179V75V66.4821L493.042 75Z" fill="#E1D9C9"/>
<path d="M652.819 75C652.819 75 660.337 66 676.645 66C692.952 66 701 75 701 75C701 75 692.952 84 676.645 84C660.337 84 652.819 75 652.819 75L639 83.5179V75V66.4821L652.819 75Z" fill="#E1D9C9"/>
<path d="M811.819 75C811.819 75 819.337 66 835.645 66C851.952 66 860 75 860 75C860 75 851.952 84 835.645 84C819.337 84 811.819 75 811.819 75L798 83.5179V75V66.4821L811.819 75Z" fill="#E1D9C9"/>
<path d="M971.265 75C971.265 75 979.026 66 995.859 66C1012.69 66 1021 75 1021 75C1021 75 1012.69 84 995.859 84C979.026 84 971.265 75 971.265 75L957 83.5179V75V66.4821L971.265 75Z" fill="#E1D9C9"/>
<path d="M1131.26 75C1131.26 75 1139.03 66 1155.86 66C1172.69 66 1181 75 1181 75C1181 75 1172.69 84 1155.86 84C1139.03 84 1131.26 75 1131.26 75L1117 83.5179V75V66.4821L1131.26 75Z" fill="#E1D9C9"/>
<path d="M94.0418 75C94.0418 75 101.681 66 118.252 66C134.822 66 143 75 143 75C143 75 134.822 84 118.252 84C101.681 84 94.0418 75 94.0418 75L80 83.5179V75V66.4821L94.0418 75Z" fill="#E1D9C9"/>
<path d="M253.819 75C253.819 75 261.337 66 277.645 66C293.952 66 302 75 302 75C302 75 293.952 84 277.645 84C261.337 84 253.819 75 253.819 75L240 83.5179V75V66.4821L253.819 75Z" fill="#E1D9C9"/>
<path d="M412.819 75C412.819 75 420.337 66 436.645 66C452.952 66 461 75 461 75C461 75 452.952 84 436.645 84C420.337 84 412.819 75 412.819 75L399 83.5179V75V66.4821L412.819 75Z" fill="#E1D9C9"/>
<path d="M572.265 75C572.265 75 580.026 66 596.859 66C613.693 66 622 75 622 75C622 75 613.693 84 596.859 84C580.026 84 572.265 75 572.265 75L558 83.5179V75V66.4821L572.265 75Z" fill="#E1D9C9"/>
<path d="M732.042 75C732.042 75 739.681 66 756.252 66C772.822 66 781 75 781 75C781 75 772.822 84 756.252 84C739.681 84 732.042 75 732.042 75L718 83.5179V75V66.4821L732.042 75Z" fill="#E1D9C9"/>
<path d="M892.042 75C892.042 75 899.681 66 916.252 66C932.822 66 941 75 941 75C941 75 932.822 84 916.252 84C899.681 84 892.042 75 892.042 75L878 83.5179V75V66.4821L892.042 75Z" fill="#E1D9C9"/>
<path d="M1051.04 75C1051.04 75 1058.68 66 1075.25 66C1091.82 66 1100 75 1100 75C1100 75 1091.82 84 1075.25 84C1058.68 84 1051.04 75 1051.04 75L1037 83.5179V75V66.4821L1051.04 75Z" fill="#E1D9C9"/>
<path d="M1211.04 75C1211.04 75 1218.68 66 1235.25 66C1251.82 66 1260 75 1260 75C1260 75 1251.82 84 1235.25 84C1218.68 84 1211.04 75 1211.04 75L1197 83.5179V75V66.4821L1211.04 75Z" fill="#E1D9C9"/>
<path d="M1291.04 75C1291.04 75 1298.68 66 1315.25 66C1331.82 66 1340 75 1340 75C1340 75 1331.82 84 1315.25 84C1298.68 84 1291.04 75 1291.04 75L1277 83.5179V75V66.4821L1291.04 75Z" fill="#E1D9C9"/>
</svg>
