<svg width="190" height="60" viewBox="0 0 190 60" fill="none" xmlns="http://www.w3.org/2000/svg">
<path d="M23.5591 32.0465L23.7547 35.2123L25.0306 35.1335C25.7447 35.0893 26.271 34.9244 26.6095 34.6386C26.948 34.3529 27.1008 33.9439 27.0679 33.4117C27.0356 32.8886 26.8316 32.5063 26.456 32.2647C26.0849 32.0228 25.5446 31.9238 24.835 31.9676L23.5591 32.0465ZM25.365 38.1058C25.5878 38.092 25.7517 38.1207 25.8566 38.1918C25.9611 38.2584 26.0185 38.3736 26.0286 38.5374C26.0398 38.7193 25.9999 38.8496 25.9089 38.9283C25.8179 39.007 25.6382 39.0546 25.3698 39.0712L22.0334 39.2774C21.8788 39.2869 21.758 39.2533 21.671 39.1765C21.5838 39.0951 21.5353 38.9748 21.5255 38.8156C21.5156 38.6564 21.547 38.5358 21.6195 38.4537C21.6966 38.3713 21.8193 38.3249 21.9876 38.3145L22.8678 38.2601L22.4879 32.1127L22.0103 32.1422C21.61 32.1669 21.3577 32.1483 21.2534 32.0862C21.1534 32.0193 21.0976 31.8926 21.0861 31.7062C21.0763 31.547 21.1098 31.4239 21.1866 31.337C21.2631 31.2455 21.3787 31.1949 21.5334 31.1854L24.6924 30.9902C25.7977 30.9219 26.6501 31.0838 27.2497 31.4759C27.8492 31.8681 28.1747 32.4804 28.2261 33.3128C28.2776 34.1452 28.0321 34.7904 27.4897 35.2486C26.9472 35.7068 26.1188 35.9703 25.0044 36.0391L23.8104 36.1129L23.939 38.1939L25.365 38.1058ZM31.5722 31.4896L31.7426 34.2461L33.1549 34.1588C33.7917 34.1195 34.2623 33.9762 34.5666 33.7291C34.8753 33.4772 35.0155 33.1238 34.9874 32.6689C34.959 32.2095 34.7807 31.8735 34.4525 31.6609C34.1243 31.4484 33.6487 31.3613 33.0255 31.3998L31.5722 31.4896ZM31.9559 37.6985L32.4199 37.6698C32.6837 37.6535 32.8724 37.6784 32.9861 37.7444C33.0998 37.8104 33.1618 37.9276 33.1722 38.0959C33.1834 38.2779 33.1435 38.4082 33.0525 38.4868C32.9615 38.5655 32.7841 38.613 32.5203 38.6293L30.2278 38.771C30.0731 38.7806 29.9523 38.7469 29.8654 38.6701C29.7782 38.5887 29.7296 38.4685 29.7198 38.3093C29.7094 38.141 29.7474 38.0176 29.8339 37.9392C29.9204 37.8608 30.0682 37.8151 30.2775 37.8022L30.5026 37.7883L30.8984 37.7638L30.5147 31.555L30.1189 31.5794C29.7778 31.6005 29.5552 31.5823 29.4512 31.5248C29.3472 31.4673 29.2897 31.3499 29.2788 31.1725C29.2692 31.0178 29.3007 30.8994 29.3732 30.8173C29.4503 30.735 29.5685 30.6888 29.7277 30.679L32.607 30.5011C33.3029 30.4581 33.8236 30.4601 34.1689 30.5073C34.5185 30.5496 34.8165 30.6431 35.0629 30.7876C35.3803 30.9735 35.6358 31.2294 35.8295 31.5553C36.0277 31.8809 36.1387 32.2371 36.1626 32.6237C36.195 33.1468 36.0613 33.6071 35.7617 34.0046C35.4663 34.3972 35.0366 34.6841 34.4725 34.865C34.5949 34.926 34.7045 34.9991 34.8011 35.0844C34.9022 35.1695 34.9999 35.2731 35.0942 35.3951L36.5955 37.4118L36.8207 37.3979C37.0754 37.3821 37.2527 37.4077 37.3528 37.4746C37.4525 37.5369 37.5077 37.6545 37.5184 37.8273C37.5282 37.9865 37.4949 38.1119 37.4183 38.2034C37.3461 38.29 37.2326 38.3381 37.078 38.3477L36.307 38.3953C36.0841 38.4091 35.8556 38.2588 35.6216 37.9445C35.5926 37.9189 35.5708 37.8975 35.556 37.8801L34.1233 35.9756C33.8299 35.5874 33.5909 35.3396 33.4062 35.2323C33.226 35.1247 32.9926 35.0798 32.7061 35.0975L31.7986 35.1535L31.9559 37.6985ZM45.3698 33.767C45.4468 35.0133 45.1644 36.0581 44.5225 36.9014C43.8803 37.7401 43.0202 38.1928 41.9421 38.2594C40.8732 38.3255 39.966 37.9797 39.2206 37.2222C38.4798 36.4643 38.071 35.4645 37.9942 34.2228C37.9167 32.9673 38.1968 31.9227 38.8348 31.0888C39.4724 30.2503 40.3325 29.7976 41.4151 29.7308C42.4931 29.6641 43.4026 30.0097 44.1434 30.7676C44.8843 31.5254 45.2931 32.5252 45.3698 33.767ZM41.8823 37.2905C42.6464 37.2433 43.2289 36.9151 43.6295 36.3059C44.0345 35.6919 44.2052 34.8709 44.1417 33.8429C44.0782 32.8149 43.8078 32.0234 43.3306 31.4685C42.8577 30.9087 42.2391 30.6524 41.475 30.6996C40.7062 30.7471 40.1215 31.0755 39.7209 31.6847C39.3244 32.289 39.1583 33.1098 39.2224 34.1469C39.2859 35.1749 39.5541 35.9687 40.027 36.5285C40.5042 37.0835 41.1226 37.3375 41.8823 37.2905ZM48.7357 30.4906L48.9313 33.6565L50.2072 33.5776C50.9213 33.5335 51.4476 33.3686 51.7861 33.0828C52.1246 32.7971 52.2774 32.3881 52.2445 31.8559C52.2122 31.3328 52.0082 30.9505 51.6326 30.7089C51.2615 30.467 50.7211 30.3679 50.0116 30.4118L48.7357 30.4906ZM50.5415 36.55C50.7644 36.5362 50.9283 36.5649 51.0331 36.636C51.1377 36.7026 51.1951 36.8178 51.2052 36.9815C51.2164 37.1635 51.1765 37.2938 51.0855 37.3725C50.9945 37.4512 50.8148 37.4988 50.5464 37.5154L47.21 37.7215C47.0554 37.7311 46.9346 37.6975 46.8476 37.6207C46.7604 37.5393 46.7119 37.419 46.702 37.2598C46.6922 37.1006 46.7236 36.98 46.7961 36.8979C46.8732 36.8155 46.9959 36.7691 47.1642 36.7587L48.0444 36.7043L47.6645 30.5568L47.1869 30.5863C46.7866 30.6111 46.5343 30.5924 46.43 30.5304C46.33 30.4635 46.2742 30.3368 46.2627 30.1503C46.2529 29.9911 46.2864 29.8681 46.3632 29.7811C46.4397 29.6896 46.5553 29.6391 46.7099 29.6296L49.869 29.4343C50.9743 29.366 51.8267 29.528 52.4263 29.9201C53.0258 30.3123 53.3513 30.9245 53.4027 31.7569C53.4542 32.5893 53.2087 33.2346 52.6662 33.6928C52.1238 34.1509 51.2954 34.4144 50.181 34.4833L48.987 34.5571L49.1156 36.6381L50.5415 36.55ZM62.1542 32.7298C62.2312 33.9761 61.9488 35.0209 61.3069 35.8642C60.6647 36.7029 59.8045 37.1556 58.7265 37.2222C57.6576 37.2882 56.7504 36.9425 56.005 36.1849C55.2642 35.4271 54.8554 34.4273 54.7786 33.1855C54.701 31.9301 54.9812 30.8855 55.6191 30.0516C56.2568 29.2131 57.1169 28.7604 58.1995 28.6935C59.2775 28.6269 60.1869 28.9725 60.9278 29.7304C61.6687 30.4882 62.0775 31.488 62.1542 32.7298ZM58.6667 36.2533C59.4308 36.2061 60.0132 35.8779 60.4139 35.2687C60.8189 34.6546 60.9896 33.8336 60.9261 32.8056C60.8626 31.7777 60.5922 30.9862 60.115 30.4312C59.6421 29.8714 59.0235 29.6152 58.2594 29.6624C57.4906 29.7099 56.9059 30.0382 56.5052 30.6475C56.1088 31.2518 55.9427 32.0726 56.0067 33.1096C56.0703 34.1376 56.3385 34.9315 56.8114 35.4913C57.2886 36.0463 57.907 36.3003 58.6667 36.2533ZM65.0986 36.3764C65.0885 36.5825 65.0449 36.7267 64.9678 36.8091C64.891 36.896 64.7639 36.945 64.5865 36.9559C64.3955 36.9678 64.2487 36.9197 64.1461 36.8119C64.0484 36.7084 63.985 36.532 63.9559 36.2826L63.7694 34.7052L63.7618 34.5824C63.7483 34.364 63.7797 34.2069 63.8559 34.1108C63.9367 34.0145 64.0749 33.9603 64.2705 33.9482C64.5434 33.9314 64.7511 34.1149 64.8935 34.4987C64.9602 34.691 65.0216 34.8355 65.0779 34.9325C65.2567 35.2411 65.5221 35.4713 65.8739 35.623C66.2303 35.7745 66.6473 35.8355 67.1249 35.806C67.7117 35.7697 68.1784 35.6016 68.5252 35.3017C68.8765 35.0014 69.0387 34.6352 69.012 34.2031C68.9898 33.8438 68.8583 33.562 68.6173 33.3577C68.381 33.1531 68.0448 33.0324 67.6087 32.9954L66.5905 32.9213C65.6408 32.8476 64.9386 32.6422 64.484 32.305C64.0294 31.9678 63.7817 31.4694 63.741 30.8099C63.6979 30.1139 63.9484 29.5117 64.4923 29.0033C65.0407 28.4945 65.7448 28.2136 66.6045 28.1604C66.8547 28.145 67.1206 28.1628 67.4023 28.2139C67.6837 28.2604 68.0038 28.3434 68.3628 28.4627C68.3637 28.3302 68.3945 28.237 68.4551 28.1831C68.5157 28.1291 68.6233 28.0973 68.778 28.0878C68.9781 28.0754 69.1187 28.0964 69.1996 28.1507C69.2806 28.2051 69.3371 28.3431 69.3691 28.5649L69.5527 29.985L69.5569 30.0532C69.5668 30.2124 69.529 30.3403 69.4437 30.4369C69.358 30.529 69.2333 30.58 69.0696 30.5902C68.8285 30.6051 68.6316 30.4483 68.4789 30.1198C68.4034 29.9327 68.3309 29.7934 68.2613 29.7018C68.0971 29.4836 67.8703 29.3219 67.5807 29.2165C67.291 29.1111 66.9666 29.0695 66.6072 29.0917C66.0569 29.1257 65.6172 29.2899 65.2884 29.5842C64.9641 29.8782 64.8156 30.2458 64.8429 30.687C64.8643 31.0327 65.0085 31.2977 65.2756 31.4821C65.5472 31.6662 65.9491 31.7784 66.4812 31.8186L67.5813 31.8876C68.3793 31.9433 68.9902 32.1498 69.4141 32.5071C69.8377 32.8599 70.0694 33.3593 70.1093 34.0052C70.1566 34.7694 69.9102 35.401 69.3703 35.9001C68.8301 36.3946 68.0847 36.6713 67.134 36.73C66.8065 36.7503 66.4789 36.7317 66.1512 36.6743C65.8235 36.617 65.4726 36.5176 65.0986 36.3764ZM73.8764 32.567L76.667 32.3945L74.9766 28.869L73.8764 32.567ZM74.0009 28.9293L73.0048 28.9909C72.7273 29.008 72.5295 28.9837 72.4113 28.918C72.2973 28.8474 72.2349 28.7234 72.2239 28.546C72.2124 28.3595 72.2523 28.2292 72.3436 28.1551C72.4392 28.0761 72.7053 28.0231 73.1419 27.9962L75.0865 27.876C75.3367 27.8605 75.5071 27.8842 75.5977 27.9471C75.6926 28.0052 75.7819 28.1207 75.8657 28.2936L78.9454 34.7947L79.0614 34.7875C79.307 34.7724 79.4774 34.7961 79.5726 34.8587C79.6678 34.9213 79.7208 35.0413 79.7318 35.2187C79.7433 35.4052 79.7081 35.5375 79.6262 35.6156C79.544 35.6892 79.3846 35.7333 79.1481 35.7479L77.2923 35.8626C76.9466 35.8839 76.7216 35.8636 76.6173 35.8015C76.5173 35.7347 76.4615 35.608 76.45 35.4215C76.4393 35.2486 76.4842 35.1249 76.5846 35.0502C76.6892 34.9707 76.8894 34.9218 77.1851 34.9035L77.8196 34.8643L77.0574 33.2813L73.5914 33.4955L73.105 35.1556L73.7668 35.1147C74.067 35.0962 74.2739 35.1199 74.3876 35.1859C74.501 35.2474 74.563 35.3646 74.5737 35.5374C74.5852 35.7239 74.5432 35.8567 74.4476 35.9356C74.3563 36.0098 74.1446 36.0571 73.8126 36.0776L72.0181 36.1885C71.727 36.2065 71.5316 36.1843 71.4319 36.122C71.3319 36.0551 71.2761 35.9284 71.2646 35.7419C71.2536 35.5645 71.2938 35.4388 71.3851 35.3646C71.4764 35.2905 71.6585 35.245 71.9314 35.2281L72.061 35.2201L74.0009 28.9293ZM86.2924 32.5463C86.2713 32.2051 86.2918 31.9824 86.3538 31.8781C86.4158 31.7738 86.5424 31.7158 86.7334 31.704C86.8972 31.6938 87.0227 31.7295 87.1099 31.8108C87.1968 31.8877 87.2458 32.0148 87.2567 32.1922L87.2749 32.4855L87.4136 34.7303C87.4234 34.8895 87.3879 35.0172 87.3071 35.1136C87.226 35.2053 87.1082 35.256 86.9535 35.2655L80.9016 35.6395L80.5809 35.6593C80.4172 35.6695 80.2918 35.6361 80.2049 35.5593C80.118 35.4825 80.0694 35.3622 80.0593 35.1984C80.0481 35.0165 80.0882 34.8907 80.1798 34.8212C80.2757 34.7467 80.4964 34.6989 80.8421 34.6775L81.695 34.6248L81.3151 28.4773L80.4623 28.53C80.1257 28.5508 79.9029 28.5304 79.7941 28.4686C79.6895 28.402 79.6315 28.2755 79.62 28.089C79.6096 27.9207 79.6429 27.7953 79.72 27.7129C79.8014 27.6257 79.9308 27.5766 80.1082 27.5657L80.4015 27.5475L83.4787 27.3574L83.7994 27.3376C83.9631 27.3274 84.0907 27.3607 84.1822 27.4372C84.2737 27.5137 84.3245 27.6339 84.3346 27.7976C84.3461 27.9841 84.3018 28.117 84.2017 28.1962C84.1059 28.2706 83.8851 28.3185 83.5394 28.3399L82.3931 28.4107L82.773 34.5582L86.4028 34.3339L86.2924 32.5463ZM100.56 33.459L100.826 33.4425C101.018 33.4307 101.159 33.4608 101.25 33.5328C101.341 33.6002 101.391 33.7158 101.401 33.8796C101.411 34.0388 101.378 34.1641 101.301 34.2556C101.225 34.3425 101.109 34.3908 100.954 34.4003L97.5905 34.6082C97.4358 34.6178 97.315 34.5841 97.2281 34.5073C97.1409 34.426 97.0923 34.3057 97.0825 34.1465C97.0721 33.9782 97.1079 33.855 97.1898 33.7768C97.2763 33.6984 97.4264 33.6526 97.6402 33.6394L97.8653 33.6255L98.2952 33.599L97.9153 27.4515L97.4854 27.4781C97.1397 27.4994 96.9148 27.4791 96.8105 27.417C96.7105 27.3502 96.6547 27.2235 96.6432 27.037C96.6333 26.8778 96.6668 26.7547 96.7436 26.6678C96.8202 26.5763 96.9358 26.5258 97.0904 26.5162L103.129 26.1431C103.283 26.1335 103.402 26.1741 103.486 26.2649C103.573 26.3508 103.622 26.4824 103.633 26.6598L103.742 28.4201C103.752 28.5793 103.718 28.7024 103.642 28.7893C103.569 28.8714 103.455 28.9173 103.301 28.9268C103.11 28.9386 102.977 28.8966 102.903 28.8008C102.828 28.7049 102.78 28.4819 102.758 28.1316L102.698 27.1559L98.9933 27.3849L99.1354 29.6842L100.937 29.5729L100.926 29.3955C100.905 29.0635 100.923 28.8386 100.98 28.7209C101.037 28.6033 101.147 28.5394 101.31 28.5293C101.456 28.5203 101.563 28.557 101.632 28.6395C101.706 28.7217 101.749 28.8584 101.76 29.0494L101.868 30.7824C101.882 31.0099 101.859 31.1688 101.801 31.2591C101.747 31.3492 101.643 31.399 101.488 31.4086C101.325 31.4187 101.207 31.3689 101.137 31.2591C101.066 31.1493 101.02 30.9284 101 30.5963L100.988 30.3985L99.1864 30.5098L99.3732 33.5323L100.56 33.459ZM112.507 29.6181C112.584 30.8644 112.302 31.9092 111.66 32.7525C111.018 33.5912 110.158 34.0439 109.08 34.1105C108.011 34.1766 107.104 33.8308 106.358 33.0733C105.617 32.3155 105.209 31.3157 105.132 30.0739C105.054 28.8185 105.334 27.7738 105.972 26.9399C106.61 26.1015 107.47 25.6488 108.553 25.5819C109.631 25.5153 110.54 25.8609 111.281 26.6187C112.022 27.3765 112.431 28.3763 112.507 29.6181ZM109.02 33.1417C109.784 33.0945 110.366 32.7662 110.767 32.157C111.172 31.543 111.343 30.722 111.279 29.694C111.216 28.666 110.945 27.8745 110.468 27.3196C109.995 26.7598 109.377 26.5035 108.613 26.5507C107.844 26.5982 107.259 26.9266 106.858 27.5358C106.462 28.1402 106.296 28.9609 106.36 29.998C106.423 31.026 106.692 31.8199 107.165 32.3797C107.642 32.9346 108.26 33.1886 109.02 33.1417ZM115.494 26.3035L115.665 29.06L117.077 28.9727C117.714 28.9334 118.184 28.7901 118.489 28.543C118.797 28.2911 118.937 27.9377 118.909 27.4828C118.881 27.0234 118.703 26.6874 118.374 26.4748C118.046 26.2623 117.571 26.1752 116.947 26.2137L115.494 26.3035ZM115.878 32.5124L116.342 32.4837C116.606 32.4674 116.794 32.4923 116.908 32.5583C117.022 32.6244 117.084 32.7415 117.094 32.9098C117.105 33.0918 117.065 33.2221 116.974 33.3008C116.883 33.3794 116.706 33.4269 116.442 33.4432L114.15 33.5849C113.995 33.5945 113.874 33.5608 113.787 33.484C113.7 33.4027 113.652 33.2824 113.642 33.1232C113.631 32.9549 113.669 32.8315 113.756 32.7531C113.842 32.6747 113.99 32.6291 114.199 32.6161L114.425 32.6022L114.82 32.5778L114.437 26.3689L114.041 26.3934C113.7 26.4144 113.477 26.3962 113.373 26.3387C113.269 26.2812 113.212 26.1638 113.201 25.9864C113.191 25.8317 113.223 25.7134 113.295 25.6313C113.372 25.5489 113.49 25.5028 113.65 25.4929L116.529 25.315C117.225 25.272 117.745 25.2741 118.091 25.3212C118.44 25.3635 118.738 25.457 118.985 25.6016C119.302 25.7874 119.558 26.0433 119.751 26.3692C119.95 26.6948 120.061 27.051 120.085 27.4376C120.117 27.9607 119.983 28.421 119.684 28.8185C119.388 29.2111 118.959 29.498 118.394 29.6789C118.517 29.7399 118.626 29.813 118.723 29.8983C118.824 29.9834 118.922 30.087 119.016 30.209L120.517 32.2257L120.743 32.2118C120.997 32.196 121.175 32.2216 121.275 32.2885C121.374 32.3508 121.43 32.4684 121.44 32.6412C121.45 32.8004 121.417 32.9258 121.34 33.0173C121.268 33.1039 121.155 33.152 121 33.1616L120.229 33.2092C120.006 33.223 119.778 33.0727 119.544 32.7585C119.515 32.7328 119.493 32.7114 119.478 32.694L118.045 30.7895C117.752 30.4013 117.513 30.1535 117.328 30.0462C117.148 29.9386 116.915 29.8937 116.628 29.9114L115.721 29.9675L115.878 32.5124ZM132.375 30.7053L133.296 26.5527C133.328 26.4046 133.368 26.3108 133.416 26.2713C133.468 26.227 133.562 26.2006 133.699 26.1922L134.006 26.1732C134.138 26.1651 134.232 26.1798 134.289 26.2174C134.351 26.2546 134.406 26.3334 134.455 26.4537L136.039 30.4789L136.372 25.0133L135.301 25.0795C135.092 25.0925 134.935 25.0656 134.83 24.999C134.73 24.9322 134.675 24.8191 134.666 24.6599C134.655 24.4871 134.693 24.3637 134.78 24.2899C134.871 24.2158 135.044 24.1708 135.299 24.1551L137.503 24.0189C137.603 24.0127 137.694 24.0527 137.777 24.1389C137.86 24.2205 137.905 24.3273 137.913 24.4592C137.923 24.6139 137.887 24.7325 137.805 24.8152C137.723 24.8933 137.596 24.9377 137.423 24.9484L137.341 24.9535L136.794 31.8363C136.789 31.9781 136.767 32.0731 136.729 32.1211C136.696 32.1688 136.636 32.1953 136.549 32.2007L136.065 32.2306C135.96 32.2371 135.879 32.2215 135.822 32.184C135.765 32.1464 135.713 32.072 135.665 31.9608L133.894 27.3582L132.875 32.1469C132.85 32.2626 132.814 32.3402 132.766 32.3797C132.718 32.4192 132.638 32.4424 132.524 32.4494L132.012 32.4811C131.921 32.4867 131.852 32.4704 131.804 32.4323C131.76 32.3894 131.724 32.2911 131.696 32.1376L130.238 25.3924L130.157 25.3975C129.979 25.4084 129.843 25.378 129.747 25.3063C129.656 25.2344 129.605 25.1233 129.596 24.9732C129.588 24.8367 129.617 24.7231 129.685 24.6321C129.752 24.5412 129.838 24.4925 129.943 24.4861L132.153 24.3494C132.404 24.334 132.576 24.3576 132.671 24.4202C132.771 24.4825 132.826 24.6001 132.837 24.7729C132.847 24.9321 132.804 25.0512 132.708 25.1302C132.617 25.2089 132.47 25.2545 132.265 25.2672L131.303 25.3266L132.375 30.7053ZM146.076 27.5437C146.153 28.79 145.871 29.8348 145.229 30.6781C144.587 31.5168 143.726 31.9695 142.648 32.0361C141.58 32.1022 140.672 31.7564 139.927 30.9989C139.186 30.241 138.777 29.2412 138.701 27.9994C138.623 26.744 138.903 25.6994 139.541 24.8655C140.179 24.027 141.039 23.5743 142.121 23.5074C143.199 23.4408 144.109 23.7864 144.85 24.5443C145.591 25.3021 145.999 26.3019 146.076 27.5437ZM142.589 31.0672C143.353 31.02 143.935 30.6918 144.336 30.0826C144.741 29.4686 144.912 28.6475 144.848 27.6196C144.784 26.5916 144.514 25.8001 144.037 25.2451C143.564 24.6854 142.945 24.4291 142.181 24.4763C141.413 24.5238 140.828 24.8522 140.427 25.4614C140.031 26.0657 139.865 26.8865 139.929 27.9236C139.992 28.9515 140.26 29.7454 140.733 30.3052C141.211 30.8602 141.829 31.1142 142.589 31.0672ZM149.063 24.2291L149.233 26.9856L150.646 26.8983C151.282 26.8589 151.753 26.7157 152.057 26.4686C152.366 26.2167 152.506 25.8633 152.478 25.4084C152.45 24.949 152.271 24.613 151.943 24.4004C151.615 24.1878 151.139 24.1008 150.516 24.1393L149.063 24.2291ZM149.447 30.438L149.911 30.4093C150.174 30.393 150.363 30.4179 150.477 30.4839C150.59 30.5499 150.653 30.6671 150.663 30.8354C150.674 31.0173 150.634 31.1476 150.543 31.2263C150.452 31.305 150.275 31.3525 150.011 31.3688L147.718 31.5105C147.564 31.52 147.443 31.4864 147.356 31.4096C147.269 31.3282 147.22 31.2079 147.211 31.0487C147.2 30.8804 147.238 30.7571 147.325 30.6787C147.411 30.6003 147.559 30.5546 147.768 30.5417L147.993 30.5278L148.389 30.5033L148.005 24.2945L147.61 24.3189C147.269 24.34 147.046 24.3218 146.942 24.2643C146.838 24.2068 146.78 24.0894 146.769 23.912C146.76 23.7573 146.791 23.6389 146.864 23.5568C146.941 23.4744 147.059 23.4283 147.218 23.4185L150.098 23.2406C150.794 23.1975 151.314 23.1996 151.66 23.2468C152.009 23.2891 152.307 23.3825 152.554 23.5271C152.871 23.713 153.127 23.9689 153.32 24.2948C153.518 24.6204 153.629 24.9765 153.653 25.3632C153.686 25.8863 153.552 26.3466 153.252 26.744C152.957 27.1367 152.527 27.4235 151.963 27.6045C152.086 27.6654 152.195 27.7386 152.292 27.8239C152.393 27.909 152.491 28.0125 152.585 28.1345L154.086 30.1513L154.311 30.1373C154.566 30.1216 154.743 30.1472 154.843 30.214C154.943 30.2764 154.998 30.394 155.009 30.5668C155.019 30.726 154.986 30.8513 154.909 30.9428C154.837 31.0295 154.723 31.0776 154.569 31.0871L153.798 31.1348C153.575 31.1486 153.346 30.9983 153.112 30.684C153.083 30.6584 153.061 30.6369 153.047 30.6196L151.614 28.7151C151.321 28.3268 151.082 28.0791 150.897 27.9718C150.717 27.8642 150.483 27.8192 150.197 27.8369L149.289 27.893L149.447 30.438ZM157.968 29.9113L158.426 29.8831C158.694 29.8665 158.885 29.8912 158.999 29.9573C159.112 30.0233 159.174 30.1405 159.185 30.3088C159.196 30.4907 159.156 30.621 159.065 30.6997C158.974 30.7784 158.794 30.826 158.526 30.8426L156.193 30.9868C156.038 30.9964 155.917 30.9627 155.83 30.8859C155.747 30.8043 155.701 30.6838 155.691 30.5246C155.681 30.3563 155.717 30.2331 155.799 30.155C155.885 30.0766 156.035 30.0308 156.249 30.0176L156.467 30.0041L156.904 29.9771L156.524 23.8297L156.088 23.8567C155.742 23.878 155.519 23.8575 155.419 23.7952C155.319 23.7283 155.264 23.6016 155.252 23.4152C155.242 23.256 155.273 23.133 155.346 23.0464C155.422 22.9549 155.538 22.9044 155.692 22.8948L158.026 22.7506C158.294 22.734 158.478 22.7592 158.579 22.826C158.679 22.8929 158.734 23.0173 158.745 23.1993C158.757 23.3812 158.703 23.5124 158.585 23.5927C158.466 23.6731 158.237 23.7238 157.896 23.7449L157.589 23.7639L157.76 26.5408L160.434 23.5881L160.352 23.5931L160.202 23.6024C159.979 23.6162 159.815 23.5875 159.71 23.5164C159.605 23.4452 159.548 23.3232 159.537 23.1504C159.526 22.973 159.557 22.8455 159.63 22.7679C159.702 22.6858 159.825 22.6394 159.998 22.6288L162.011 22.5044C162.165 22.4948 162.286 22.5307 162.373 22.6121C162.46 22.6889 162.509 22.8069 162.518 22.9661C162.529 23.1435 162.483 23.2742 162.378 23.3583C162.278 23.4376 162.092 23.4856 161.819 23.5025L161.723 23.5084L159.24 26.2233C159.641 26.2807 160.039 26.5119 160.434 26.9167C160.829 27.3215 161.46 28.2299 162.328 29.6419L162.451 29.6343C162.733 29.6169 162.924 29.6394 163.024 29.7017C163.123 29.764 163.179 29.8839 163.19 30.0613C163.2 30.2205 163.166 30.3458 163.09 30.4373C163.017 30.5239 162.904 30.5721 162.749 30.5816L162.094 30.6221C161.949 30.6311 161.841 30.6218 161.771 30.5941C161.705 30.5662 161.635 30.4975 161.559 30.388C161.515 30.3269 161.234 29.8808 160.716 29.0498L160.42 28.5682C160.1 28.0537 159.789 27.6734 159.486 27.4273C159.183 27.1766 158.868 27.0385 158.543 27.013L157.836 27.7689L157.968 29.9113Z" fill="#393939"/>
<rect x="0.529887" y="12.0014" width="185.987" height="47" rx="3.5" transform="rotate(-3.53619 0.529887 12.0014)" stroke="#393939"/>
</svg>
