<svg width="26" height="25" viewBox="0 0 26 25" fill="none" xmlns="http://www.w3.org/2000/svg">
<g clip-path="url(#clip0)">
<path d="M14.6426 12.5368C15.1426 11.3009 17.8288 9.67954 18.3802 9.8871C19.0027 10.1243 19.7662 13.0527 19.2662 14.2874C19.0188 14.8705 18.5446 15.3362 17.9458 15.584C17.347 15.8319 16.6716 15.8421 16.065 15.6125C15.4585 15.3828 14.9695 14.9317 14.7035 14.3564C14.4374 13.7811 14.4155 13.1276 14.6426 12.5368Z" fill="#F2EAD9"/>
<path d="M17.1082 1.17778C17.8079 2.31878 17.4758 5.36816 16.9685 5.65875C16.3926 5.98966 13.5373 4.7692 12.8388 3.6282C12.5031 3.08022 12.406 2.42561 12.5689 1.80836C12.7319 1.19112 13.1415 0.661797 13.7076 0.336851C14.2738 0.0119048 14.9501 -0.082051 15.5879 0.0756529C16.2256 0.233357 16.7725 0.629802 17.1082 1.17778Z" fill="#F2EAD9"/>
<path d="M12.779 9.62261C12.377 10.8893 9.80364 12.691 9.24607 12.5225C8.60762 12.3351 7.63095 9.4613 8.03902 8.19458C8.12727 7.88398 8.27914 7.59373 8.4856 7.34108C8.69207 7.08843 8.9489 6.87854 9.24085 6.72388C9.53279 6.56921 9.85389 6.47294 10.185 6.44079C10.5162 6.40863 10.8506 6.44125 11.1685 6.5367C11.4864 6.63215 11.7812 6.78848 12.0354 6.9964C12.2896 7.20432 12.498 7.45959 12.6482 7.74702C12.7985 8.03446 12.8875 8.3482 12.9099 8.66959C12.9324 8.99098 12.8879 9.31346 12.779 9.61786V9.62261Z" fill="#F2EAD9"/>
<path d="M11.8119 15.8471C12.9491 16.5884 13.9968 19.4824 13.6672 19.9545C13.2995 20.4917 10.1735 20.5724 9.03625 19.8358C8.75938 19.6623 8.52102 19.437 8.33511 19.1732C8.1492 18.9095 8.01946 18.6125 7.95348 18.2996C7.8875 17.9868 7.8866 17.6643 7.95084 17.3512C8.01507 17.038 8.14314 16.7403 8.32758 16.4756C8.51202 16.2109 8.74912 15.9843 9.02503 15.8093C9.30093 15.6343 9.61011 15.5142 9.93451 15.4561C10.2589 15.3981 10.592 15.4031 10.9143 15.4711C11.2367 15.539 11.5418 15.6685 11.8119 15.8518V15.8471Z" fill="#F2EAD9"/>
<path d="M1.68873 22.4511C0.953474 21.3291 1.19856 18.2714 1.69854 17.9678C2.26469 17.6215 5.15303 18.7625 5.88584 19.8833C6.23201 20.4219 6.34411 21.0711 6.1977 21.6894C6.05129 22.3077 5.65825 22.8449 5.10428 23.1838C4.55032 23.5227 3.88037 23.6359 3.24054 23.4986C2.60071 23.3614 2.04289 22.9849 1.68873 22.4511Z" fill="#F2EAD9"/>
<path d="M19.4513 24.0559C18.4342 24.9454 15.2848 25.2313 14.8853 24.8079C14.4368 24.3334 15.1083 21.3777 16.1255 20.4882C16.3664 20.2704 16.6497 20.1013 16.9588 19.9906C17.268 19.88 17.5968 19.83 17.9261 19.8436C18.2555 19.8572 18.5787 19.9342 18.8769 20.07C19.1752 20.2058 19.4425 20.3978 19.6634 20.6347C19.8842 20.8715 20.054 21.1486 20.1631 21.4497C20.2721 21.7508 20.318 22.0698 20.2983 22.3883C20.2786 22.7068 20.1935 23.0182 20.0481 23.3045C19.9026 23.5909 19.6998 23.8463 19.4513 24.0559Z" fill="#F2EAD9"/>
<path d="M21.3225 16.6228C22.0909 15.5245 25.0822 14.5151 25.5711 14.8354C26.125 15.1983 26.2022 18.218 25.4339 19.3164C25.2539 19.5838 25.0207 19.8139 24.7479 19.9932C24.4751 20.1725 24.1681 20.2974 23.8448 20.3605C23.5216 20.4237 23.1886 20.4239 22.8652 20.3612C22.5419 20.2984 22.2347 20.174 21.9616 19.9951C21.6885 19.8161 21.455 19.5864 21.2747 19.3191C21.0944 19.0519 20.9708 18.7526 20.9113 18.4387C20.8519 18.1247 20.8576 17.8025 20.9282 17.4907C20.9988 17.1789 21.1328 16.8839 21.3225 16.6228Z" fill="#F2EAD9"/>
<path d="M4.67361 0.904974C5.91865 0.355823 9.01654 0.992743 9.26286 1.51106C9.54103 2.10409 7.98841 4.71938 6.74214 5.27209C6.14381 5.53758 5.46101 5.56215 4.84396 5.34038C4.22692 5.11862 3.72616 4.66869 3.45185 4.08957C3.17755 3.51046 3.15217 2.8496 3.38129 2.25237C3.61042 1.65514 4.07528 1.17047 4.67361 0.904974Z" fill="#F2EAD9"/>
<path d="M22.0271 9.03786C20.9303 8.242 20.0357 5.30055 20.3899 4.84391C20.7918 4.3256 23.9118 4.39914 25.0073 5.19973C25.2753 5.38647 25.5021 5.62306 25.6744 5.89566C25.8467 6.16826 25.9612 6.47139 26.011 6.78732C26.0608 7.10324 26.045 7.42561 25.9645 7.73555C25.884 8.04549 25.7405 8.33678 25.5422 8.59237C25.344 8.84796 25.0951 9.06272 24.8101 9.22406C24.5251 9.38541 24.2097 9.49011 23.8824 9.53204C23.555 9.57396 23.2223 9.55227 22.9038 9.46823C22.5852 9.38419 22.2872 9.23949 22.0271 9.0426V9.03786Z" fill="#F2EAD9"/>
<path d="M4.87356 9.51347C5.24119 10.7909 4.10277 13.6517 3.53539 13.8047C2.89081 13.979 0.460782 12.0837 0.0919268 10.8063C-0.0591591 10.2011 0.0383122 9.56285 0.36381 9.02588C0.689307 8.4889 1.21742 8.09515 1.83691 7.92758C2.4564 7.76 3.11891 7.83167 3.68489 8.12749C4.25087 8.42331 4.67614 8.92019 4.87111 9.51347H4.87356Z" fill="#F2EAD9"/>
</g>
<defs>
<clipPath id="clip0">
<rect width="26" height="25" fill="white"/>
</clipPath>
</defs>
</svg>
