<svg width="27" height="27" viewBox="0 0 27 27" fill="none" xmlns="http://www.w3.org/2000/svg">
<path d="M13.5 27C10.83 27 8.21992 26.2082 5.99986 24.7248C3.7798 23.2414 2.04941 21.133 1.02763 18.6662C0.00584508 16.1994 -0.261493 13.485 0.259404 10.8663C0.780301 8.24754 2.06605 5.84212 3.95405 3.95411C5.84206 2.0661 8.24748 0.780308 10.8662 0.259405C13.485 -0.261497 16.1994 0.0058519 18.6662 1.02763C21.133 2.04941 23.2415 3.77975 24.7249 5.9998C26.2083 8.21986 27 10.8299 27 13.5C26.996 17.0792 25.5723 20.5106 23.0415 23.0415C20.5106 25.5723 17.0792 26.996 13.5 27ZM13.5 7.43242C12.3 7.43243 11.1269 7.78831 10.1291 8.45503C9.13126 9.12175 8.35354 10.0694 7.89431 11.1781C7.43507 12.2868 7.31499 13.5067 7.54911 14.6837C7.78324 15.8607 8.36113 16.9419 9.2097 17.7904C10.0583 18.639 11.1393 19.2169 12.3163 19.451C13.4933 19.6851 14.7133 19.565 15.822 19.1057C16.9307 18.6465 17.8784 17.8688 18.5451 16.871C19.2118 15.8731 19.5677 14.7 19.5677 13.5C19.5658 11.8913 18.9259 10.3491 17.7884 9.21156C16.6509 8.07407 15.1087 7.43424 13.5 7.43242Z" fill="#F2EAD9"/>
</svg>
