<svg width="28" height="26" viewBox="0 0 28 26" fill="none" xmlns="http://www.w3.org/2000/svg">
<path d="M18.5989 0.327249C21.0498 0.84869 23.3716 1.42256 25.2573 3.23307C28.4723 6.31984 28.9337 11.9496 26.2547 15.6996C25.0116 17.4396 23.3533 17.6245 21.5559 17.381C18.8369 17.0127 18.8153 17.0175 18.933 19.983C18.9872 21.3483 19.1465 22.7066 19.2519 24.0687C19.3405 25.2145 18.9735 25.8679 17.8028 25.8718C15.2072 25.8803 12.6107 25.9613 10.0146 25.9997C9.06038 26.0138 8.61658 25.507 8.69257 24.4278C8.82586 22.5345 8.91175 20.638 9.03672 18.7441C9.11409 17.5716 8.69258 17.0886 7.60014 17.3473C5.01578 17.9592 2.57791 18.1115 1.13141 15.0156C-0.556917 11.4022 -0.39897 7.30942 1.89738 4.65113C3.0235 3.34751 4.49742 2.19437 6.01109 1.54266C10.1071 -0.220921 14.3942 -0.232323 18.5989 0.327249Z" fill="#F2EAD9"/>
</svg>
