<svg width="743" height="229" viewBox="0 0 743 229" fill="none" xmlns="http://www.w3.org/2000/svg">
<g clip-path="url(#clip0)">
<path d="M54.9806 2.34481C57.7476 2.34481 60.5221 2.31006 63.2892 2.35225C66.3788 2.41364 69.4177 3.1502 72.1928 4.51032C73.4879 5.04043 74.598 5.94084 75.3839 7.09908C76.1698 8.25731 76.5967 9.62192 76.6112 11.0217C76.703 14.0976 76.7873 17.1909 76.5914 20.2543C76.6509 20.9971 76.5349 21.7432 76.2523 22.4326C75.9697 23.122 75.5285 23.7352 74.9649 24.2223C74.4012 24.7093 73.7308 25.0564 73.008 25.2359C72.2851 25.4153 71.5302 25.4221 70.8044 25.2551C68.6595 25.0663 66.5325 24.7122 64.4421 24.1959C60.6977 23.4108 56.8325 23.3975 53.0829 24.1575C49.3332 24.9174 45.778 26.4344 42.6342 28.6156C39.4904 30.7968 36.8241 33.5966 34.7985 36.8436C32.7729 40.0906 31.4304 43.7166 30.8531 47.5003C30.034 51.7648 30.2785 56.1658 31.5647 60.3133C32.8509 64.4608 35.139 68.2273 38.227 71.2791C42.7354 76.1992 48.8251 79.3828 55.4368 80.2761C57.2554 80.4902 59.0919 80.506 60.9139 80.3232C62.9024 80.152 64.8537 79.5989 66.8372 79.4054C68.8196 79.1758 70.8184 79.1218 72.8102 79.2442C73.2813 79.2154 73.7533 79.2838 74.1969 79.4451C74.6404 79.6064 75.0462 79.8571 75.3888 80.1818C75.7315 80.5065 76.004 80.8981 76.1891 81.3325C76.3742 81.7668 76.468 82.2348 76.4649 82.707C76.677 86.698 76.6471 90.6982 76.3757 94.6856C76.2591 95.9365 75.7496 97.1182 74.9202 98.0616C74.0909 99.005 72.9842 99.6616 71.7589 99.9369C68.7109 100.997 65.5454 101.682 62.3321 101.978C55.886 102.507 49.4006 102.297 43.0024 101.351C36.1784 100.098 29.6382 97.6174 23.6999 94.0282C22.3883 93.227 21.1238 92.3439 19.8493 91.4807C6.56697 82.4837 0.405582 69.7113 0.0410906 53.9128C-0.110733 49.7604 0.158415 45.6033 0.84443 41.5052C2.33864 32.1315 7.01636 23.5595 14.0896 17.233C24.3744 8.08728 36.2013 2.24806 50.3614 2.32248C51.9036 2.32992 53.4384 2.32248 54.9806 2.32248V2.34481Z" fill="#231F20"/>
<path d="M122.554 47.6086C122.678 40.215 123.376 32.8422 124.641 25.5565C125.471 20.8109 127.77 16.4461 131.214 13.0794C132.633 11.6655 134.031 10.2293 135.467 8.83768C138.657 5.67571 142.611 3.39326 146.944 2.21214C151.959 0.679644 157.182 -0.0651098 162.426 0.00445969C165.19 0.123513 167.97 0.0888061 170.739 0.0143819C175.303 -0.0611682 179.828 0.871034 183.991 2.74422C188.154 4.61741 191.853 7.38552 194.824 10.8519C202.172 18.8901 206.456 29.2598 206.924 40.1422C207.628 45.9483 207.91 51.7979 207.767 57.6449C207.575 62.0999 207.077 66.5365 206.277 70.9232C205.194 75.9103 203.064 80.6102 200.028 84.711C196.992 88.8118 193.118 92.2197 188.666 94.7092C186.388 95.9994 184.045 97.171 181.646 98.2191C180.97 98.5939 180.241 98.8641 179.484 99.0204C173.626 100.265 167.628 100.72 161.65 100.372C160.291 100.113 158.915 99.9543 157.534 99.896C152.415 99.8456 147.427 98.2723 143.205 95.3764C139.237 93.0062 135.646 90.0556 132.551 86.6226C127.528 80.4994 124.518 72.9736 123.932 65.0741C123.208 59.2871 122.998 53.4355 122.554 47.6086ZM154.221 48.2833C154.221 50.9003 154.204 53.5148 154.226 56.1317C154.311 60.4618 155.502 64.6981 157.685 68.4377C158.954 70.7492 160.938 72.5873 163.338 73.6766C164.824 74.5264 166.553 74.8518 168.246 74.6003C169.939 74.3488 171.498 73.5351 172.673 72.29C175.065 70.0752 176.646 67.1224 177.164 63.9033C178.542 55.2392 178.778 46.4319 177.868 37.7063C177.737 36.3277 177.515 34.9595 177.201 33.6109C176.598 30.4016 174.882 27.5082 172.356 25.44C170.665 23.9467 168.487 23.1233 166.232 23.1247C163.976 23.1261 161.799 23.9521 160.11 25.4474C158.039 27.0866 156.524 29.3262 155.774 31.8596C155.035 34.5171 154.534 37.2348 154.276 39.9809C154.025 42.7269 154.221 45.5128 154.221 48.2836V48.2833Z" fill="#231F20"/>
<path d="M254.595 59.7141C254.595 52.9372 254.605 46.1604 254.59 39.3836C254.583 35.2287 254.333 31.1035 253.938 26.9536C253.516 21.4256 253.475 15.8749 253.817 10.3414C253.795 9.36554 253.966 8.39485 254.321 7.48565C254.676 6.57645 255.207 5.74671 255.885 5.04417C256.562 4.34164 257.372 3.78041 258.267 3.39275C259.163 3.00509 260.126 2.79872 261.101 2.78564C265.365 2.2146 269.657 1.88169 273.957 1.78846C287.505 1.66444 301.053 1.66692 314.603 1.7959C318.446 1.81667 322.278 2.21631 326.043 2.98904C329.016 3.50197 331.828 4.69946 334.259 6.48692C336.689 8.27438 338.671 10.6028 340.047 13.2883C344.342 21.5418 345.953 30.931 344.656 40.1451C344.289 43.0424 343.989 45.9644 343.377 48.8097C342.076 55.2164 338.388 60.8879 333.06 64.6727C327.49 68.8171 320.912 71.3943 314.01 72.1367C308.194 72.6926 302.353 72.9435 296.51 72.8883C294.968 72.9057 293.428 72.8709 291.891 72.9106C285.883 73.0495 283.161 75.1679 281.872 81.0121C281.445 82.942 281.587 84.9934 281.349 86.9728C281.137 89.1046 280.789 91.2207 280.307 93.3081C280.044 94.3658 279.502 95.3331 278.736 96.1084C277.97 96.8836 277.01 97.438 275.956 97.7136C270.78 99.3264 265.236 99.323 260.063 97.7037C259.007 97.4297 258.045 96.8748 257.278 96.0978C256.512 95.3208 255.971 94.3509 255.711 93.2908C255.103 91.0759 254.747 88.7991 254.652 86.504C254.533 77.5716 254.603 68.6366 254.603 59.7017L254.595 59.7141ZM307.717 48.8419C309.786 48.4328 311.723 47.5222 313.358 46.1902C314.994 44.8582 316.277 43.1455 317.097 41.2018C317.743 39.7852 318.083 38.2476 318.094 36.6903C318.104 35.1331 317.785 33.5913 317.158 32.1661C316.531 30.7409 315.609 29.4645 314.454 28.4208C313.299 27.3771 311.936 26.5898 310.455 26.1102C307.67 25.3583 304.8 24.9739 301.915 24.9667C298.62 24.9121 295.313 25.3983 292.013 25.624C289.892 25.6071 287.832 26.3329 286.19 27.6757C284.548 29.0185 283.428 30.8937 283.022 32.9763C282.288 35.9339 282.245 39.0211 282.896 41.9981C283.12 44.1904 284.161 46.2177 285.812 47.6767C287.463 49.1356 289.602 49.9193 291.805 49.8713C297.126 49.8987 302.443 49.5547 307.717 48.8419Z" fill="#231F20"/>
<path d="M389.195 59.7141C389.195 52.9372 389.208 46.1604 389.193 39.3836C389.186 35.2287 388.935 31.1035 388.541 26.9536C388.118 21.4256 388.078 15.8749 388.419 10.3414C388.397 9.36554 388.569 8.39485 388.924 7.48565C389.279 6.57645 389.81 5.74671 390.487 5.04417C391.165 4.34164 391.974 3.78041 392.87 3.39275C393.765 3.00509 394.728 2.79872 395.704 2.78564C399.967 2.2146 404.259 1.88169 408.56 1.78846C422.108 1.66444 435.655 1.66692 449.203 1.7959C453.047 1.81654 456.88 2.21618 460.645 2.98904C463.618 3.50197 466.431 4.69946 468.861 6.48692C471.291 8.27438 473.273 10.6028 474.649 13.2883C478.944 21.5418 480.556 30.931 479.259 40.1451C478.892 43.0424 478.592 45.9644 477.979 48.8097C476.679 55.2164 472.99 60.8879 467.662 64.6727C462.091 68.8176 455.513 71.3948 448.61 72.1367C442.794 72.6927 436.953 72.9436 431.11 72.8883C429.571 72.9057 428.031 72.8709 426.494 72.9106C420.486 73.0495 417.764 75.1679 416.474 81.0121C416.045 82.942 416.189 84.9934 415.949 86.9728C415.737 89.1044 415.39 91.2204 414.91 93.3081C414.647 94.3658 414.104 95.3331 413.338 96.1084C412.573 96.8836 411.613 97.438 410.559 97.7136C405.383 99.3264 399.839 99.323 394.665 97.7037C393.609 97.4301 392.647 96.8755 391.88 96.0984C391.114 95.3214 390.573 94.3511 390.314 93.2908C389.705 91.0759 389.35 88.7991 389.255 86.504C389.134 77.5716 389.203 68.6366 389.203 59.7017L389.195 59.7141ZM442.317 48.8419C444.387 48.4332 446.324 47.5228 447.96 46.1908C449.595 44.8588 450.88 43.1458 451.7 41.2018C452.346 39.7852 452.686 38.2476 452.696 36.6903C452.706 35.1331 452.388 33.5913 451.76 32.1661C451.133 30.7409 450.211 29.4645 449.056 28.4208C447.901 27.3771 446.538 26.5898 445.057 26.1102C442.273 25.3585 439.402 24.9741 436.518 24.9667C433.223 24.9121 429.913 25.3983 426.613 25.624C424.492 25.6076 422.433 26.3336 420.792 27.6763C419.15 29.0191 418.03 30.8941 417.625 32.9763C416.89 35.9339 416.847 39.0211 417.499 41.9981C417.722 44.19 418.763 46.2171 420.413 47.676C422.064 49.135 424.203 49.9188 426.405 49.8713C431.726 49.8987 437.043 49.5548 442.317 48.8419Z" fill="#231F20"/>
<path d="M525.477 49.7239C525.477 37.0955 525.478 24.4654 525.482 11.8336C525.482 10.4445 525.447 9.0551 525.539 7.67591C525.517 5.95789 526.165 4.29898 527.345 3.05094C528.526 1.8029 530.146 1.06393 531.861 0.990847C532.934 0.879973 534.012 0.838841 535.09 0.86713C554.184 0.859688 573.273 0.968438 592.367 0.804806C599.206 0.747756 602.769 2.90117 602.997 11.4392C603.02 13.8966 602.718 16.346 602.099 18.7243C602.031 19.4649 601.818 20.185 601.472 20.8433C601.126 21.5015 600.654 22.0851 600.082 22.5607C599.511 23.0364 598.851 23.3949 598.142 23.6156C597.432 23.8362 596.685 23.9145 595.945 23.8466C588.274 24.2534 580.598 24.582 572.919 24.8317C569.229 24.9557 565.527 24.8368 561.835 24.8813C560.605 24.8657 559.377 24.9871 558.173 25.2434C556.828 25.613 555.621 26.3681 554.7 27.4158C553.778 28.4635 553.184 29.758 552.989 31.1397C552.873 32.5312 553.192 33.9242 553.901 35.1269C554.61 36.3295 555.675 37.2823 556.948 37.8542C559.566 38.7238 562.269 39.3104 565.012 39.6033C567.288 39.8935 569.626 39.638 571.932 39.7397C573.158 39.7645 574.376 39.9545 575.552 40.305C576.451 40.5593 577.252 41.0802 577.849 41.7989C578.447 42.5176 578.813 43.4004 578.899 44.3312C579.408 48.3365 578.66 52.4009 576.759 55.9625C576.304 56.8634 575.659 57.6556 574.87 58.2852C574.082 58.9149 573.166 59.3672 572.187 59.6114C569.954 60.1661 567.69 60.5828 565.406 60.8591C563.888 61.0551 562.302 60.7872 560.799 61.0451C559.291 61.2764 557.835 61.7691 556.497 62.5012C555.269 63.1824 554.3 64.2495 553.74 65.5374C553.179 66.8253 553.059 68.2622 553.398 69.6253C553.608 70.9378 554.258 72.1397 555.241 73.0336C556.224 73.9275 557.482 74.4603 558.808 74.5443C562.132 75.1678 565.496 75.5508 568.875 75.6903C576.724 75.8589 584.579 75.844 592.432 75.725C600.763 75.596 602.558 78.657 602.964 85.8332C602.972 88.5946 602.649 91.3468 602.002 94.0314C601.79 95.3431 601.152 96.5483 600.187 97.4608C599.222 98.3732 597.983 98.9422 596.662 99.0793C595.009 99.4285 593.331 99.6376 591.643 99.7044C573.164 99.7491 554.687 99.7472 536.213 99.6992C534.371 99.6904 532.539 99.4198 530.773 98.8955C529.22 98.6541 527.815 97.8322 526.844 96.5957C525.873 95.3591 525.406 93.8002 525.539 92.233C525.447 90.8538 525.482 89.4623 525.482 88.0756C525.472 75.2958 525.47 62.512 525.477 49.7239Z" fill="#231F20"/>
<path d="M648.986 46.9276V15.0625C648.986 13.8297 649.07 12.5919 648.986 11.3665C648.847 10.3274 648.922 9.27075 649.208 8.26212C649.494 7.25349 649.984 6.31442 650.648 5.50314C651.312 4.69185 652.135 4.0254 653.067 3.54568C653.999 3.06595 655.019 2.78318 656.065 2.71439C657.728 2.4178 659.415 2.26673 661.105 2.26293C677.415 2.23316 693.727 2.20837 710.037 2.27037C714.509 2.27462 718.949 3.03012 723.171 4.50534C725.521 5.27025 727.693 6.50052 729.558 8.1229C731.423 9.74529 732.942 11.7266 734.026 13.9488C736.94 19.5774 738.504 25.8078 738.593 32.146C738.813 36.4524 738.564 40.7699 737.851 45.0225C737.159 48.6581 735.753 52.1201 733.713 55.2077C732.843 56.4752 732.047 57.7949 731.239 59.1046C730.138 60.7045 729.542 62.5979 729.529 64.5401C729.515 66.4823 730.084 68.3839 731.162 69.9992C732.764 72.626 734.385 75.243 735.972 77.8823C737.874 81.045 739.825 84.1854 741.59 87.425C742.321 88.7734 742.801 90.2431 743.006 91.7631C743.115 92.2969 743.109 92.8479 742.987 93.3789C742.865 93.9099 742.631 94.4089 742.301 94.8418C741.97 95.2747 741.551 95.6318 741.071 95.8889C740.591 96.146 740.061 96.2974 739.518 96.3326C738.604 96.4665 737.68 96.5221 736.756 96.4988C731.985 96.5112 727.215 96.4216 722.447 96.5258C720.439 96.6484 718.432 96.275 716.603 95.4384C714.773 94.6018 713.178 93.3279 711.956 91.7287C709.589 88.7049 707.365 85.5646 705.088 82.4639C704.543 81.7196 704.064 80.9257 703.521 80.179C701.326 76.9791 698.151 74.5788 694.475 73.338C690.799 72.0972 686.82 72.083 683.135 73.298C681.549 73.6559 680.096 74.4568 678.947 75.6077C677.798 76.7585 676.998 78.2121 676.642 79.7995C676.252 81.6003 675.969 83.4225 675.793 85.2567C675.669 86.3233 675.774 87.4147 675.69 88.4839C675.72 89.765 675.493 91.0393 675.021 92.2307C674.549 93.4221 673.842 94.5061 672.942 95.4185C672.043 96.3309 670.969 97.053 669.785 97.5416C668.601 98.0301 667.33 98.2751 666.05 98.2622C662.679 98.679 659.26 98.4346 655.983 97.5428C654.335 97.124 652.861 96.1983 651.767 94.8961C650.674 93.5938 650.017 91.9807 649.889 90.2847C649.236 85.4075 648.923 80.4908 648.951 75.5701C649.041 66.0202 648.986 56.4752 648.986 46.9276ZM687.879 26.0191C680.539 27.2246 677.67 30.7545 677.715 38.2333C677.715 38.5111 677.713 38.7889 677.735 39.0618C678.342 46.1189 680.556 49.1353 688.927 49.3635C691.957 49.4453 694.995 49.1204 698.034 48.9716C700.043 48.8658 702.011 48.3619 703.824 47.4895C705.636 46.617 707.258 45.3929 708.594 43.8886C709.655 42.8772 710.462 41.6298 710.949 40.2475C711.437 38.8652 711.592 37.3869 711.401 35.9335C711.193 33.7721 710.324 31.7274 708.913 30.0776C707.501 28.4278 705.616 27.253 703.514 26.7133C698.34 25.9374 693.1 25.7049 687.879 26.0191Z" fill="#231F20"/>
<path d="M55.1583 129.062C57.9254 129.062 60.7001 129.027 63.4672 129.069C66.5569 129.13 69.5954 129.867 72.3706 131.227C73.6657 131.757 74.7757 132.658 75.5616 133.816C76.3475 134.974 76.7747 136.339 76.7892 137.739C76.881 140.814 76.965 143.908 76.7691 146.971C76.8287 147.714 76.7126 148.46 76.43 149.149C76.1475 149.839 75.7065 150.452 75.1429 150.939C74.5793 151.426 73.9089 151.773 73.186 151.953C72.4631 152.132 71.7079 152.139 70.9821 151.972C68.8373 151.783 66.7102 151.429 64.6198 150.913C60.8754 150.128 57.0102 150.114 53.2606 150.874C49.5109 151.634 45.9557 153.151 42.8119 155.332C39.6681 157.514 37.0019 160.313 34.9763 163.56C32.9506 166.807 31.6082 170.434 31.0308 174.217C30.2118 178.482 30.4563 182.883 31.7424 187.03C33.0286 191.178 35.3168 194.944 38.4047 197.996C42.9132 202.916 49.0028 206.1 55.6145 206.993C57.4331 207.207 59.2696 207.223 61.0916 207.04C63.0801 206.869 65.0314 206.316 67.015 206.122C68.9973 205.893 70.9961 205.839 72.988 205.961C73.4591 205.932 73.9313 206.001 74.3749 206.162C74.8185 206.323 75.2239 206.574 75.5666 206.899C75.9093 207.223 76.1817 207.615 76.3668 208.049C76.5519 208.484 76.6457 208.952 76.6427 209.424C76.8547 213.415 76.8249 217.415 76.5534 221.402C76.4369 222.653 75.9273 223.835 75.098 224.778C74.2686 225.722 73.1619 226.378 71.9367 226.654C68.8887 227.714 65.7232 228.399 62.5098 228.695C56.0637 229.224 49.5784 229.013 43.1801 228.068C36.3561 226.815 29.8159 224.334 23.8777 220.745C22.566 219.944 21.3015 219.061 20.0271 218.197C6.7447 209.201 0.58331 196.428 0.218819 180.63C0.0670087 176.477 0.336157 172.32 1.02216 168.222C2.51636 158.848 7.19407 150.276 14.2673 143.95C24.5521 134.804 36.379 128.965 50.5391 129.039C52.0813 129.047 53.6161 129.039 55.1583 129.039V129.062Z" fill="#231F20"/>
<path d="M131.391 174.414C131.514 167.02 132.212 159.647 133.478 152.362C134.306 147.616 136.606 143.251 140.051 139.885C141.47 138.471 142.865 137.034 144.304 135.643C147.493 132.481 151.446 130.198 155.778 129.017C160.794 127.485 166.016 126.74 171.26 126.81C174.025 126.929 176.807 126.894 179.576 126.82C184.14 126.744 188.664 127.676 192.827 129.549C196.989 131.422 200.688 134.191 203.659 137.657C211.007 145.695 215.292 156.065 215.761 166.947C216.464 172.754 216.746 178.603 216.604 184.45C216.411 188.905 215.913 193.341 215.114 197.728C214.03 202.715 211.9 207.415 208.864 211.515C205.827 215.616 201.955 219.024 197.502 221.514C195.224 222.805 192.88 223.976 190.481 225.024C189.805 225.399 189.077 225.669 188.321 225.826C182.463 227.071 176.465 227.525 170.486 227.177C169.128 226.919 167.752 226.76 166.371 226.701C161.251 226.651 156.262 225.078 152.039 222.182C148.073 219.811 144.483 216.86 141.388 213.428C136.365 207.305 133.355 199.779 132.769 191.879C132.045 186.092 131.832 180.241 131.391 174.414ZM163.058 175.088C163.058 177.705 163.038 180.32 163.061 182.937C163.147 187.267 164.337 191.503 166.52 195.243C167.79 197.553 169.773 199.391 172.173 200.482C173.659 201.332 175.387 201.657 177.08 201.406C178.773 201.154 180.333 200.34 181.508 199.095C183.9 196.881 185.482 193.928 185.998 190.708C187.376 182.044 187.613 173.237 186.705 164.512C186.573 163.133 186.35 161.765 186.038 160.416C185.432 157.208 183.717 154.315 181.193 152.245C179.502 150.752 177.324 149.928 175.068 149.93C172.813 149.931 170.636 150.757 168.947 152.253C166.875 153.891 165.36 156.131 164.61 158.665C163.871 161.322 163.37 164.04 163.113 166.786C162.862 169.532 163.058 172.318 163.058 175.089V175.088Z" fill="#231F20"/>
<path d="M294.526 202.786C294.526 199.087 294.476 195.391 294.538 191.692C294.703 185.486 292.889 179.389 289.361 174.282C282.334 163.975 275.345 153.641 268.395 143.282C267.414 141.902 266.514 140.466 265.697 138.983C265.029 137.772 264.546 136.468 264.264 135.113C264.036 134.445 263.974 133.732 264.081 133.034C264.189 132.336 264.464 131.674 264.882 131.106C265.301 130.537 265.851 130.078 266.485 129.768C267.119 129.457 267.818 129.305 268.524 129.324C270.826 129.145 273.136 129.088 275.444 129.153C279.141 129.138 282.833 129.158 286.532 129.178C288.39 129.144 290.228 129.562 291.889 130.394C293.551 131.226 294.986 132.447 296.073 133.955C297.657 136.039 299.086 138.241 300.702 140.295C301.993 142.015 303.43 143.62 304.996 145.093C305.358 145.508 305.801 145.844 306.299 146.079C306.796 146.314 307.336 146.443 307.886 146.459C308.436 146.475 308.984 146.377 309.494 146.171C310.004 145.965 310.466 145.655 310.851 145.261C312.749 143.477 314.499 141.54 316.084 139.472C317.855 137.346 319.449 135.072 321.237 132.961C322.263 131.702 323.57 130.7 325.052 130.036C326.534 129.373 328.151 129.065 329.773 129.138C334.854 129.222 339.937 129.153 345.017 129.165C345.787 129.149 346.556 129.188 347.32 129.282C351.679 129.905 353.348 132.921 351.464 136.952C350.701 138.464 349.821 139.914 348.833 141.29C342.203 151.123 335.489 160.896 328.938 170.784C327.023 173.756 325.309 176.853 323.808 180.054C322.628 182.747 322.085 185.676 322.221 188.614C322.28 196.624 322.29 204.638 322.196 212.645C322.146 214.948 321.878 217.24 321.395 219.492C321.157 220.788 320.495 221.968 319.514 222.847C318.532 223.726 317.287 224.254 315.973 224.349C311.131 225.259 306.163 225.276 301.314 224.398C296.975 223.59 295.069 221.95 294.66 217.564C294.461 215.421 294.553 213.256 294.54 211.1C294.513 208.332 294.526 205.559 294.526 202.786Z" fill="#231F20"/>
<path d="M399.616 174.414C399.741 167.02 400.439 159.647 401.704 152.362C402.533 147.616 404.832 143.251 408.277 139.885C409.695 138.471 411.094 137.034 412.529 135.643C415.72 132.481 419.674 130.198 424.006 129.017C429.021 127.485 434.243 126.74 439.486 126.81C442.253 126.929 445.032 126.894 447.802 126.82C452.366 126.744 456.89 127.676 461.053 129.549C465.216 131.423 468.915 134.191 471.887 137.657C479.233 145.696 483.517 156.065 483.987 166.947C484.689 172.754 484.971 178.603 484.83 184.45C484.638 188.905 484.14 193.342 483.34 197.728C482.257 202.715 480.127 207.415 477.09 211.516C474.054 215.617 470.181 219.025 465.728 221.514C463.45 222.804 461.107 223.976 458.709 225.024C458.032 225.399 457.304 225.669 456.547 225.826C450.689 227.071 444.691 227.525 438.712 227.177C437.353 226.919 435.978 226.76 434.596 226.701C429.477 226.651 424.488 225.078 420.265 222.182C416.298 219.811 412.708 216.86 409.613 213.428C404.59 207.305 401.58 199.779 400.995 191.879C400.271 186.092 400.06 180.241 399.616 174.414ZM431.284 175.088C431.284 177.705 431.264 180.32 431.289 182.937C431.374 187.267 432.563 191.503 434.745 195.243C436.016 197.554 438 199.392 440.401 200.482C441.887 201.332 443.615 201.657 445.308 201.405C447.001 201.154 448.561 200.34 449.736 199.095C452.127 196.88 453.708 193.928 454.226 190.708C455.603 182.044 455.839 173.237 454.93 164.512C454.798 163.133 454.576 161.765 454.263 160.416C453.659 157.207 451.943 154.314 449.418 152.245C447.727 150.752 445.549 149.928 443.294 149.93C441.039 149.931 438.861 150.757 437.172 152.253C435.101 153.892 433.587 156.131 432.836 158.665C432.097 161.322 431.595 164.04 431.338 166.786C431.088 169.532 431.284 172.318 431.284 175.089L431.284 175.088Z" fill="#231F20"/>
<path d="M571.845 129.07C580.315 129.07 588.787 129.127 597.254 129.042C598.938 128.817 600.652 129.002 602.25 129.581C603.847 130.161 605.28 131.118 606.428 132.371C607.852 133.894 608.96 135.684 609.687 137.638C610.413 139.592 610.744 141.671 610.661 143.755C610.701 145.084 610.232 146.378 609.351 147.374C608.471 148.37 607.244 148.992 605.92 149.115C604.723 149.343 603.463 149.239 602.243 149.378C599.189 149.723 596.124 150.013 593.102 150.541C591.719 150.762 590.428 151.37 589.378 152.296C588.328 153.223 587.562 154.428 587.171 155.773C586.19 158.699 585.716 161.771 585.767 164.857C585.807 180.568 585.809 196.283 585.772 211.999C585.826 213.847 585.754 215.696 585.557 217.533C584.952 221.941 583.102 223.442 578.766 224.338C573.77 225.293 568.636 225.267 563.651 224.261C562.247 224.224 560.91 223.655 559.909 222.669C558.909 221.683 558.321 220.353 558.263 218.95C558.09 217.265 558.029 215.57 558.082 213.877C558.072 198.16 558.132 182.449 558.02 166.737C557.924 163.665 557.56 160.607 556.932 157.598C556.695 155.816 555.881 154.16 554.614 152.885C553.347 151.609 551.697 150.784 549.917 150.536C546.767 149.846 543.554 149.478 540.329 149.438C533.667 149.596 531.024 145.647 532.97 139.582C533.298 138.558 533.531 137.494 533.952 136.509C534.696 134.295 536.132 132.379 538.048 131.044C539.964 129.709 542.258 129.026 544.591 129.095C548.752 129.092 552.907 129.077 557.065 129.072C561.995 129.07 566.923 129.07 571.85 129.072L571.845 129.07Z" fill="#231F20"/>
<path d="M665.257 176.529C665.257 163.9 665.258 151.27 665.262 138.638C665.262 137.249 665.227 135.86 665.319 134.481C665.297 132.763 665.945 131.104 667.125 129.856C668.306 128.608 669.925 127.869 671.641 127.796C672.713 127.685 673.792 127.644 674.869 127.672C693.964 127.665 713.053 127.774 732.147 127.61C738.985 127.553 742.548 129.706 742.776 138.244C742.8 140.702 742.498 143.151 741.879 145.529C741.811 146.27 741.598 146.99 741.252 147.648C740.906 148.307 740.434 148.89 739.862 149.366C739.291 149.842 738.631 150.2 737.922 150.42C737.212 150.641 736.465 150.72 735.725 150.652C728.053 151.059 720.378 151.387 712.698 151.637C709.009 151.761 705.307 151.642 701.615 151.686C700.385 151.671 699.157 151.792 697.953 152.048C696.608 152.418 695.401 153.173 694.48 154.221C693.558 155.268 692.963 156.563 692.768 157.945C692.653 159.336 692.972 160.729 693.681 161.932C694.39 163.135 695.455 164.087 696.728 164.659C699.346 165.529 702.049 166.115 704.791 166.408C707.067 166.698 709.406 166.443 711.711 166.545C712.938 166.569 714.156 166.76 715.331 167.11C716.23 167.364 717.032 167.885 717.629 168.604C718.227 169.323 718.592 170.205 718.679 171.136C719.187 175.141 718.44 179.206 716.539 182.767C716.083 183.668 715.439 184.461 714.65 185.09C713.862 185.72 712.946 186.172 711.967 186.417C709.734 186.971 707.469 187.388 705.186 187.664C703.668 187.86 702.081 187.592 700.579 187.85C699.071 188.081 697.615 188.574 696.277 189.306C695.049 189.987 694.08 191.055 693.52 192.343C692.959 193.63 692.839 195.067 693.178 196.43C693.388 197.743 694.038 198.945 695.021 199.839C696.004 200.733 697.262 201.265 698.588 201.349C701.912 201.973 705.276 202.356 708.654 202.495C716.504 202.664 724.359 202.649 732.211 202.53C740.542 202.401 742.337 205.462 742.744 212.638C742.751 215.399 742.428 218.152 741.782 220.836C741.57 222.148 740.932 223.353 739.967 224.266C739.001 225.178 737.762 225.747 736.441 225.884C734.789 226.233 733.11 226.442 731.423 226.509C712.944 226.554 694.467 226.552 675.993 226.504C674.151 226.496 672.319 226.225 670.553 225.701C669 225.459 667.595 224.637 666.624 223.401C665.653 222.164 665.186 220.605 665.319 219.038C665.227 217.659 665.262 216.267 665.262 214.88C665.252 202.101 665.25 189.317 665.257 176.529Z" fill="#231F20"/>
</g>
<defs>
<clipPath id="clip0">
<rect width="743" height="229" fill="white"/>
</clipPath>
</defs>
</svg>
