<svg width="247" height="57" viewBox="0 0 247 57" fill="none" xmlns="http://www.w3.org/2000/svg">
<path d="M46.8336 18.2721L44.0876 21.0139L49.5343 26.4535H30.5869V7.53167L36.0337 12.9712L38.7798 10.2288L28.5374 0L18.2956 10.2288L21.0417 12.9712L26.4885 7.53167V26.4535H7.54105L12.9878 21.0139L10.2418 18.2721L0 28.5003L10.2418 38.7285L12.9878 35.9861L7.54164 30.5465H26.4885V49.4689L21.0417 44.0299L18.2956 46.7718L28.5374 57L38.7798 46.7718L36.0337 44.0299L30.5869 49.4689V30.5465H49.5343L44.0876 35.9861L46.8336 38.7285L57.0754 28.5003L46.8336 18.2721Z" fill="#393939"/>
<path d="M67.2061 8.67285H72.1217L84.844 44.1911H86.0006L98.7231 8.67285H103.639L88.892 49.1001H81.9526L67.2061 8.67285Z" fill="#393939"/>
<path d="M107.449 8.67285H112.365V13.5818H107.449V8.67285ZM107.738 20.2238H112.076V49.1001H107.738V20.2238Z" fill="#393939"/>
<path d="M118.997 20.2236H122.756L123.334 23.1114H123.623C124.78 21.4365 125.936 20.2236 129.117 20.2236H134.033V24.2661H129.696C125.59 24.2661 123.334 26.5188 123.334 30.6193V49.0999H118.997V20.2236Z" fill="#393939"/>
<path d="M137.455 8.67285H142.371V13.5818H137.455V8.67285ZM137.744 20.2238H142.081V49.1001H137.744V20.2238Z" fill="#393939"/>
<path d="M170.192 45.0576H169.903C167.59 48.003 164.756 49.6777 160.65 49.6777C153.075 49.6777 147.35 43.6136 147.35 34.6619C147.35 25.7103 153.075 19.6461 160.65 19.6461C164.756 19.6461 167.59 21.3212 169.903 24.2663H170.192V8.67285H174.529V49.1001H170.771L170.192 45.0576ZM170.192 34.6619C170.192 28.0203 165.855 23.6892 160.939 23.6892C156.024 23.6892 151.687 28.0203 151.687 34.6619C151.687 41.3036 156.024 45.6347 160.939 45.6347C165.855 45.6347 170.192 41.3036 170.192 34.6619Z" fill="#393939"/>
<path d="M181.358 8.67285H186.274V13.5818H181.358V8.67285ZM181.647 20.2238H185.985V49.1001H181.647V20.2238Z" fill="#393939"/>
<path d="M210.996 45.6345H210.707C210.147 46.4337 209.44 47.1198 208.625 47.6563C207.179 48.7535 204.982 49.6776 201.743 49.6776C195.671 49.6776 191.623 45.9819 191.623 40.7261C191.623 35.182 195.093 31.4858 203.189 31.4858H210.996V30.6193C210.996 26.2302 208.451 23.6891 204.056 23.6891C199.661 23.6891 197.117 25.999 196.828 28.598H192.491C192.78 23.9777 196.828 19.646 204.056 19.646C211.054 19.646 215.333 23.6312 215.333 30.6193V49.0999H211.574L210.996 45.6345ZM210.996 35.5283H203.189C197.926 35.5283 195.96 37.8962 195.96 40.7261C195.96 43.6716 197.984 45.6345 201.743 45.6345C207.526 45.6345 210.996 42.2275 210.996 36.683V35.5283Z" fill="#393939"/>
<path d="M222.133 20.2235H225.892L226.47 23.4001H226.759C227.362 22.6673 228.086 22.0421 228.899 21.5516C230.844 20.2917 233.115 19.629 235.433 19.6458C242.084 19.6458 246.999 24.5549 246.999 31.7739V49.0997H242.662V31.7739C242.662 27.1535 239.192 23.6889 234.855 23.6889C230.229 23.6889 226.47 27.4426 226.47 31.7739V49.0997H222.133V20.2235Z" fill="#393939"/>
</svg>
