<svg width="365" height="277" viewBox="0 0 365 277" fill="none" xmlns="http://www.w3.org/2000/svg">
<rect width="365" height="277" fill="white"/>
<g clip-path="url(#clip0)">
<path d="M179.687 209.997C178.746 209.997 177.806 209.983 176.866 210C174.904 210.097 172.967 209.534 171.363 208.401C169.759 207.267 168.581 205.629 168.018 203.747C166.684 199.843 165.699 195.844 164.758 191.829C164.149 188.875 162.613 186.191 160.375 184.169C158.983 182.943 157.39 181.967 155.666 181.282C152.674 180.103 149.559 179.261 146.38 178.774C144.359 178.455 142.313 178.298 140.284 178.026C139.65 177.94 139.029 177.777 138.435 177.54C137.648 177.202 137.002 176.603 136.606 175.844C136.21 175.085 136.087 174.213 136.258 173.374C136.566 171.581 136.915 169.794 137.239 168.004C137.669 165.626 138.069 163.242 138.53 160.871C138.75 159.743 139.058 158.63 139.372 157.523C139.822 155.938 140.277 154.353 140.797 152.789C141.738 149.852 142.842 146.97 144.102 144.154C144.76 142.843 145.217 141.44 145.459 139.992C145.623 138.532 145.459 137.054 144.979 135.665C144.269 133.833 143.333 132.097 142.194 130.497C141.012 128.635 140.008 126.666 139.195 124.617C138.575 122.984 137.943 121.355 137.388 119.7C137.023 118.612 136.813 117.474 136.484 116.372C136.01 114.781 135.506 113.197 134.988 111.618C134.151 109.428 133.495 107.172 133.024 104.875C132.896 103.917 132.886 102.946 132.993 101.985C133.092 101.482 133.385 101.037 133.81 100.748C134.234 100.459 134.755 100.349 135.26 100.442C137.223 100.71 139.132 101.281 140.919 102.136C143.5 103.365 146.077 104.602 148.65 105.849C151.158 107.064 153.645 108.323 156.166 109.509C159.613 111.132 163.037 112.808 166.6 114.173C167.357 114.463 168.125 114.727 168.863 115.061C170.175 115.597 171.612 115.749 173.007 115.501C174.896 115.264 176.783 114.996 178.68 114.846C180.886 114.734 183.098 114.912 185.259 115.376C186.417 115.599 187.561 115.894 188.682 116.26C189.769 116.59 190.942 116.49 191.957 115.98C193.515 115.177 194.977 114.202 196.317 113.074C199.77 110.414 203.415 108.014 207.223 105.895C208.248 105.341 209.329 104.892 210.378 104.381C213.992 102.617 217.699 101.047 221.174 98.9949C223.515 97.5732 226.221 96.8695 228.958 96.9711C229.456 96.9484 229.954 96.959 230.45 97.0027C230.896 97.0536 231.32 97.2269 231.674 97.5035C232.19 97.9283 232.569 98.496 232.763 99.1354C232.958 99.7749 232.959 100.458 232.767 101.098C232.224 102.894 231.638 104.676 231.074 106.466C230.378 108.674 229.659 110.877 228.997 113.095C228.047 116.281 227.158 119.485 226.206 122.671C225.388 125.217 224.361 127.691 223.137 130.068C222.382 131.613 221.547 133.12 220.845 134.688C220.289 135.942 220.007 137.301 220.017 138.673C220.029 140.07 220.264 141.455 220.715 142.777C221.459 145.016 222.298 147.229 222.912 149.503C223.63 152.163 224.215 154.863 224.734 157.57C225.068 159.312 225.205 161.094 225.384 162.863C225.593 165 225.943 167.121 226.431 169.212C226.75 170.437 226.969 171.687 227.088 172.947C227.285 175.742 226.317 177.541 223.618 178.386C222.191 178.771 220.737 179.047 219.268 179.212C216.258 179.665 213.239 180.056 210.228 180.503C208.021 180.831 205.792 181.08 203.625 181.588C201.666 181.963 199.848 182.866 198.366 184.2C196.883 185.534 195.794 187.247 195.214 189.155C194.77 190.503 194.453 191.893 194.042 193.253C193.528 194.952 192.973 196.639 192.444 198.334C191.876 200.152 191.322 201.975 190.751 203.792C190.371 205.211 189.733 206.549 188.868 207.737C188.055 208.743 186.913 209.428 185.643 209.672C183.675 209.992 181.678 210.101 179.687 209.997ZM188.295 155.555C188.649 155.581 189.005 155.537 189.343 155.424C189.68 155.312 189.991 155.133 190.259 154.899C191.069 154.268 191.772 153.51 192.341 152.655C192.989 151.754 193.66 150.868 194.335 149.987C194.727 149.476 194.948 149.501 195.275 150.074C195.487 150.445 195.659 150.838 195.88 151.203C197.66 154.149 199.445 157.093 201.235 160.034C201.769 160.908 202.331 161.765 202.892 162.623C203.064 162.939 203.326 163.196 203.646 163.361C203.965 163.527 204.327 163.593 204.684 163.551C205.107 163.498 205.525 163.407 205.932 163.278C206.411 163.105 206.808 162.759 207.043 162.307C207.278 161.855 207.334 161.331 207.201 160.839C207.117 160.552 207.008 160.273 206.874 160.006C205.59 157.55 204.324 155.084 202.998 152.65C201.916 150.665 200.76 148.72 199.635 146.758C199.309 146.19 198.975 145.627 198.644 145.063C198.532 144.887 198.476 144.683 198.482 144.475C198.487 144.267 198.555 144.066 198.675 143.897C200.046 141.582 201.537 139.341 203.143 137.183C203.846 136.359 204.435 135.445 204.894 134.464C205.011 134.158 205.046 133.826 204.997 133.502C204.948 133.178 204.815 132.872 204.612 132.615C204.41 132.357 204.144 132.157 203.84 132.033C203.537 131.909 203.206 131.865 202.881 131.907C202.262 132.012 201.671 132.245 201.147 132.591C200.622 132.937 200.175 133.388 199.835 133.916C198.636 135.526 197.461 137.154 196.269 138.77C195.877 139.303 195.621 139.281 195.306 138.692C194.965 138.052 194.644 137.401 194.305 136.76C194.197 136.501 194.017 136.28 193.786 136.12C193.556 135.961 193.285 135.871 193.005 135.86C191.847 135.817 190.698 136.083 189.676 136.63C189.504 136.703 189.359 136.83 189.263 136.992C189.167 137.153 189.125 137.341 189.143 137.528C189.161 138.067 189.259 138.6 189.434 139.11C189.91 140.202 190.49 141.249 191.029 142.313C191.35 142.946 191.677 143.576 191.997 144.209C192.095 144.385 192.141 144.585 192.129 144.786C192.117 144.987 192.047 145.18 191.928 145.343C191.439 146.059 190.942 146.77 190.438 147.477C190.167 147.859 189.855 148.214 189.605 148.609C189.11 149.39 188.623 150.177 188.175 150.984C187.649 151.928 187.134 152.881 186.678 153.859C186.57 154.039 186.516 154.246 186.519 154.455C186.523 154.665 186.586 154.869 186.699 155.045C186.813 155.221 186.973 155.362 187.162 155.452C187.351 155.542 187.562 155.577 187.77 155.554C187.913 155.559 188.055 155.555 188.295 155.555ZM157.349 156.441C157.349 157.498 157.698 158.04 158.383 158.305C158.68 158.392 158.996 158.383 159.287 158.28C159.579 158.178 159.831 157.987 160.008 157.734C160.131 157.596 160.238 157.444 160.349 157.296C161.284 156.042 162.212 154.781 163.158 153.535C163.562 153.002 163.993 152.489 164.431 151.983C164.739 151.626 164.948 151.629 165.296 151.947C165.403 152.042 165.501 152.146 165.588 152.258C166.412 153.366 167.28 154.446 168.038 155.598C168.667 156.479 169.509 157.186 170.485 157.655C170.6 157.739 170.734 157.794 170.874 157.816C171.015 157.839 171.159 157.828 171.295 157.784C171.43 157.74 171.553 157.664 171.654 157.563C171.755 157.463 171.83 157.339 171.874 157.204C172.102 156.686 172.282 156.147 172.413 155.596C172.479 155.369 172.492 155.129 172.449 154.896C172.406 154.663 172.31 154.443 172.167 154.253C171.105 152.792 170.04 151.332 168.957 149.886C168.582 149.386 168.147 148.932 167.749 148.448C167.636 148.326 167.571 148.168 167.563 148.002C167.556 147.836 167.607 147.672 167.708 147.54C168.235 146.729 168.723 145.889 169.292 145.109C170.886 142.923 172.525 140.772 174.118 138.586C174.721 137.76 175.269 136.891 175.795 136.014C175.981 135.75 176.107 135.45 176.165 135.133C176.222 134.815 176.21 134.49 176.128 134.178C176.1 134.048 176.041 133.926 175.954 133.825C175.868 133.723 175.758 133.645 175.633 133.597C175.509 133.549 175.375 133.533 175.243 133.55C175.111 133.566 174.985 133.616 174.876 133.694C174.658 133.828 174.449 133.978 174.254 134.144C173.67 134.687 173.057 135.197 172.416 135.671C171.281 136.487 170.275 137.468 169.43 138.582C168.078 140.198 166.791 141.868 165.468 143.509C164.965 144.132 164.72 144.116 164.278 143.446C163.564 142.365 162.869 141.272 162.155 140.192C161.426 139.088 160.689 137.985 159.151 137.963C158.938 137.954 158.725 137.932 158.515 137.896C158.269 137.838 158.012 137.86 157.78 137.958C157.548 138.056 157.354 138.225 157.225 138.441C157.079 138.656 157.003 138.909 157.006 139.168C157.009 139.427 157.091 139.678 157.242 139.889C157.434 140.188 157.654 140.47 157.84 140.773C159.141 142.897 160.42 145.033 161.743 147.143C161.915 147.353 162.007 147.616 162.003 147.888C161.999 148.159 161.899 148.42 161.721 148.624C161.607 148.769 161.514 148.931 161.409 149.083C159.968 150.973 158.748 153.022 157.773 155.189C157.584 155.675 157.438 156.177 157.349 156.441Z" fill="#231F20"/>
</g>
<defs>
<clipPath id="clip0">
<rect width="100" height="113.042" fill="white" transform="translate(133 97)"/>
</clipPath>
</defs>
</svg>
