<svg width="950" height="207" viewBox="0 0 950 207" fill="none" xmlns="http://www.w3.org/2000/svg">
<path d="M287.417 55.9452C297.508 55.9452 305.93 59.4145 312.68 66.3531C319.428 73.2934 322.803 82.882 322.804 95.119V153.218H294.419V99.2824C294.419 93.7325 292.874 89.4744 289.783 86.5081C286.69 83.5449 282.747 82.0624 277.955 82.0606C272.53 82.0606 268.24 83.7008 265.087 86.9811C261.932 90.2636 260.355 95.1212 260.357 101.554V153.218H231.972V20.7446H260.357V67.4894C266.034 59.7946 275.054 55.9465 287.417 55.9452Z" fill="#393939"/>
<path d="M398.44 58.5952H426.825V153.218H398.44V144.323C392.762 152.021 383.742 155.869 371.38 155.868C361.285 155.868 352.864 152.398 346.117 145.458C339.366 138.522 335.991 128.934 335.992 116.694V58.5952H364.377V112.53C364.377 118.083 365.923 122.341 369.013 125.305C372.103 128.271 376.045 129.753 380.841 129.751C386.264 129.751 390.553 128.111 393.708 124.832C396.86 121.552 398.437 116.694 398.44 110.259V58.5952Z" fill="#393939"/>
<path d="M547.764 55.9468C558.613 55.9468 567.318 59.5108 573.879 66.6387C580.437 73.768 583.717 83.2619 583.718 95.1205V153.219H555.333V97.5808C555.333 92.7867 554.167 89.0016 551.833 86.2256C549.497 83.4526 546.122 82.0648 541.709 82.0622C537.04 82.0622 533.413 83.6394 530.827 86.7937C528.241 89.9485 526.948 94.3009 526.948 99.8508V153.219H498.563V97.5808C498.563 92.7867 497.396 89.0016 495.062 86.2256C492.727 83.4526 489.352 82.0648 484.937 82.0622C480.269 82.0622 476.642 83.6394 474.057 86.7937C471.469 89.9485 470.176 94.3009 470.178 99.8508V153.219H441.793V58.596H470.178V67.3007C475.35 59.731 483.802 55.9463 495.535 55.9468C506.51 55.9468 514.774 60.1102 520.325 68.437C526.126 60.1102 535.272 55.9468 547.764 55.9468Z" fill="#393939"/>
<path d="M666.055 58.596H694.44V153.219H666.055V144.324C659.366 152.022 649.967 155.87 637.858 155.868C625.369 155.868 614.709 151.043 605.878 141.391C597.046 131.739 592.631 119.911 592.632 105.908C592.632 91.9032 597.047 80.0754 605.878 70.4242C614.708 60.7722 625.368 55.9463 637.858 55.9468C649.97 55.9468 659.369 59.7948 666.055 67.4909V58.596ZM627.262 122.75C631.425 126.914 636.85 128.995 643.536 128.996C650.222 128.996 655.646 126.914 659.81 122.75C663.974 118.587 666.055 112.973 666.055 105.908C666.055 98.8435 663.973 93.2293 659.81 89.065C655.647 84.9003 650.222 82.8184 643.536 82.8193C636.847 82.8193 631.423 84.9012 627.262 89.065C623.099 93.2284 621.017 98.8426 621.017 105.908C621.017 112.974 623.099 118.588 627.262 122.75Z" fill="#393939"/>
<path d="M764.852 55.9468C774.944 55.9468 783.365 59.4161 790.115 66.3546C796.863 73.2949 800.238 82.8836 800.24 95.1205V153.219H771.855V99.2839C771.855 93.734 770.309 89.4759 767.218 86.5097C764.125 83.5464 760.182 82.0639 755.391 82.0622C749.965 82.0622 745.676 83.7023 742.522 86.9827C739.368 90.2652 737.791 95.1227 737.792 101.555V153.219H709.407V58.596H737.792V67.4909C743.47 59.7961 752.489 55.9481 764.852 55.9468Z" fill="#393939"/>
<path d="M815.208 153.218V20.7446H843.593V153.218H815.208Z" fill="#393939"/>
<path d="M177.267 98.5912L116.854 0L96.2227 33.6688C103.543 42.3424 107.972 53.0857 108.891 64.3984C109.81 75.7112 107.173 87.0285 101.349 96.7701C100.978 97.39 100.573 97.9872 100.178 98.5912L177.267 98.5912Z" fill="#D19583"/>
<path d="M96.2194 33.6694C95.5611 32.8892 94.8887 32.1213 94.1885 31.3796C84.2453 20.8433 70.1622 14.2578 54.5333 14.2578C24.4152 14.2578 0 38.675 0 68.7948C0 98.914 24.4152 123.331 54.5333 123.331C73.6475 123.331 90.4383 113.478 100.175 98.5918H56.437L96.2194 33.6694Z" fill="#AEC0C7"/>
<path d="M109.068 68.7948C109.082 55.934 104.529 43.4861 96.2209 33.6694L56.4385 98.5918H100.176C100.571 97.9878 100.976 97.3906 101.347 96.7707C106.412 88.3191 109.081 78.6481 109.068 68.7948Z" fill="#BF8373"/>
<path d="M141.524 129.756C137.445 155.596 115.025 175.421 88.0575 175.421C61.0895 175.421 38.6696 155.596 34.5912 129.756H2.76953C7.03733 173.057 43.6553 206.999 88.0575 206.999C132.46 206.999 169.078 173.057 173.345 129.756H141.524Z" fill="#393939"/>
<path d="M921.614 58.7432V110.407C921.614 116.842 920.037 121.699 916.882 124.98C913.728 128.261 909.439 129.901 904.015 129.899C899.219 129.899 895.276 128.417 892.187 125.453C889.095 122.489 887.55 118.231 887.551 112.678V58.7432H859.166V116.842C859.166 129.081 862.541 138.669 869.291 145.606C876.038 152.547 884.459 156.016 894.554 156.016C905.57 156.016 913.651 154.288 921.614 147.966V159.591C921.614 170.096 913.093 178.643 902.588 178.643C892.766 178.643 884.66 171.168 883.648 161.609H855.236C856.298 186.816 877.127 206.998 902.588 206.998C928.321 206.998 949.352 186.395 949.999 160.813V58.7432H921.614Z" fill="#393939"/>
</svg>
