<svg width="1351" height="807" viewBox="0 0 1351 807" fill="none" xmlns="http://www.w3.org/2000/svg">
<path d="M632.5 409C612.425 409 592.802 403.106 576.11 392.063C559.418 381.019 546.409 365.324 538.726 346.96C531.044 328.596 529.034 308.388 532.95 288.893C536.867 269.398 546.534 251.491 560.729 237.436C574.924 223.381 593.009 213.809 612.698 209.931C632.387 206.053 652.796 208.044 671.342 215.65C689.889 223.257 705.741 236.138 716.894 252.665C728.047 269.192 734 288.623 734 308.5C733.97 335.145 723.266 360.69 704.238 379.531C685.209 398.372 659.41 408.97 632.5 409V409ZM632.5 263.33C623.478 263.33 614.658 265.98 607.156 270.943C599.654 275.906 593.806 282.961 590.353 291.215C586.901 299.468 585.998 308.55 587.758 317.312C589.518 326.074 593.863 334.123 600.243 340.44C606.623 346.757 614.751 351.059 623.601 352.802C632.45 354.545 641.623 353.65 649.958 350.231C658.294 346.813 665.419 341.023 670.432 333.595C675.444 326.167 678.12 317.434 678.12 308.5C678.106 296.524 673.295 285.043 664.742 276.575C656.19 268.107 644.595 263.344 632.5 263.33Z" fill="#393939"/>
<path d="M146.798 2.45436C166.143 6.36517 184.468 10.6692 199.352 24.248C224.728 47.3988 228.369 89.6222 207.224 117.747C197.413 130.797 184.324 132.184 170.137 130.358C148.677 127.595 148.506 127.632 149.435 149.873C149.863 160.112 151.121 170.299 151.953 180.516C152.652 189.109 149.755 194.01 140.515 194.038C120.028 194.102 99.5345 194.71 79.0438 194.998C71.5123 195.104 68.0095 191.302 68.6092 183.208C69.6613 169.008 70.3391 154.785 71.3255 140.581C71.9362 131.787 68.6093 128.165 59.9868 130.105C39.5888 134.694 20.3471 135.836 8.93005 112.617C-4.39566 85.5165 -3.14901 54.8206 14.9757 34.8834C23.8641 25.1064 35.4975 16.4578 47.4447 11.5699C79.7739 -1.65691 113.612 -1.74242 146.798 2.45436Z" fill="#393939"/>
<path d="M146.798 210.454C166.143 214.365 184.468 218.669 199.352 232.248C224.728 255.399 228.369 297.622 207.224 325.747C197.413 338.797 184.324 340.184 170.137 338.358C148.677 335.595 148.506 335.632 149.435 357.873C149.863 368.112 151.121 378.299 151.953 388.516C152.652 397.109 149.755 402.01 140.515 402.038C120.028 402.102 99.5345 402.71 79.0438 402.998C71.5123 403.104 68.0095 399.302 68.6092 391.208C69.6613 377.008 70.3391 362.785 71.3255 348.581C71.9362 339.787 68.6093 336.165 59.9868 338.105C39.5888 342.694 20.3471 343.836 8.93005 320.617C-4.39566 293.516 -3.14901 262.821 14.9757 242.883C23.864 233.106 35.4975 224.458 47.4447 219.57C79.7739 206.343 113.612 206.258 146.798 210.454Z" fill="#393939"/>
<path d="M632.524 195.167C613.038 195.167 593.99 189.444 577.788 178.722C561.585 167.999 548.957 152.759 541.5 134.927C534.043 117.096 532.091 97.4755 535.893 78.5461C539.695 59.6168 549.079 42.2289 562.858 28.5816C576.636 14.9343 594.192 5.64037 613.304 1.87508C632.415 -1.8902 652.225 0.042285 670.227 7.42816C688.23 14.814 703.618 27.3216 714.444 43.3692C725.27 59.4167 731.048 78.2836 731.048 97.5839C731.019 123.456 720.629 148.259 702.158 166.554C683.688 184.848 658.645 195.138 632.524 195.167V195.167ZM632.524 12.1404C615.462 12.1404 598.784 17.1515 584.597 26.5401C570.411 35.9287 559.353 49.2732 552.824 64.8859C546.294 80.4987 544.586 97.6786 547.915 114.253C551.243 130.827 559.46 146.052 571.525 158.001C583.589 169.951 598.961 178.089 615.695 181.386C632.429 184.682 649.774 182.99 665.537 176.523C681.3 170.056 694.773 159.105 704.252 145.054C713.731 131.003 718.791 114.483 718.791 97.5839C718.765 74.9307 709.668 53.2127 693.496 37.1946C677.323 21.1764 655.396 12.1661 632.524 12.1404V12.1404Z" fill="#393939"/>
<path d="M632.519 179.55C616.149 179.55 600.148 174.743 586.537 165.735C572.927 156.728 562.318 143.925 556.054 128.946C549.789 113.967 548.151 97.485 551.344 81.5835C554.538 65.682 562.42 51.0754 573.995 39.611C585.57 28.1466 600.317 20.3393 616.372 17.1763C632.426 14.0132 649.068 15.6366 664.191 21.841C679.314 28.0454 692.24 38.5524 701.334 52.033C710.428 65.5137 715.283 81.3627 715.283 97.5758C715.258 119.309 706.53 140.145 691.014 155.513C675.498 170.881 654.462 179.526 632.519 179.55V179.55ZM632.519 27.7414C618.574 27.7413 604.942 31.8368 593.347 39.5103C581.752 47.1837 572.715 58.0905 567.378 70.851C562.042 83.6116 560.645 97.653 563.366 111.2C566.086 124.746 572.801 137.189 582.662 146.956C592.523 156.722 605.086 163.374 618.763 166.068C632.44 168.763 646.617 167.38 659.5 162.094C672.384 156.809 683.395 147.858 691.143 136.374C698.89 124.89 703.026 111.388 703.026 97.5758C703.004 79.0611 695.569 61.3106 682.351 48.2186C669.133 35.1267 651.212 27.7625 632.519 27.7414Z" fill="#393939"/>
<path d="M632.524 163.94C619.272 163.939 606.317 160.047 595.298 152.755C584.279 145.462 575.691 135.098 570.62 122.971C565.548 110.844 564.222 97.5004 566.807 84.6268C569.393 71.7532 575.774 59.928 585.145 50.6467C594.516 41.3654 606.455 35.0449 619.452 32.4842C632.45 29.9235 645.923 31.2377 658.166 36.2608C670.41 41.2839 680.874 49.7901 688.237 60.7038C695.599 71.6175 699.529 84.4487 699.529 97.5745C699.509 115.17 692.443 132.038 679.882 144.48C667.32 156.921 650.289 163.92 632.524 163.94ZM632.524 43.3492C621.696 43.3493 611.111 46.5295 602.108 52.4878C593.105 58.4462 586.087 66.915 581.944 76.8233C577.8 86.7316 576.716 97.6344 578.829 108.153C580.941 118.672 586.155 128.334 593.812 135.917C601.468 143.501 611.224 148.665 621.843 150.757C632.463 152.85 643.471 151.776 653.475 147.672C663.478 143.567 672.029 136.617 678.045 127.7C684.06 118.783 687.272 108.299 687.272 97.5745C687.255 83.198 681.482 69.4149 671.218 59.2492C660.954 49.0835 647.039 43.3654 632.524 43.3492V43.3492Z" fill="#393939"/>
<path d="M632.524 148.328C622.389 148.328 612.481 145.351 604.054 139.774C595.627 134.197 589.059 126.27 585.18 116.996C581.301 107.721 580.287 97.5157 582.264 87.67C584.241 77.8243 589.121 68.7805 596.288 61.6822C603.455 54.5838 612.586 49.7496 622.526 47.7912C632.467 45.8328 642.771 46.8379 652.134 50.6795C661.498 54.5211 669.502 61.0267 675.133 69.3735C680.764 77.7202 683.769 87.5335 683.769 97.5721C683.754 111.029 678.35 123.93 668.743 133.445C659.136 142.961 646.11 148.313 632.524 148.328V148.328ZM632.524 58.9563C624.813 58.9563 617.275 61.2209 610.863 65.4641C604.452 69.7072 599.455 75.7382 596.504 82.7943C593.553 89.8504 592.781 97.6149 594.286 105.106C595.79 112.596 599.503 119.477 604.956 124.877C610.408 130.278 617.355 133.956 624.918 135.446C632.481 136.936 640.32 136.171 647.444 133.248C654.568 130.325 660.657 125.376 664.941 119.026C669.225 112.675 671.512 105.209 671.512 97.5718C671.5 87.3339 667.389 77.5187 660.079 70.2794C652.77 63.04 642.861 58.9679 632.524 58.9563V58.9563Z" fill="#393939"/>
<path d="M632.527 132.744C625.509 132.744 618.648 130.682 612.812 126.82C606.977 122.958 602.428 117.469 599.742 111.047C597.056 104.625 596.354 97.5579 597.723 90.7401C599.092 83.9222 602.472 77.6596 607.435 72.7442C612.397 67.8288 618.72 64.4812 625.604 63.125C632.487 61.7689 639.622 62.465 646.107 65.1252C652.591 67.7854 658.132 72.2901 662.032 78.07C665.931 83.8498 668.012 90.6453 668.012 97.5967C668.002 106.915 664.26 115.848 657.607 122.438C650.955 129.027 641.935 132.733 632.527 132.744ZM632.527 74.59C627.933 74.5899 623.442 75.9392 619.622 78.4671C615.802 80.9951 612.825 84.5881 611.067 88.7921C609.309 92.996 608.848 97.6219 609.744 102.085C610.641 106.548 612.853 110.647 616.102 113.865C619.35 117.082 623.489 119.273 627.995 120.161C632.501 121.049 637.171 120.593 641.416 118.852C645.66 117.111 649.288 114.162 651.84 110.379C654.393 106.595 655.755 102.147 655.755 97.5967C655.748 91.4971 653.298 85.6492 648.944 81.3361C644.589 77.023 638.685 74.597 632.527 74.59V74.59Z" fill="#393939"/>
<path d="M632.519 117.127C628.617 117.127 624.804 115.981 621.56 113.834C618.316 111.687 615.788 108.636 614.295 105.066C612.802 101.496 612.411 97.5674 613.172 93.7775C613.933 89.9876 615.812 86.5062 618.571 83.7739C621.33 81.0415 624.844 79.181 628.671 78.4272C632.497 77.6733 636.464 78.0602 640.068 79.539C643.672 81.0178 646.753 83.522 648.92 86.7349C651.087 89.9479 652.245 93.7254 652.245 97.5896C652.239 102.769 650.158 107.736 646.46 111.398C642.762 115.061 637.748 117.121 632.519 117.127V117.127ZM632.519 90.192C631.041 90.192 629.597 90.6258 628.369 91.4387C627.141 92.2515 626.184 93.4068 625.618 94.7585C625.053 96.1102 624.905 97.5975 625.194 99.0324C625.482 100.467 626.193 101.786 627.238 102.82C628.282 103.855 629.613 104.559 631.062 104.844C632.511 105.13 634.012 104.983 635.377 104.423C636.741 103.864 637.908 102.916 638.729 101.699C639.549 100.483 639.987 99.0526 639.988 97.5896C639.985 95.6283 639.198 93.7478 637.798 92.3609C636.397 90.9741 634.499 90.1942 632.519 90.192V90.192Z" fill="#393939"/>
<path d="M300.697 7H270.304L241 96H330L300.697 7Z" fill="#393939"/>
<path d="M1041.3 416H1071.7L1101 505H1012L1041.3 416Z" fill="#393939"/>
<path d="M300.697 107H270.304L241 196H330L300.697 107Z" fill="#393939"/>
<path d="M1041.3 516H1071.7L1101 605H1012L1041.3 516Z" fill="#393939"/>
<path d="M300.697 208H270.304L241 297H330L300.697 208Z" fill="#393939"/>
<path d="M1041.3 617H1071.7L1101 706H1012L1041.3 617Z" fill="#393939"/>
<path d="M300.697 309H270.304L241 398H330L300.697 309Z" fill="#393939"/>
<path d="M1041.3 718H1071.7L1101 807H1012L1041.3 718Z" fill="#393939"/>
<path d="M398.697 7H368.304L339 96H428L398.697 7Z" fill="#393939"/>
<path d="M943.303 416H973.696L1003 505H914L943.303 416Z" fill="#393939"/>
<path d="M398.697 107H368.304L339 196H428L398.697 107Z" fill="#393939"/>
<path d="M943.303 516H973.696L1003 605H914L943.303 516Z" fill="#393939"/>
<path d="M398.697 208H368.304L339 297H428L398.697 208Z" fill="#393939"/>
<path d="M943.303 617H973.696L1003 706H914L943.303 617Z" fill="#393939"/>
<path d="M398.697 309H368.304L339 398H428L398.697 309Z" fill="#393939"/>
<path d="M943.303 718H973.696L1003 807H914L943.303 718Z" fill="#393939"/>
<path d="M494.697 7H464.304L435 96H524L494.697 7Z" fill="#393939"/>
<path d="M847.303 416H877.696L907 505H818L847.303 416Z" fill="#393939"/>
<path d="M494.697 107H464.304L435 196H524L494.697 107Z" fill="#393939"/>
<path d="M847.303 516H877.696L907 605H818L847.303 516Z" fill="#393939"/>
<path d="M494.697 208H464.304L435 297H524L494.697 208Z" fill="#393939"/>
<path d="M847.303 617H877.696L907 706H818L847.303 617Z" fill="#393939"/>
<path d="M494.697 309H464.304L435 398H524L494.697 309Z" fill="#393939"/>
<path d="M847.303 718H877.696L907 807H818L847.303 718Z" fill="#393939"/>
<path d="M1317 682.466C1317 677.435 1315.91 672.464 1313.82 667.892C1311.72 663.319 1308.67 659.252 1304.87 655.968C1301.06 652.684 1296.6 650.259 1291.77 648.859C1286.95 647.459 1281.88 647.117 1276.91 647.855C1273.85 641.641 1268.67 636.721 1262.32 633.976C1255.97 631.231 1248.84 630.839 1242.23 632.871C1237.88 626.508 1231.63 621.689 1224.38 619.106C1217.13 616.523 1209.25 616.309 1201.87 618.494C1194.49 620.679 1187.99 625.152 1183.31 631.269C1178.62 637.386 1175.99 644.833 1175.8 652.54C1168.09 653.919 1161.06 657.855 1155.85 663.714C1150.64 669.574 1147.55 677.017 1147.07 684.849C1146.59 692.681 1148.75 700.447 1153.21 706.901C1157.66 713.355 1164.15 718.121 1171.64 720.435C1171.64 720.952 1171.64 721.46 1171.64 721.985C1171.64 726.794 1172.85 731.525 1175.15 735.745C1177.45 739.965 1180.77 743.539 1184.81 746.14C1188.85 748.741 1193.47 750.285 1198.26 750.631C1203.05 750.977 1207.85 750.115 1212.21 748.122C1212.98 750.698 1213.43 753.358 1213.55 756.044C1213.55 766.723 1211.12 781.63 1209.87 793.996C1209.58 796.281 1210.12 798.593 1211.38 800.52C1212.64 802.446 1214.54 803.861 1216.75 804.511C1229.18 807.821 1242.25 807.821 1254.68 804.511C1256.77 803.88 1258.58 802.561 1259.82 800.769C1261.06 798.978 1261.66 796.818 1261.52 794.642C1261.01 782.405 1260.28 766.49 1260.28 753.306C1260.3 751.301 1260.5 749.302 1260.86 747.329C1265.6 750.707 1271.36 752.359 1277.17 752.012C1282.98 751.665 1288.5 749.34 1292.81 745.421C1297.13 741.503 1299.97 736.226 1300.89 730.465C1301.8 724.704 1300.71 718.805 1297.82 713.744C1303.6 710.822 1308.45 706.35 1311.84 700.827C1315.22 695.305 1317.01 688.947 1317 682.466V682.466Z" fill="#393939"/>
<path d="M1317 479.466C1317 474.435 1315.91 469.464 1313.82 464.892C1311.72 460.319 1308.67 456.252 1304.87 452.968C1301.06 449.684 1296.6 447.259 1291.77 445.859C1286.95 444.459 1281.88 444.117 1276.91 444.855C1273.85 438.641 1268.67 433.721 1262.32 430.976C1255.97 428.231 1248.84 427.839 1242.23 429.871C1237.88 423.508 1231.63 418.689 1224.38 416.106C1217.13 413.523 1209.25 413.309 1201.87 415.494C1194.49 417.679 1187.99 422.152 1183.31 428.269C1178.62 434.386 1175.99 441.833 1175.8 449.54C1168.09 450.919 1161.06 454.855 1155.85 460.714C1150.64 466.574 1147.55 474.017 1147.07 481.849C1146.59 489.681 1148.75 497.447 1153.21 503.901C1157.66 510.355 1164.15 515.121 1171.64 517.435C1171.64 517.952 1171.64 518.46 1171.64 518.985C1171.64 523.794 1172.85 528.525 1175.15 532.745C1177.45 536.965 1180.77 540.539 1184.81 543.14C1188.85 545.741 1193.47 547.285 1198.26 547.631C1203.05 547.977 1207.85 547.115 1212.21 545.122C1212.98 547.698 1213.43 550.358 1213.55 553.044C1213.55 563.723 1211.12 578.63 1209.87 590.996C1209.58 593.281 1210.12 595.593 1211.38 597.52C1212.64 599.446 1214.54 600.861 1216.75 601.511C1229.18 604.821 1242.25 604.821 1254.68 601.511C1256.77 600.88 1258.58 599.561 1259.82 597.769C1261.06 595.978 1261.66 593.818 1261.52 591.642C1261.01 579.405 1260.28 563.49 1260.28 550.306C1260.3 548.301 1260.5 546.302 1260.86 544.329C1265.6 547.707 1271.36 549.359 1277.17 549.012C1282.98 548.665 1288.5 546.34 1292.81 542.421C1297.13 538.503 1299.97 533.226 1300.89 527.465C1301.8 521.704 1300.71 515.805 1297.82 510.744C1303.6 507.822 1308.45 503.35 1311.84 497.827C1315.22 492.305 1317.01 485.947 1317 479.466V479.466Z" fill="#393939"/>
<path d="M627.045 531.005C627.045 490.692 659.479 416 699.545 416C739.61 416 772.045 490.692 772.045 531.005C772.045 550.364 764.407 568.931 750.81 582.62C737.214 596.31 718.773 604 699.545 604C680.316 604 661.876 596.31 648.28 582.62C634.683 568.931 627.045 550.364 627.045 531.005Z" fill="#393939"/>
<path d="M627.045 734.005C627.045 693.692 659.479 619 699.545 619C739.61 619 772.045 693.692 772.045 734.005C772.045 753.364 764.407 771.931 750.81 785.62C737.214 799.31 718.773 807 699.545 807C680.316 807 661.876 799.31 648.28 785.62C634.683 771.931 627.045 753.364 627.045 734.005Z" fill="#393939"/>
<path d="M456.266 722.886L585.21 648.44L585.21 797.328L456.266 722.886Z" fill="#393939"/>
<path d="M128.941 509.117L0.00195312 583.559L0.00196614 434.67L128.941 509.117Z" fill="#393939"/>
<path d="M128.941 509.197C376.208 319.754 590.244 509.197 590.244 509.197L590.244 509.037C342.978 698.48 128.941 509.037 128.941 509.037" fill="#393939"/>
<path d="M0.00196047 722.963C247.268 533.52 461.305 722.963 461.305 722.963L461.305 722.803C214.038 912.246 0.00196049 722.803 0.00196049 722.803" fill="#393939"/>
<path d="M1216.26 297.886L1345.21 223.44L1345.21 372.328L1216.26 297.886Z" fill="#393939"/>
<path d="M888.94 84.1173L760 158.559L760 9.67045L888.94 84.1173Z" fill="#393939"/>
<path d="M888.939 84.1971C1136.21 -105.246 1350.24 84.1971 1350.24 84.1971L1350.24 84.0371C1102.98 273.48 888.939 84.037 888.939 84.037" fill="#393939"/>
<path d="M760 297.963C1007.27 108.52 1221.3 297.963 1221.3 297.963L1221.3 297.803C974.036 487.246 760 297.803 760 297.803" fill="#393939"/>
</svg>
