<svg width="65" height="92" viewBox="0 0 65 92" fill="none" xmlns="http://www.w3.org/2000/svg">
<path d="M15.4356 90.8925C12.5407 90.8925 9.71088 90.0422 7.30388 88.4493C4.89689 86.8563 3.0208 84.5922 1.91299 81.9432C0.805165 79.2942 0.515317 76.3794 1.08007 73.5672C1.64483 70.7551 3.03884 68.172 5.08582 66.1446C7.13279 64.1171 9.74076 62.7364 12.58 62.177C15.4192 61.6176 18.3623 61.9047 21.0368 63.002C23.7113 64.0992 25.9973 65.9573 27.6056 68.3414C29.2139 70.7254 30.0723 73.5282 30.0723 76.3954C30.0679 80.239 28.5244 83.9238 25.7804 86.6416C23.0365 89.3594 19.3161 90.8882 15.4356 90.8925ZM15.4356 69.8798C14.1345 69.8798 12.8626 70.2619 11.7808 70.9779C10.6989 71.6939 9.85574 72.7115 9.35784 73.9021C8.85994 75.0927 8.72974 76.4027 8.98358 77.6666C9.23742 78.9305 9.86398 80.0915 10.784 81.0028C11.704 81.914 12.8761 82.5346 14.1522 82.786C15.4283 83.0374 16.7511 82.9083 17.9531 82.4152C19.1552 81.922 20.1826 81.0869 20.9054 80.0154C21.6283 78.9439 22.0141 77.6841 22.0141 76.3954C22.0121 74.668 21.3183 73.0118 20.085 71.7903C18.8517 70.5688 17.1797 69.8817 15.4356 69.8798Z" fill="#393939"/>
<path d="M48.2527 29.4017C56.3972 29.4017 62.9996 22.8624 62.9996 14.7956C62.9996 6.72885 56.3972 0.189453 48.2527 0.189453C40.1083 0.189453 33.5059 6.72885 33.5059 14.7956C33.5059 22.8624 40.1083 29.4017 48.2527 29.4017Z" fill="#393939"/>
<path d="M53.1417 31.3691C56.0595 31.9571 58.8235 32.6043 61.0684 34.6462C64.8958 38.1274 65.4451 44.4766 62.2558 48.7058C60.7759 50.6682 58.8018 50.8767 56.6619 50.6021C53.4251 50.1867 53.3993 50.1921 53.5394 53.5366C53.6039 55.0763 53.7937 56.6081 53.9191 58.1443C54.0246 59.4365 53.5877 60.1735 52.194 60.1778C49.1039 60.1874 46.0128 60.2788 42.9222 60.3221C41.7862 60.338 41.2579 59.7664 41.3484 58.5492C41.507 56.414 41.6093 54.2752 41.7581 52.1393C41.8502 50.817 41.3484 50.2723 40.0478 50.564C36.9712 51.2541 34.069 51.4259 32.3469 47.9344C30.337 43.8592 30.525 39.2434 33.2588 36.2455C34.5994 34.7753 36.3541 33.4748 38.1561 32.7398C43.0323 30.7508 48.1361 30.738 53.1417 31.3691Z" fill="#393939"/>
<path d="M48.2537 91.1473C45.3836 91.1473 42.578 90.3043 40.1916 88.725C37.8052 87.1457 35.9452 84.9009 34.8469 82.2746C33.7485 79.6483 33.4611 76.7584 34.021 73.9703C34.5809 71.1822 35.9631 68.6212 37.9926 66.6111C40.022 64.601 42.6077 63.2321 45.4227 62.6775C48.2376 62.123 51.1553 62.4076 53.8069 63.4954C56.4585 64.5833 58.7249 66.4255 60.3195 68.7891C61.914 71.1528 62.7651 73.9316 62.7651 76.7743C62.7607 80.5849 61.2304 84.2383 58.51 86.9328C55.7895 89.6273 52.101 91.143 48.2537 91.1473ZM48.2537 64.1895C45.7406 64.1895 43.284 64.9276 41.1945 66.3104C39.105 67.6933 37.4764 69.6587 36.5147 71.9583C35.553 74.2579 35.3014 76.7883 35.7917 79.2295C36.2819 81.6707 37.4921 83.9131 39.2691 85.6731C41.0461 87.4331 43.3101 88.6318 45.7749 89.1173C48.2396 89.6029 50.7943 89.3537 53.116 88.4012C55.4378 87.4487 57.4222 85.8356 58.8184 83.7661C60.2145 81.6965 60.9597 79.2634 60.9597 76.7743C60.9559 73.4378 59.6161 70.239 57.234 67.8797C54.852 65.5204 51.6224 64.1933 48.2537 64.1895Z" fill="#393939"/>
<path d="M48.2528 88.847C45.8418 88.847 43.485 88.1389 41.4803 86.8122C39.4756 85.4855 37.9131 83.5999 36.9904 81.3936C36.0677 79.1874 35.8264 76.7598 36.2967 74.4177C36.7671 72.0756 37.9281 69.9242 39.6329 68.2356C41.3378 66.547 43.5099 65.3971 45.8745 64.9312C48.2392 64.4653 50.6903 64.7044 52.9178 65.6183C55.1452 66.5321 57.049 68.0797 58.3885 70.0652C59.728 72.0508 60.443 74.3851 60.443 76.7731C60.4393 79.9742 59.1538 83.0431 56.8685 85.3066C54.5832 87.5702 51.4847 88.8434 48.2528 88.847ZM48.2528 66.4874C46.1989 66.4873 44.191 67.0906 42.4832 68.2208C40.7754 69.351 39.4444 70.9574 38.6584 72.8369C37.8723 74.7164 37.6667 76.7845 38.0674 78.7798C38.4681 80.775 39.4571 82.6077 40.9095 84.0462C42.3618 85.4847 44.2122 86.4644 46.2267 86.8613C48.2412 87.2582 50.3293 87.0545 52.2269 86.276C54.1245 85.4975 55.7463 84.1791 56.8874 82.4876C58.0285 80.7961 58.6376 78.8075 58.6376 76.7731C58.6345 74.0461 57.5394 71.4317 55.5926 69.5034C53.6457 67.5751 51.0061 66.4905 48.2528 66.4874Z" fill="#393939"/>
<path d="M48.2537 86.5477C46.3018 86.5477 44.3937 85.9744 42.7707 84.9003C41.1478 83.8262 39.8829 82.2996 39.136 80.5135C38.389 78.7274 38.1936 76.762 38.5744 74.8659C38.9552 72.9697 39.8951 71.228 41.2753 69.861C42.6556 68.494 44.414 67.563 46.3284 67.1859C48.2428 66.8087 50.2272 67.0023 52.0305 67.7421C53.8338 68.482 55.3752 69.7348 56.4596 71.3423C57.544 72.9498 58.1228 74.8396 58.1228 76.7729C58.1198 79.3645 57.0791 81.849 55.229 83.6815C53.3788 85.514 50.8703 86.5448 48.2537 86.5477ZM48.2537 68.7862C46.6589 68.7862 45.0999 69.2546 43.7738 70.1322C42.4478 71.0098 41.4141 72.2571 40.8038 73.7165C40.1935 75.1759 40.0339 76.7817 40.3451 78.331C40.6562 79.8803 41.4242 81.3034 42.5519 82.4203C43.6796 83.5373 45.1164 84.2979 46.6806 84.6061C48.2448 84.9143 49.8661 84.7561 51.3395 84.1516C52.813 83.5471 54.0723 82.5235 54.9584 81.2101C55.8444 79.8967 56.3174 78.3525 56.3174 76.7729C56.315 74.6554 55.4646 72.6253 53.9529 71.128C52.4412 69.6308 50.3916 68.7886 48.2537 68.7862Z" fill="#393939"/>
<path d="M48.2548 84.2484C46.762 84.2484 45.3027 83.81 44.0615 82.9885C42.8202 82.1671 41.8528 80.9995 41.2816 79.6335C40.7103 78.2675 40.5608 76.7644 40.8521 75.3142C41.1433 73.8641 41.862 72.532 42.9176 71.4865C43.9732 70.441 45.3181 69.729 46.7822 69.4405C48.2463 69.1521 49.764 69.3001 51.1432 69.8659C52.5223 70.4318 53.7012 71.39 54.5306 72.6193C55.3599 73.8487 55.8026 75.2941 55.8026 76.7727C55.8003 78.7547 55.0044 80.6549 53.5894 82.0564C52.1744 83.4579 50.2559 84.2462 48.2548 84.2484ZM48.2548 71.085C47.119 71.085 46.0088 71.4186 45.0644 72.0435C44.1201 72.6685 43.384 73.5568 42.9494 74.5961C42.5148 75.6353 42.4011 76.779 42.6227 77.8823C42.8443 78.9856 43.3912 79.999 44.1943 80.7944C44.9974 81.5899 46.0206 82.1315 47.1345 82.351C48.2485 82.5705 49.403 82.4578 50.4523 82.0273C51.5016 81.5969 52.3985 80.8678 53.0295 79.9325C53.6605 78.9972 53.9972 77.8975 53.9972 76.7726C53.9955 75.2647 53.3899 73.819 52.3134 72.7528C51.2368 71.6865 49.7772 71.0867 48.2548 71.085Z" fill="#393939"/>
<path d="M48.254 81.9531C47.2203 81.9531 46.2098 81.6495 45.3503 81.0807C44.4907 80.5118 43.8208 79.7033 43.4252 78.7574C43.0296 77.8115 42.9261 76.7706 43.1278 75.7664C43.3294 74.7623 43.8273 73.8399 44.5582 73.1159C45.2892 72.3919 46.2204 71.8988 47.2343 71.6991C48.2482 71.4993 49.2991 71.6019 50.2541 71.9937C51.2092 72.3855 52.0254 73.049 52.5997 73.9003C53.174 74.7516 53.4806 75.7525 53.4806 76.7764C53.479 78.1488 52.9279 79.4646 51.9481 80.4351C50.9682 81.4056 49.6397 81.9515 48.254 81.9531ZM48.254 73.3877C47.5774 73.3877 46.9158 73.5865 46.3532 73.9588C45.7906 74.3311 45.3521 74.8603 45.0932 75.4795C44.8342 76.0987 44.7664 76.7801 44.8984 77.4374C45.0304 78.0947 45.3563 78.6985 45.8348 79.1724C46.3132 79.6463 46.9228 79.9691 47.5865 80.0998C48.2501 80.2306 48.9381 80.1635 49.5632 79.907C50.1884 79.6506 50.7227 79.2162 51.0986 78.659C51.4746 78.1017 51.6752 77.4466 51.6752 76.7764C51.6742 75.878 51.3134 75.0166 50.672 74.3814C50.0306 73.7461 49.1611 73.3888 48.254 73.3877Z" fill="#393939"/>
<path d="M48.253 79.6528C47.6784 79.6528 47.1167 79.484 46.6389 79.1678C46.1611 78.8516 45.7887 78.4021 45.5688 77.8763C45.349 77.3505 45.2914 76.7719 45.4035 76.2137C45.5156 75.6555 45.7923 75.1427 46.1987 74.7403C46.605 74.3378 47.1227 74.0638 47.6863 73.9528C48.2499 73.8417 48.8341 73.8987 49.365 74.1165C49.8958 74.3343 50.3495 74.7032 50.6688 75.1764C50.988 75.6496 51.1584 76.206 51.1584 76.7752C51.1576 77.5381 50.8512 78.2695 50.3065 78.809C49.7618 79.3485 49.0233 79.6519 48.253 79.6528ZM48.253 75.6856C48.0354 75.6856 47.8228 75.7495 47.6419 75.8692C47.461 75.9889 47.3199 76.1591 47.2367 76.3582C47.1534 76.5573 47.1317 76.7763 47.1741 76.9877C47.2166 77.199 47.3214 77.3932 47.4752 77.5455C47.6291 77.6979 47.8251 77.8017 48.0384 77.8437C48.2518 77.8858 48.4729 77.8642 48.6739 77.7817C48.875 77.6992 49.0468 77.5596 49.1677 77.3804C49.2885 77.2013 49.3531 76.9906 49.3531 76.7752C49.3528 76.4863 49.2368 76.2093 49.0305 76.005C48.8243 75.8008 48.5447 75.6859 48.253 75.6856Z" fill="#393939"/>
<path d="M19.3532 2H10.0091L1 29.1009H28.3622L19.3532 2Z" fill="#393939"/>
<path d="M28.3021 32.6992H20.9844V59.8002H28.3021V32.6992Z" fill="#393939"/>
<path d="M9.89193 32.6992H2.57422V59.8002H9.89193V32.6992Z" fill="#393939"/>
<path d="M19.0931 32.6992H11.7754V59.8002H19.0931V32.6992Z" fill="#393939"/>
</svg>
