<svg width="26" height="27" viewBox="0 0 26 27" fill="none" xmlns="http://www.w3.org/2000/svg">
<g clip-path="url(#clip0)">
<path d="M25.1672 2.20453C24.4436 1.93514 23.4632 1.60024 22.2729 1.27401C22.1734 1.24618 22.0688 1.24276 21.9677 1.26406C21.8666 1.28535 21.7717 1.33079 21.6909 1.39662C21.6101 1.46244 21.5457 1.54684 21.5026 1.64297C21.4596 1.73911 21.4393 1.84428 21.4433 1.94997C21.4495 2.09671 21.4454 2.24373 21.4311 2.38988C21.3549 3.13024 21.0042 3.81238 20.4516 4.29562C19.8989 4.77886 19.1862 5.02632 18.4607 4.98702C17.7352 4.94772 17.0521 4.62464 16.5522 4.08438C16.0523 3.54412 15.7739 2.82791 15.7742 2.08343C15.7736 1.71834 15.8407 1.35641 15.9719 1.01698C16.0109 0.91825 16.0267 0.811521 16.0179 0.705398C16.009 0.599275 15.9758 0.496783 15.9211 0.406248C15.8663 0.315713 15.7915 0.239667 15.7027 0.184329C15.6139 0.128991 15.5136 0.0958861 15.4099 0.0877298C14.6418 0.0321233 13.8423 0 13.0319 0C8.83796 0.0225288 4.67932 0.787598 0.739677 2.26136C0.587214 2.31869 0.448698 2.40901 0.33338 2.52618C0.218062 2.64336 0.12869 2.7846 0.0714658 2.94033C0.0142417 3.09607 -0.009518 3.26263 0.00174757 3.42864C0.0130131 3.59465 0.0590001 3.75622 0.136709 3.90234L4.90746 12.8179C4.95546 12.9062 5.02045 12.9836 5.09848 13.0455C5.17651 13.1073 5.26598 13.1523 5.36145 13.1777C5.45693 13.2032 5.55645 13.2084 5.65399 13.1933C5.75152 13.1782 5.84498 13.143 5.92886 13.0898C6.16791 12.9436 6.43343 12.8485 6.7093 12.8102C6.98517 12.7719 7.26574 12.7912 7.53414 12.8669C7.80254 12.9426 8.05317 13.0733 8.27101 13.2509C8.48886 13.4285 8.66935 13.6494 8.80167 13.9004C8.93399 14.1514 9.01542 14.4272 9.04097 14.7113C9.06653 14.9953 9.03572 15.2817 8.95041 15.5533C8.8651 15.8248 8.72695 16.0758 8.54447 16.2912C8.36198 16.5067 8.13887 16.682 7.8885 16.8068C7.80238 16.852 7.72605 16.9145 7.66392 16.9906C7.60179 17.0666 7.55518 17.1546 7.52684 17.2495C7.4985 17.3443 7.489 17.4439 7.49893 17.5426C7.50886 17.6412 7.53803 17.7368 7.58466 17.8237L12.2384 26.5218C12.3157 26.6667 12.4297 26.7875 12.5683 26.8717C12.707 26.9559 12.8653 27.0004 13.0265 27.0004C13.1876 27.0004 13.3458 26.9559 13.4845 26.8717C13.6231 26.7875 13.7372 26.6667 13.8146 26.5218L15.5619 23.2559C15.718 22.9575 15.7549 22.6087 15.6649 22.283C15.5749 21.9573 15.365 21.6801 15.0795 21.5098C14.7801 21.3261 14.52 21.0822 14.3149 20.7928C14.1099 20.5034 13.9641 20.1745 13.8863 19.8258C13.8085 19.4772 13.8003 19.1161 13.8622 18.7641C13.9242 18.4121 14.055 18.0766 14.2468 17.7778C14.4385 17.479 14.6873 17.223 14.9781 17.0252C15.2689 16.8275 15.5957 16.6921 15.939 16.6271C16.2822 16.5621 16.6346 16.5689 16.9752 16.6472C17.3158 16.7254 17.6374 16.8734 17.9207 17.0823C18.0037 17.1463 18.099 17.1912 18.2003 17.214C18.3017 17.2369 18.4067 17.2371 18.5082 17.2148C18.6096 17.1924 18.7052 17.1479 18.7885 17.0843C18.8717 17.0207 18.9405 16.9395 18.9904 16.8463L25.8413 4.04076C25.929 3.87744 25.9811 3.69657 25.9942 3.51064C26.0072 3.32471 25.9807 3.13809 25.9167 2.96362C25.8526 2.78915 25.7525 2.63098 25.6231 2.49994C25.4937 2.36889 25.3382 2.26813 25.1672 2.20453ZM8.55177 6.03519C8.62709 6.31784 8.62814 6.61583 8.55483 6.89903C8.48152 7.18224 8.33653 7.44057 8.1344 7.64781C7.93227 7.85506 7.68023 8.00387 7.40389 8.07916C7.12755 8.15445 6.83669 8.15357 6.5608 8.07657C6.28652 7.99863 6.0366 7.84935 5.83523 7.64323C5.63386 7.43711 5.48785 7.18115 5.4115 6.90018C5.33581 6.61732 5.3345 6.31897 5.40774 6.03543C5.48097 5.7519 5.62618 5.49326 5.82852 5.28581C6.03086 5.07835 6.28319 4.92943 6.55985 4.85422C6.83651 4.779 7.12768 4.78015 7.40377 4.85754C7.67751 4.93511 7.92702 5.08385 8.12816 5.28931C8.3293 5.49476 8.4752 5.75 8.55177 6.03024V6.03519ZM12.8172 12.7697C12.3542 12.6374 11.9323 12.3848 11.5924 12.0365C11.2525 11.6882 11.006 11.2559 10.8768 10.7815C10.7313 10.273 10.722 9.73384 10.8499 9.22043C10.9778 8.70703 11.2382 8.23832 11.6038 7.86358C11.9694 7.48884 12.4268 7.22186 12.9278 7.0906C13.4288 6.95935 13.9549 6.96869 14.4512 7.11763C14.9145 7.24991 15.3365 7.50259 15.6765 7.85115C16.0164 8.19971 16.2627 8.63234 16.3915 9.10712C16.5357 9.61519 16.544 10.1536 16.4154 10.666C16.2869 11.1785 16.0263 11.6461 15.6609 12.02C15.2955 12.3939 14.8388 12.6603 14.3385 12.7913C13.8382 12.9223 13.3128 12.9132 12.8172 12.7648V12.7697Z" fill="#F2EAD9"/>
</g>
<defs>
<clipPath id="clip0">
<rect width="26" height="27" fill="white"/>
</clipPath>
</defs>
</svg>
