<svg width="748" height="127" viewBox="0 0 748 127" fill="none" xmlns="http://www.w3.org/2000/svg">
<g clip-path="url(#clip0)">
<path d="M100.152 109.409V15.064C100.275 10.8811 101.46 7.55799 103.707 5.09454C104.839 3.86836 106.23 2.90218 107.782 2.26413C109.334 1.62608 111.009 1.33169 112.688 1.40171C114.376 1.33425 116.058 1.63897 117.612 2.29368C119.165 2.94839 120.552 3.93663 121.67 5.18649C124 7.94984 125.201 11.4724 125.037 15.064V39.8042C127.527 38.2452 130.239 37.0628 133.083 36.2963C135.904 35.6452 138.794 35.3352 141.69 35.3733C148.193 35.2907 154.616 36.7802 160.401 39.7118C165.932 42.5305 170.587 46.773 173.873 51.9897C175.003 53.6348 176.004 55.3629 176.867 57.1588C177.634 58.8184 178.23 60.5505 178.644 62.3284C179.105 64.3344 179.418 66.3706 179.58 68.4212C179.767 70.6367 179.86 73.283 179.86 76.3601V112.178C179.734 116.364 178.549 119.687 176.305 122.148C175.173 123.374 173.782 124.34 172.23 124.978C170.678 125.616 169.004 125.91 167.324 125.84C165.635 125.907 163.952 125.602 162.399 124.945C160.845 124.289 159.459 123.299 158.343 122.046C156.01 119.272 154.81 115.741 154.975 112.14V78.6278C155.027 76.4583 154.87 74.2888 154.507 72.1485C154.172 70.6064 153.638 69.1133 152.916 67.706C151.839 65.2876 150.002 63.2749 147.677 61.9649C145.412 60.6369 142.828 59.9337 140.193 59.9286C137.632 59.9459 135.118 60.6156 132.896 61.8729C130.651 63.051 128.775 64.8114 127.47 66.9642C126.58 68.4889 125.948 70.1464 125.599 71.8716C125.186 74.0999 124.998 76.363 125.037 78.6278V112.14C124.912 116.338 123.758 119.671 121.576 122.139C120.468 123.371 119.094 124.342 117.557 124.982C116.019 125.623 114.355 125.916 112.688 125.84C110.987 125.902 109.293 125.595 107.725 124.941C106.157 124.287 104.754 123.302 103.613 122.055C101.226 119.318 99.9876 115.785 100.152 112.178L100.152 109.409Z" fill="#292929"/>
<path d="M234.588 35.3763C240.763 35.3388 246.879 36.5645 252.55 38.9762C263.624 43.6261 272.443 52.3275 277.155 63.2546C279.612 68.9115 280.854 75.0093 280.804 81.1635C280.836 87.1669 279.593 93.1105 277.155 98.611C274.784 104 271.386 108.888 267.145 113.011C262.878 117.153 257.865 120.472 252.363 122.797C246.692 125.209 240.576 126.434 234.401 126.397C222.138 126.437 210.349 121.731 201.563 113.289C197.364 109.201 193.97 104.381 191.553 99.0723C189.049 93.622 187.773 87.7011 187.811 81.7172C187.761 75.4438 189.002 69.2257 191.459 63.4395C195.008 55.0625 201.006 47.9188 208.688 42.9204C216.37 37.922 225.387 35.2956 234.588 35.3763ZM234.588 59.9316C231.696 59.9114 228.83 60.477 226.168 61.5934C223.619 62.6546 221.3 64.1902 219.339 66.1163C217.394 68.0389 215.866 70.3317 214.848 72.8552C213.765 75.5578 213.225 78.4424 213.258 81.3484C213.25 84.0222 213.824 86.6665 214.942 89.1023C216.036 91.5264 217.592 93.7202 219.526 95.5644C221.471 97.4198 223.758 98.8923 226.262 99.9029C228.842 100.955 231.609 101.488 234.401 101.473C237.202 101.486 239.975 100.92 242.54 99.8109C245.036 98.7425 247.317 97.2418 249.276 95.38C251.224 93.5123 252.782 91.2853 253.86 88.8254C254.985 86.2942 255.559 83.558 255.544 80.7941C255.571 77.9695 254.997 75.1707 253.86 72.5783C251.722 67.6381 247.734 63.7029 242.727 61.5933C240.162 60.4839 237.389 59.9178 234.588 59.9316Z" fill="#292929"/>
<path d="M306.509 115.688L283.869 55.3145L282.933 52.7297C282.2 50.8436 281.82 48.8419 281.811 46.8219C281.789 45.2883 282.104 43.7683 282.734 42.366C283.364 40.9638 284.294 39.7126 285.459 38.6981C287.75 36.5376 290.805 35.3453 293.973 35.3751C299.835 35.3751 303.826 38.5753 305.948 44.9757L306.696 47.3756L318.671 83.5626L332.704 45.8989C333.689 42.9254 335.39 40.2325 337.663 38.0519C339.851 36.3038 342.617 35.4161 345.428 35.5596C351.164 35.5596 355.218 38.6367 357.59 44.7909L371.997 83.5627L383.037 48.1144L383.785 45.3446C386.153 38.6981 390.27 35.375 396.135 35.3752C397.762 35.3599 399.377 35.662 400.886 36.2639C402.395 36.8659 403.769 37.756 404.929 38.8831C406.126 39.9571 407.078 41.2694 407.723 42.7333C408.368 44.1973 408.691 45.7795 408.671 47.3757C408.661 49.3959 408.281 51.3977 407.548 53.284L406.612 55.8683L384.908 115.872C383.534 119.565 381.943 122.15 380.136 123.626C378.015 125.203 375.397 125.987 372.746 125.842C370.034 126.006 367.351 125.221 365.168 123.626C363.358 122.15 361.643 119.565 360.022 115.872L345.241 79.5005L331.02 115.688C329.398 119.628 327.745 122.305 326.062 123.719C324.378 125.133 321.915 125.84 318.671 125.842C313.058 125.842 309.254 123.257 307.258 118.087L306.509 115.688Z" fill="#292929"/>
<path d="M551.075 106.83V31.5349C551.075 30.3999 550.618 29.3114 549.805 28.5088C548.992 27.7063 547.889 27.2554 546.738 27.2554H527.874C523.383 27.1342 519.828 25.9341 517.209 23.655C515.894 22.4854 514.86 21.0422 514.181 19.4298C513.501 17.8173 513.193 16.076 513.279 14.3318C513.22 12.5822 513.55 10.841 514.245 9.23039C514.94 7.61974 515.983 6.1786 517.302 5.00802C520.231 2.51917 524.013 1.23089 527.874 1.40766H602.905C606.747 1.34945 610.488 2.6236 613.476 5.00802C614.814 6.16353 615.871 7.60199 616.567 9.2163C617.264 10.8306 617.582 12.5792 617.499 14.3318C617.577 16.0972 617.256 17.8577 616.561 19.486C615.865 21.1143 614.811 22.5698 613.476 23.7475C610.522 26.1813 606.749 27.433 602.905 27.2554H584.04C582.89 27.2554 581.787 27.7063 580.974 28.5088C580.16 29.3114 579.703 30.3999 579.703 31.5349V109.968C579.577 114.769 578.236 118.615 575.68 121.507C574.343 122.887 572.735 123.983 570.954 124.729C569.173 125.475 567.257 125.855 565.322 125.846C563.388 125.837 561.475 125.44 559.701 124.678C557.927 123.916 556.329 122.806 555.005 121.415C552.296 118.215 550.895 114.133 551.075 109.968L551.075 106.83Z" fill="#292929"/>
<path d="M623.539 96.1165C627.241 99.3797 632.047 101.158 637.011 101.102C639.464 101.11 641.9 100.703 644.215 99.9013C646.806 98.9465 649.235 97.6081 651.418 95.932C652.642 94.9788 653.996 94.2017 655.441 93.6241C656.671 93.1858 657.97 92.967 659.277 92.9779C660.937 92.9276 662.591 93.2128 664.135 93.8161C665.679 94.4193 667.083 95.3278 668.258 96.4858C669.419 97.6164 670.334 98.9695 670.945 100.462C671.556 101.954 671.852 103.554 671.813 105.163C671.827 107.705 671.043 110.188 669.568 112.272C667.612 114.856 665.204 117.076 662.458 118.826C658.818 121.358 654.769 123.262 650.483 124.457C646.109 125.732 641.572 126.385 637.011 126.395C630.888 126.419 624.83 125.16 619.236 122.703C608.115 117.884 599.234 109.121 594.35 98.1475C591.898 92.6354 590.624 86.6836 590.608 80.6639C590.592 74.6441 591.834 68.6857 594.257 63.1609C599.011 52.3473 607.734 43.7074 618.674 38.9744C628.871 34.5921 640.375 34.1963 650.857 37.8669C655.384 39.4149 659.62 41.692 663.393 44.6059C666.889 47.3014 669.84 50.6206 672.094 54.3909C674.226 57.9067 675.358 61.9253 675.368 66.0226C675.458 68.4768 674.625 70.8769 673.029 72.7616C671.468 74.5471 668.817 76.301 665.077 78.0232L623.539 96.1165ZM648.051 64.5453C645.805 61.1012 642.125 59.378 637.011 59.3757C631.807 59.3361 626.779 61.2336 622.929 64.6898C619.08 68.146 616.692 72.907 616.242 78.0233L648.051 64.5453Z" fill="#292929"/>
<path d="M683.86 15.0631C683.86 10.8802 685.013 7.55708 687.321 5.09363C688.476 3.8707 689.884 2.90779 691.45 2.27052C693.016 1.63325 694.703 1.33661 696.396 1.4008C698.084 1.33331 699.766 1.63801 701.319 2.29272C702.873 2.94744 704.259 3.93569 705.377 5.18557C707.708 7.94874 708.909 11.4714 708.745 15.0631V111.623C708.745 116.054 707.654 119.531 705.471 122.054C704.346 123.32 702.945 124.318 701.373 124.974C699.802 125.629 698.1 125.925 696.396 125.839C694.695 125.901 693.001 125.594 691.433 124.94C689.865 124.286 688.462 123.301 687.321 122.054C684.934 119.317 683.696 115.784 683.86 112.177V15.0631Z" fill="#292929"/>
<path d="M723.122 15.0631C723.122 10.8802 724.276 7.55706 726.584 5.09361C727.739 3.87064 729.147 2.90771 730.713 2.27044C732.279 1.63317 733.966 1.33654 735.659 1.40078C737.347 1.33335 739.029 1.63808 740.582 2.29279C742.136 2.9475 743.522 3.93572 744.64 5.18556C746.971 7.94885 748.172 11.4714 748.008 15.0631V111.623C748.008 116.054 746.916 119.531 744.733 122.054C743.608 123.32 742.208 124.318 740.636 124.974C739.064 125.629 737.363 125.925 735.659 125.839C733.958 125.901 732.264 125.594 730.696 124.94C729.128 124.286 727.724 123.301 726.584 122.054C724.196 119.318 722.958 115.784 723.122 112.177V15.0631Z" fill="#292929"/>
<path d="M454.979 80.0542V66.1384C454.979 65.0034 454.522 63.9149 453.709 63.1123C452.895 62.3098 451.792 61.8589 450.642 61.8589H431.778C427.287 61.7377 423.732 60.5376 421.112 58.2585C419.798 57.0889 418.764 55.6457 418.084 54.0333C417.405 52.4209 417.097 50.6795 417.183 48.9353C417.124 47.1857 417.453 45.4446 418.148 43.8339C418.843 42.2233 419.887 40.7821 421.206 39.6115C424.134 37.1227 427.917 35.8344 431.778 36.0112H506.808C510.651 35.953 514.392 37.2271 517.38 39.6115C518.718 40.767 519.775 42.2055 520.471 43.8198C521.168 45.4341 521.486 47.1827 521.403 48.9353C521.481 50.7008 521.16 52.4612 520.464 54.0895C519.769 55.7178 518.715 57.1734 517.38 58.351C514.425 60.7848 510.653 62.0365 506.808 61.8589H487.944C486.794 61.8589 485.691 62.3098 484.877 63.1123C484.064 63.9149 483.607 65.0034 483.607 66.1384V83.1928C483.481 87.9931 482.14 91.8395 479.584 94.732C478.246 96.1113 476.638 97.2073 474.858 97.9532C473.077 98.6991 471.161 99.0793 469.226 99.0707C467.291 99.062 465.379 98.6647 463.605 97.9029C461.831 97.141 460.233 96.0307 458.908 94.6396C456.2 91.4396 454.799 87.358 454.979 83.1928V80.0542Z" fill="#E56F57"/>
<path d="M469.648 0H468.937C461.041 0 454.639 6.31655 454.639 14.1084V14.8098C454.639 22.6016 461.041 28.9182 468.937 28.9182H469.648C477.545 28.9182 483.946 22.6016 483.946 14.8098V14.1084C483.946 6.31655 477.545 0 469.648 0Z" fill="#E56F57"/>
<path d="M88.9008 75.2909C85.783 66.4757 78.9877 59.9726 70.5468 56.0204C66.027 53.959 61.3563 52.2364 56.5744 50.8672C51.5324 49.3687 46.3548 48.3192 41.3342 46.7658C37.9327 45.7132 33.9192 44.3328 31.9599 41.1623C29.6512 37.4261 30.898 31.3671 33.8675 28.2711C35.5223 26.6254 37.5337 25.3713 39.7505 24.6032C41.9673 23.8351 44.3318 23.5729 46.666 23.8365C51.48 24.3137 56.0844 26.0222 60.0244 28.793C63.5594 31.1597 67.0488 34.216 71.3663 35.1626C75.8772 36.1518 80.046 35.1255 82.9479 31.6657C85.9285 28.1118 86.3493 24.1975 85.1173 19.7942C83.8329 15.2039 80.4004 11.4423 76.5768 8.68669C68.3078 2.72743 57.5279 0.319438 47.4368 0.142086C37.2247 -0.0376207 26.7174 2.13086 18.1497 7.82578C14.0617 10.5122 10.6024 14.0295 8.00362 18.142C5.40482 22.2545 3.72644 26.8675 3.08083 31.6719C1.88686 41.1242 3.7004 52.9586 10.9983 59.6579C14.0422 62.2891 17.4854 64.4333 21.2024 66.0122C25.4344 67.918 29.808 69.5015 34.2849 70.749C36.3494 71.3355 38.4138 71.922 40.4783 72.5083C46.8634 74.3221 54.0793 75.6391 59.088 80.2125C60.3625 81.3736 61.3413 82.8153 61.9448 84.4201C62.5482 86.0249 62.7592 87.7476 62.5607 89.4481C62.0231 93.7885 59.7365 97.7693 55.3198 99.5202C52.1629 100.772 45.5839 102.13 36.369 98.9106C24.4956 94.7626 22.2032 84.3388 12.0708 84.3388C9.22222 84.2405 6.44902 85.2533 4.35176 87.1579C4.05813 87.4322 3.76854 87.7135 3.4935 88.0199C2.78144 88.8334 2.15769 89.7183 1.63245 90.6601C-0.185679 94.2926 -0.498313 98.4811 0.760851 102.337C2.33399 106.963 5.14167 111.085 8.88844 114.269C16.4021 121.062 26.4925 124.877 36.4739 126.313C46.8295 127.802 57.7904 126.957 67.4316 122.769C76.4556 119 83.7409 112.061 87.8764 103.296C91.8655 94.4404 92.2325 84.4068 88.9008 75.2909Z" fill="#292929"/>
</g>
<defs>
<clipPath id="clip0">
<rect width="748" height="127" fill="white"/>
</clipPath>
</defs>
</svg>
