<svg width="69" height="60" viewBox="0 0 69 60" fill="none" xmlns="http://www.w3.org/2000/svg">
<path d="M46.058 0.967084C52.0124 2.15479 57.6527 3.46186 62.2339 7.58572C70.0447 14.6166 71.1658 27.4397 64.6573 35.9812C61.6372 39.9446 57.6086 40.3657 53.2418 39.8111C46.6363 38.9722 46.5837 38.9831 46.8696 45.7377C47.0013 48.8475 47.3885 51.9413 47.6445 55.0439C47.8598 57.6536 46.9681 59.142 44.124 59.1508C37.818 59.1702 31.51 59.3548 25.203 59.4422C22.8847 59.4743 21.8066 58.3198 21.9911 55.8616C22.315 51.5492 22.5236 47.2296 22.8272 42.9157C23.0152 40.2451 21.9912 39.1451 19.3372 39.7342C13.0586 41.1281 7.13592 41.4749 3.62174 34.4234C-0.47995 26.1929 -0.0962294 16.8706 5.48262 10.8157C8.21847 7.84639 11.7993 5.21985 15.4766 3.7354C25.4277 -0.281565 35.8431 -0.307473 46.058 0.967084Z" fill="#393939"/>
</svg>
