<svg width="950" height="130" viewBox="0 0 950 130" fill="none" xmlns="http://www.w3.org/2000/svg">
<g clip-path="url(#clip0)">
<path d="M242.039 127.719H176.487V119.732C176.487 112.525 175.052 105.389 172.265 98.7311C169.477 92.0731 165.391 86.0236 160.241 80.9277C155.09 75.8319 148.975 71.7897 142.246 69.0319C135.516 66.2741 128.304 64.8546 121.019 64.8546C113.735 64.8546 106.523 66.2741 99.7931 69.0319C93.0635 71.7897 86.9488 75.8319 81.7982 80.9277C76.6476 86.0236 72.5619 92.0731 69.7744 98.7311C66.9869 105.389 65.5522 112.525 65.5522 119.732V127.719H0V119.732C0 87.9768 12.7502 57.5226 35.4458 35.0686C58.1413 12.6145 88.9231 0 121.019 0C153.116 0 183.898 12.6145 206.593 35.0686C229.289 57.5226 242.039 87.9768 242.039 119.732V127.719Z" fill="#393939"/>
<path d="M269.108 25.4671H316.661C322.489 25.3469 328.299 26.1683 333.86 27.8989C338.463 29.3821 342.696 31.8112 346.283 35.027C349.87 38.2428 352.729 42.1725 354.673 46.5584C356.763 51.4157 357.798 56.6533 357.709 61.9316C357.759 66.6318 356.874 71.2959 355.105 75.6584C353.432 79.7663 350.923 83.49 347.735 86.5984C344.496 89.7361 340.665 92.2138 336.461 93.8906C331.913 95.6953 327.051 96.5943 322.151 96.5361H299.315V127.71H269.108V25.4671ZM299.315 73.3711H315.648C317.256 73.449 318.863 73.197 320.368 72.6309C321.873 72.0648 323.244 71.1968 324.393 70.0816C325.489 68.9402 326.342 67.5923 326.901 66.1183C327.459 64.6442 327.713 63.074 327.645 61.5011C327.717 59.9878 327.472 58.4761 326.925 57.061C326.378 55.646 325.541 54.3583 324.466 53.2788C322.345 51.2303 319.309 50.2061 315.359 50.2061H299.315V73.3711Z" fill="#393939"/>
<path d="M406.122 127.696C405.574 126.688 405.114 125.636 404.747 124.55C404.236 122.966 403.873 121.338 403.664 119.687H403.375C400.968 122.948 397.725 125.515 393.982 127.124C386.747 129.977 378.751 130.33 371.288 128.126C368.461 127.258 365.833 125.849 363.556 123.979C361.352 122.124 359.598 119.802 358.424 117.186C357.115 114.186 356.475 110.942 356.547 107.676C356.431 104.191 357.174 100.73 358.713 97.5933C360.099 94.9453 362.107 92.6653 364.569 90.9451C367.157 89.1681 370.044 87.8607 373.095 87.0837C376.439 86.2048 379.846 85.5839 383.286 85.2269C387.138 84.8467 390.341 84.4173 392.896 83.9387C395.001 83.589 397.061 83.0138 399.04 82.2233C400.279 81.7743 401.376 81.009 402.219 80.0051C402.814 79.1429 403.117 78.1169 403.086 77.0738C403.149 75.2635 402.561 73.4899 401.425 72.0688C400.314 70.7366 398.266 70.0695 395.281 70.0674C394.045 69.9789 392.805 70.1427 391.636 70.5486C390.468 70.9545 389.396 71.5939 388.488 72.4269C386.859 74.1854 385.845 76.4163 385.598 78.7892H359.726C359.8 75.2552 360.612 71.7745 362.111 68.5656C363.641 65.3249 365.889 62.4664 368.687 60.2019C371.901 57.6489 375.581 55.731 379.526 54.5529C384.446 53.0881 389.566 52.3885 394.703 52.4792C399.474 52.4029 404.242 52.7859 408.939 53.6229C412.437 54.2697 415.79 55.5283 418.841 57.3397C426.45 62.0117 430.255 69.305 430.257 79.2197V115.684C430.206 118.078 430.376 120.472 430.765 122.835C430.863 123.573 431.112 124.283 431.497 124.922C431.882 125.561 432.395 126.115 433.004 126.552V127.695L406.122 127.696ZM391.378 113.538C394.487 113.563 397.514 112.556 399.977 110.679C402.531 108.772 403.807 105.626 403.807 101.241V94.8065C402.334 95.5258 400.813 96.1471 399.256 96.6665C397.292 97.3123 395.288 97.8369 393.258 98.2374C389.212 99.0951 386.466 100.145 385.02 101.386C384.292 102.028 383.719 102.824 383.344 103.715C382.969 104.606 382.8 105.568 382.851 106.532C382.764 107.574 382.959 108.62 383.416 109.563C383.873 110.505 384.576 111.31 385.452 111.895C387.223 113.002 389.283 113.573 391.378 113.538Z" fill="#393939"/>
<path d="M463.943 65.8058H464.375C466.787 61.7847 470.195 58.4381 474.277 56.0817C478.14 54.1165 482.436 53.1339 486.779 53.2226C488.307 53.1361 489.836 53.3795 491.26 53.9358V76.9594H490.682C482.587 75.6241 476.324 76.6965 471.892 80.1767C467.459 83.6579 465.242 89.5447 465.242 97.8371V127.723H437.925V54.7936H463.943V65.8058Z" fill="#393939"/>
<path d="M543.434 127.696C542.885 126.688 542.425 125.636 542.059 124.55C541.547 122.966 541.185 121.338 540.976 119.687H540.687C538.279 122.948 535.037 125.515 531.293 127.124C524.059 129.977 516.062 130.33 508.6 128.126C505.772 127.259 503.145 125.849 500.867 123.979C498.664 122.124 496.91 119.802 495.735 117.186C494.426 114.186 493.786 110.942 493.858 107.676C493.742 104.191 494.486 100.73 496.024 97.5933C497.41 94.9453 499.418 92.6653 501.88 90.9451C504.469 89.1681 507.356 87.8607 510.407 87.0837C513.75 86.2048 517.157 85.5839 520.597 85.2269C524.45 84.8467 527.653 84.4173 530.207 83.9387C532.312 83.589 534.373 83.0138 536.352 82.2233C537.591 81.7743 538.687 81.009 539.531 80.0051C540.125 79.1429 540.428 78.1169 540.398 77.0738C540.461 75.2635 539.872 73.4899 538.737 72.0688C537.625 70.7366 535.577 70.0695 532.592 70.0674C531.357 69.9789 530.116 70.1427 528.948 70.5486C527.779 70.9545 526.707 71.5939 525.799 72.4269C524.17 74.1854 523.157 76.4163 522.909 78.7892H497.037C497.112 75.2552 497.924 71.7745 499.422 68.5656C500.953 65.3249 503.2 62.4664 505.999 60.2019C509.212 57.6489 512.892 55.731 516.837 54.5529C521.757 53.0881 526.877 52.3885 532.014 52.4793C536.786 52.4029 541.554 52.7859 546.25 53.6229C549.748 54.2697 553.101 55.5283 556.152 57.3397C563.761 62.0117 567.566 69.305 567.569 79.2197V115.684C567.517 118.078 567.687 120.472 568.077 122.835C568.175 123.573 568.424 124.283 568.809 124.922C569.194 125.561 569.706 126.115 570.315 126.552V127.695L543.434 127.696ZM528.689 113.538C531.798 113.563 534.826 112.556 537.289 110.679C539.842 108.772 541.118 105.626 541.118 101.241V94.8065C539.645 95.5258 538.125 96.1471 536.568 96.6665C534.603 97.3123 532.599 97.8369 530.569 98.2374C526.523 99.0951 523.777 100.145 522.331 101.386C521.604 102.028 521.031 102.824 520.656 103.715C520.28 104.606 520.112 105.568 520.162 106.532C520.075 107.574 520.27 108.62 520.727 109.563C521.184 110.505 521.887 111.31 522.763 111.895C524.535 113.002 526.594 113.573 528.689 113.538Z" fill="#393939"/>
<path d="M612.641 130.002C606.987 130.076 601.37 129.081 596.093 127.07C591.329 125.245 586.981 122.499 583.301 118.993C579.719 115.533 576.912 111.367 575.064 106.764C571.211 96.8712 571.211 85.9144 575.064 76.0212C576.923 71.4038 579.727 67.217 583.301 63.724C586.965 60.181 591.317 57.4086 596.093 55.574C605.985 51.9566 616.809 51.6794 626.878 54.7853C630.932 56.0889 634.706 58.1259 638.008 60.7926C641.122 63.3463 643.7 66.4791 645.595 70.014C647.551 73.682 648.777 77.6868 649.209 81.8117H622.905C622.387 78.9961 621.142 76.3608 619.291 74.1612C618.394 73.2542 617.31 72.5486 616.112 72.0922C614.915 71.6358 613.633 71.4392 612.352 71.5158C610.44 71.4234 608.541 71.8721 606.877 72.8091C605.214 73.7462 603.854 75.1328 602.959 76.8067C600.936 80.335 599.924 85.1976 599.923 91.3944C599.923 97.4959 600.983 102.286 603.105 105.765C604.052 107.422 605.444 108.786 607.128 109.708C608.811 110.629 610.72 111.071 612.641 110.984C614.074 111.084 615.51 110.845 616.83 110.285C618.15 109.725 619.316 108.862 620.231 107.767C621.914 105.621 622.949 102.451 623.337 98.2562H649.644C649.68 102.57 648.767 106.84 646.97 110.77C645.201 114.611 642.64 118.044 639.453 120.849C636.031 123.823 632.055 126.106 627.748 127.57C622.892 129.237 617.781 130.059 612.641 130.002Z" fill="#393939"/>
<path d="M681.843 63.0637H682.278C684.956 60.013 688.131 57.4271 691.672 55.4133C695.677 53.3327 700.162 52.3223 704.683 52.4819C713.257 52.4819 719.712 55.0561 724.048 60.2046C728.386 65.351 730.554 72.1196 730.552 80.5105V127.698H703.235V87.0864C703.397 83.8574 702.539 80.6585 700.78 77.9342C699.138 75.6469 696.536 74.5032 692.974 74.5032C691.391 74.4429 689.816 74.7704 688.392 75.4566C686.967 76.1428 685.735 77.1665 684.806 78.4369C682.744 81.3383 681.703 84.8302 681.843 88.3746V127.698H654.526V25.4556H681.843V63.0637Z" fill="#393939"/>
<path d="M786.339 127.694V118.255H785.904C783.356 121.851 780.021 124.832 776.149 126.977C772.068 129.068 767.519 130.101 762.925 129.981C758.969 130.069 755.036 129.364 751.363 127.907C748.225 126.626 745.43 124.644 743.195 122.117C740.963 119.524 739.292 116.506 738.282 113.25C737.132 109.545 736.571 105.686 736.618 101.811V54.7646H763.935V95.3764C763.935 103.099 767.211 106.96 773.764 106.96C775.321 107.045 776.878 106.78 778.317 106.186C779.756 105.591 781.041 104.682 782.074 103.526C784.05 101.239 785.037 98.0931 785.037 94.0882V54.7646H812.354V127.694H786.339Z" fill="#393939"/>
<path d="M911.013 129.702C905.388 129.781 899.797 128.811 894.535 126.843C889.795 125.046 885.469 122.322 881.816 118.835C878.233 115.377 875.426 111.212 873.578 106.61C869.725 96.6665 869.725 85.6648 873.578 75.7218C875.422 71.1301 878.174 66.9492 881.673 63.4246C885.212 59.8986 889.442 57.1252 894.103 55.2746C904.159 51.4637 915.266 51.3611 925.392 54.9855C929.731 56.664 933.724 59.1119 937.174 62.2087C941.779 66.427 945.212 71.7441 947.146 77.6509C949.309 84.15 950.287 90.9777 950.036 97.8155H897.428C897.928 101.547 899.566 105.039 902.124 107.825C903.416 109.052 904.948 110.002 906.626 110.616C908.305 111.231 910.093 111.497 911.88 111.398C916.698 111.398 920.118 109.587 922.141 105.966H948.591C947.731 109.48 946.076 112.755 943.751 115.545C941.169 118.706 938.066 121.414 934.573 123.554C931.277 125.713 927.636 127.308 923.805 128.273C919.617 129.269 915.32 129.749 911.013 129.702ZM910.578 70.5032C908.939 70.4152 907.301 70.6832 905.778 71.2884C904.255 71.8936 902.884 72.8213 901.762 74.0064C899.463 76.722 897.964 80.0111 897.428 83.5137H922.865C922.534 79.974 921.094 76.6248 918.746 73.9341C917.711 72.8189 916.446 71.9357 915.037 71.3439C913.629 70.7522 912.108 70.4655 910.578 70.5032L910.578 70.5032Z" fill="#393939"/>
<path d="M854.645 73.2925V102.698C854.645 108.835 857.82 109.264 863.158 109.264H868.64V128.391C864.906 128.847 861.149 129.085 857.387 129.105C836.322 129.105 828.098 122.253 828.098 105.838V73.2925H817.566V54.7361H828.098V32.4683H854.645V54.7361H868.64V73.2925H854.645Z" fill="#393939"/>
</g>
<defs>
<clipPath id="clip0">
<rect width="950" height="130" fill="white"/>
</clipPath>
</defs>
</svg>
