<svg width="163" height="20" viewBox="0 0 163 20" fill="none" xmlns="http://www.w3.org/2000/svg">
<path d="M27 9.99712L16.5637 20L13.7611 17.3153L19.3123 11.9977H0V7.99655H19.3123L13.7611 2.67893L16.5637 0L27 9.99712Z" fill="#393939"/>
<path d="M61 9.99712L50.5637 20L47.7611 17.3153L53.3123 11.9977H34V7.99655H53.3123L47.7611 2.67893L50.5637 0L61 9.99712Z" fill="#393939"/>
<path d="M95 9.99712L84.5637 20L81.7611 17.3153L87.3123 11.9977H68V7.99655H87.3123L81.7611 2.67893L84.5637 0L95 9.99712Z" fill="#393939"/>
<path d="M129 9.99712L118.564 20L115.761 17.3153L121.312 11.9977H102V7.99655H121.312L115.761 2.67893L118.564 0L129 9.99712Z" fill="#393939"/>
<path d="M163 9.99712L152.564 20L149.761 17.3153L155.312 11.9977H136V7.99655H155.312L149.761 2.67893L152.564 0L163 9.99712Z" fill="#393939"/>
</svg>
