<svg width="130" height="124" viewBox="0 0 130 124" fill="none" xmlns="http://www.w3.org/2000/svg">
<path d="M129.68 79.7563C129.623 79.5857 122.049 63.5488 99.3244 50.071C107.526 36.4225 127.004 28.4609 127.004 28.4609C112.822 19.1345 76.4292 31.475 76.4292 31.475C65.2664 8.89818 43.3964 0.311035 43.3964 0.311035C45.6745 7.76081 48.4083 23.9115 46.9275 37.0481C46.9275 37.0481 22.4377 33.1242 0.339844 47.455C0.339844 47.455 20.843 49.6729 39.011 60.421C39.011 60.421 21.7542 66.6766 14.5212 95.2245C14.5212 95.2245 28.4747 86.4099 47.3831 81.5192C44.5924 96.3619 48.4652 124 48.4652 124C56.1539 106.598 61.5075 98.4092 72.1577 87.2629C86.2821 102.788 94.7112 115.754 94.7112 115.754C96.9893 98.7504 93.9138 84.8745 92.8317 73.6714C104.45 73.8989 117.606 75.0931 129.68 79.7563Z" fill="#393939"/>
</svg>
