<svg width="1344" height="603" viewBox="0 0 1344 603" fill="none" xmlns="http://www.w3.org/2000/svg">
<path d="M95.48 169L36.268 99.618H14.572V169H3.49798V9.89595L0.333984 4.47195H51.41C57.738 4.47195 63.6893 5.67729 69.264 8.08796C74.9893 10.4986 79.9613 13.8133 84.18 18.032C88.3987 22.1 91.7133 26.9213 94.124 32.496C96.6853 38.0706 97.966 44.0973 97.966 50.576C97.966 59.164 95.932 66.9233 91.864 73.854C87.9467 80.634 82.372 86.2086 75.14 90.578C70.7707 93.29 66.6273 95.324 62.71 96.68C58.7927 97.8853 54.1973 98.488 48.924 98.488L109.492 169H95.48ZM87.118 53.514C87.118 47.9393 85.988 42.666 83.728 37.694C81.6187 32.722 78.6807 28.428 74.914 24.812C71.1473 21.0453 66.778 18.1073 61.806 15.998C56.834 13.8886 51.5607 12.834 45.986 12.834H14.572V91.482H50.958C53.9713 91.482 57.06 91.1806 60.224 90.578C63.5387 89.8246 66.4767 88.6946 69.038 87.188C71.75 85.6813 74.236 83.6473 76.496 81.086C78.756 78.5246 80.6393 75.7373 82.146 72.724C83.8033 69.56 85.0087 66.396 85.762 63.232C86.666 59.9173 87.118 56.678 87.118 53.514Z" fill="#393939"/>
<path d="M228.682 113.404C228.682 123.649 226.196 132.84 221.224 140.976C216.403 149.112 209.698 155.892 201.11 161.316C195.686 164.781 190.413 167.343 185.29 169C180.318 170.808 174.593 171.712 168.114 171.712C160.43 171.712 153.198 170.281 146.418 167.418C139.638 164.555 133.687 160.638 128.564 155.666C123.592 150.694 119.6 144.818 116.586 138.038C113.724 131.258 112.292 123.951 112.292 116.116C112.292 105.72 114.703 96.5293 119.524 88.544C124.496 80.408 131.276 73.628 139.864 68.204C145.288 64.7386 150.486 62.1773 155.458 60.52C160.581 58.712 166.382 57.808 172.86 57.808C180.544 57.808 187.776 59.2393 194.556 62.102C201.336 64.9646 207.212 68.9573 212.184 74.08C217.307 79.052 221.3 84.928 224.162 91.708C227.176 98.488 228.682 105.72 228.682 113.404ZM217.834 116.116C217.834 109.185 216.554 102.707 213.992 96.68C211.431 90.5026 207.89 85.154 203.37 80.634C198.85 75.9633 193.577 72.3473 187.55 69.786C181.524 67.074 175.045 65.718 168.114 65.718C164.197 65.718 160.355 66.0946 156.588 66.848C152.972 67.6013 149.432 69.0326 145.966 71.142C138.734 75.5113 133.084 81.6133 129.016 89.448C125.099 97.132 123.14 105.117 123.14 113.404C123.14 120.335 124.421 126.889 126.982 133.066C129.544 139.093 133.084 144.441 137.604 149.112C142.124 153.632 147.398 157.248 153.424 159.96C159.451 162.521 165.93 163.802 172.86 163.802C176.326 163.802 180.168 163.35 184.386 162.446C188.605 161.542 192.221 160.186 195.234 158.378C198.7 156.269 201.788 153.632 204.5 150.468C207.363 147.304 209.774 143.839 211.732 140.072C213.691 136.305 215.198 132.388 216.252 128.32C217.307 124.252 217.834 120.184 217.834 116.116Z" fill="#393939"/>
<path d="M380.162 169V90.804C380.162 83.4213 377.752 77.3946 372.93 72.724C368.109 68.0533 362.082 65.718 354.85 65.718C348.221 65.718 342.496 67.4506 337.674 70.916C333.004 74.2306 329.162 78.6753 326.148 84.25V169H315.3V90.804C315.3 83.4213 312.89 77.3946 308.068 72.724C303.247 68.0533 297.145 65.718 289.762 65.718C283.133 65.718 277.483 67.526 272.812 71.142C268.142 74.6073 264.224 78.9766 261.06 84.25V169H250.212V67.752L247.048 62.328L260.834 57.808V75.662C264.902 70.8406 270.1 66.6973 276.428 63.232C282.907 59.616 289.386 57.808 295.864 57.808C302.343 57.808 308.144 59.4653 313.266 62.78C318.389 66.0946 322.005 70.916 324.114 77.244C326.073 74.6826 328.408 72.272 331.12 70.012C333.983 67.6013 336.996 65.492 340.16 63.684C343.475 61.876 346.865 60.4446 350.33 59.39C353.796 58.3353 357.186 57.808 360.5 57.808C369.39 57.808 376.697 60.5953 382.422 66.17C388.148 71.7446 391.01 78.9766 391.01 87.866V169H380.162Z" fill="#393939"/>
<path d="M504.468 169.904H500.852C494.373 169.904 489.552 168.774 486.388 166.514C483.374 164.103 481.566 159.583 480.964 152.954C478.553 155.666 475.841 158.152 472.828 160.412C469.814 162.521 466.801 164.48 463.788 166.288C460.774 168.096 457.761 169.452 454.748 170.356C451.734 171.26 448.42 171.712 444.804 171.712C440.434 171.712 436.291 171.034 432.374 169.678C428.456 168.322 424.991 166.439 421.978 164.028C418.964 161.467 416.554 158.378 414.746 154.762C412.938 151.146 412.034 147.003 412.034 142.332C412.034 129.525 417.533 119.807 428.532 113.178L433.504 110.24C436.818 108.281 440.359 106.775 444.126 105.72C448.043 104.515 452.036 103.611 456.104 103.008C460.172 102.255 464.24 101.727 468.308 101.426C472.526 101.125 476.519 100.899 480.286 100.748C479.984 99.0906 479.909 97.358 480.06 95.55C480.21 93.742 480.21 92.0093 480.06 90.352C479.608 82.216 476.971 76.114 472.15 72.046C467.328 67.8273 460.85 65.718 452.714 65.718C447.892 65.718 442.996 66.396 438.024 67.752C433.202 68.9573 428.607 70.6146 424.238 72.724L422.43 67.978C428.155 64.6633 433.88 62.1773 439.606 60.52C445.482 58.712 451.81 57.808 458.59 57.808C467.931 57.808 475.615 60.3693 481.642 65.492C487.819 70.464 490.908 77.8466 490.908 87.64V145.27C490.908 151.598 491.962 156.043 494.072 158.604C496.332 161.165 500.776 162.446 507.406 162.446L504.468 169.904ZM480.286 107.528C477.272 107.528 473.656 107.679 469.438 107.98C465.37 108.131 461.151 108.507 456.782 109.11C452.563 109.562 448.495 110.315 444.578 111.37C440.66 112.425 437.421 113.705 434.86 115.212C430.792 117.773 427.703 121.163 425.594 125.382C423.484 129.601 422.43 134.121 422.43 138.942C422.43 143.01 423.183 146.626 424.69 149.79C426.347 152.803 428.456 155.365 431.018 157.474C433.73 159.583 436.743 161.241 440.058 162.446C443.523 163.501 447.139 164.028 450.906 164.028C457.535 164.028 463.185 162.22 467.856 158.604C472.677 154.837 476.82 150.317 480.286 145.044V107.528Z" fill="#393939"/>
<path d="M602.958 169V96.228C602.958 86.8866 600.02 79.504 594.144 74.08C588.268 68.5053 580.734 65.718 571.544 65.718C563.558 65.718 556.854 67.4506 551.43 70.916C546.006 74.2306 540.808 78.826 535.836 84.702V169H524.988V67.752L521.824 61.65L535.61 57.808V77.018C540.883 71.7446 547.286 67.2246 554.82 63.458C562.353 59.6913 569.886 57.808 577.42 57.808C582.693 57.808 587.514 58.6366 591.884 60.294C596.404 61.9513 600.246 64.362 603.41 67.526C606.724 70.5393 609.286 74.2306 611.094 78.6C612.902 82.9693 613.806 87.7906 613.806 93.064V169H602.958Z" fill="#393939"/>
<path d="M832.12 159.056C827.901 161.768 823.758 164.028 819.69 165.836C815.773 167.493 811.78 168.774 807.712 169.678C803.644 170.733 799.425 171.486 795.056 171.938C790.687 172.39 786.016 172.616 781.044 172.616C769.443 172.616 758.444 170.431 748.048 166.062C737.803 161.693 728.838 155.741 721.154 148.208C713.47 140.524 707.368 131.559 702.848 121.314C698.328 111.069 696.068 100.07 696.068 88.318C696.068 71.4433 700.287 56.5273 708.724 43.57C717.312 30.6126 728.913 20.2166 743.528 12.382C750.308 8.76596 757.088 5.97862 763.868 4.01996C770.799 1.91062 778.181 0.855957 786.016 0.855957C794.001 0.855957 801.761 1.68462 809.294 3.34195C816.827 4.99928 824.135 7.63595 831.216 11.252L827.374 21.196C820.142 16.9773 812.759 13.964 805.226 12.156C797.693 10.1973 789.783 9.21796 781.496 9.21796C775.017 9.21796 768.614 9.97129 762.286 11.478C756.109 12.834 750.157 15.1693 744.432 18.484C738.556 21.9493 733.283 26.0926 728.612 30.914C724.092 35.7353 720.25 41.084 717.086 46.96C713.922 52.836 711.511 59.0886 709.854 65.718C708.197 72.1966 707.368 78.7506 707.368 85.38C707.368 96.228 709.402 106.473 713.47 116.116C717.689 125.608 723.339 133.97 730.42 141.202C737.652 148.434 746.014 154.159 755.506 158.378C765.149 162.446 775.394 164.48 786.242 164.48C794.378 164.48 802.137 163.576 809.52 161.768C817.053 159.96 824.436 157.022 831.668 152.954L832.12 159.056Z" fill="#393939"/>
<path d="M941.239 169.904H937.623C931.144 169.904 926.323 168.774 923.159 166.514C920.146 164.103 918.338 159.583 917.735 152.954C915.324 155.666 912.612 158.152 909.599 160.412C906.586 162.521 903.572 164.48 900.559 166.288C897.546 168.096 894.532 169.452 891.519 170.356C888.506 171.26 885.191 171.712 881.575 171.712C877.206 171.712 873.062 171.034 869.145 169.678C865.228 168.322 861.762 166.439 858.749 164.028C855.736 161.467 853.325 158.378 851.517 154.762C849.709 151.146 848.805 147.003 848.805 142.332C848.805 129.525 854.304 119.807 865.303 113.178L870.275 110.24C873.59 108.281 877.13 106.775 880.897 105.72C884.814 104.515 888.807 103.611 892.875 103.008C896.943 102.255 901.011 101.727 905.079 101.426C909.298 101.125 913.29 100.899 917.057 100.748C916.756 99.0906 916.68 97.358 916.831 95.55C916.982 93.742 916.982 92.0093 916.831 90.352C916.379 82.216 913.742 76.114 908.921 72.046C904.1 67.8273 897.621 65.718 889.485 65.718C884.664 65.718 879.767 66.396 874.795 67.752C869.974 68.9573 865.378 70.6146 861.009 72.724L859.201 67.978C864.926 64.6633 870.652 62.1773 876.377 60.52C882.253 58.712 888.581 57.808 895.361 57.808C904.702 57.808 912.386 60.3693 918.413 65.492C924.59 70.464 927.679 77.8466 927.679 87.64V145.27C927.679 151.598 928.734 156.043 930.843 158.604C933.103 161.165 937.548 162.446 944.177 162.446L941.239 169.904ZM917.057 107.528C914.044 107.528 910.428 107.679 906.209 107.98C902.141 108.131 897.922 108.507 893.553 109.11C889.334 109.562 885.266 110.315 881.349 111.37C877.432 112.425 874.192 113.705 871.631 115.212C867.563 117.773 864.474 121.163 862.365 125.382C860.256 129.601 859.201 134.121 859.201 138.942C859.201 143.01 859.954 146.626 861.461 149.79C863.118 152.803 865.228 155.365 867.789 157.474C870.501 159.583 873.514 161.241 876.829 162.446C880.294 163.501 883.91 164.028 887.677 164.028C894.306 164.028 899.956 162.22 904.627 158.604C909.448 154.837 913.592 150.317 917.057 145.044V107.528Z" fill="#393939"/>
<path d="M1039.73 169V96.228C1039.73 86.8866 1036.79 79.504 1030.92 74.08C1025.04 68.5053 1017.51 65.718 1008.32 65.718C1000.33 65.718 993.625 67.4506 988.201 70.916C982.777 74.2306 977.579 78.826 972.607 84.702V169H961.759V67.752L958.595 61.65L972.381 57.808V77.018C977.654 71.7446 984.058 67.2246 991.591 63.458C999.125 59.6913 1006.66 57.808 1014.19 57.808C1019.46 57.808 1024.29 58.6366 1028.66 60.294C1033.18 61.9513 1037.02 64.362 1040.18 67.526C1043.5 70.5393 1046.06 74.2306 1047.87 78.6C1049.67 82.9693 1050.58 87.7906 1050.58 93.064V169H1039.73Z" fill="#393939"/>
<path d="M1162.35 169V158.152C1157.07 162.22 1151.27 165.535 1144.94 168.096C1138.62 170.507 1132.06 171.712 1125.28 171.712C1117.6 171.712 1110.37 170.281 1103.59 167.418C1096.96 164.405 1091.16 160.412 1086.18 155.44C1081.36 150.317 1077.52 144.441 1074.66 137.812C1071.8 131.032 1070.36 123.8 1070.36 116.116C1070.36 106.021 1072.85 96.8306 1077.82 88.544C1082.79 80.2573 1089.5 73.4773 1097.94 68.204C1103.21 64.8893 1108.26 62.328 1113.08 60.52C1118.05 58.712 1123.7 57.808 1130.03 57.808C1135.75 57.808 1141.4 58.7873 1146.98 60.746C1152.7 62.554 1157.83 65.266 1162.35 68.882V12.608L1159.18 7.18396L1173.19 2.66395V169H1162.35ZM1162.35 81.312C1157.68 76.34 1152.18 72.498 1145.85 69.786C1139.52 67.074 1132.97 65.718 1126.19 65.718C1122.27 65.718 1118.43 66.0946 1114.66 66.848C1111.04 67.6013 1107.58 69.0326 1104.26 71.142C1097.03 75.5113 1091.38 81.538 1087.31 89.222C1083.25 96.906 1081.21 104.967 1081.21 113.404C1081.21 120.335 1082.49 126.889 1085.05 133.066C1087.62 139.093 1091.16 144.441 1095.68 149.112C1100.2 153.632 1105.47 157.248 1111.5 159.96C1117.52 162.521 1124 163.802 1130.93 163.802C1142.99 163.802 1153.46 159.659 1162.35 151.372V81.312Z" fill="#393939"/>
<path d="M1203.21 169V12.608L1200.04 7.18396L1214.06 2.66395V169H1203.21Z" fill="#393939"/>
<path d="M1293.53 57.808C1299.56 57.808 1305.21 58.8626 1310.48 60.972C1315.91 62.9306 1320.73 65.718 1324.95 69.334C1329.32 72.95 1333.01 77.244 1336.02 82.216C1339.03 87.0373 1341.14 92.386 1342.35 98.262C1342.8 100.823 1343.1 103.309 1343.25 105.72C1343.4 108.131 1343.48 110.617 1343.48 113.178H1246.75C1246.45 114.082 1246.3 114.76 1246.3 115.212C1246.3 121.841 1247.65 128.169 1250.37 134.196C1253.08 140.072 1256.77 145.27 1261.44 149.79C1266.11 154.159 1271.46 157.625 1277.49 160.186C1283.51 162.747 1289.84 164.028 1296.47 164.028C1300.84 164.028 1305.28 163.576 1309.8 162.672C1314.48 161.617 1318.77 159.96 1322.69 157.7C1325.1 156.193 1327.36 154.536 1329.47 152.728C1331.73 150.92 1333.91 149.187 1336.02 147.53L1339.18 152.276C1336.17 155.289 1332.78 158.001 1329.01 160.412C1325.25 162.672 1321.26 164.706 1317.04 166.514C1312.97 168.171 1308.67 169.452 1304.15 170.356C1299.79 171.26 1295.57 171.712 1291.5 171.712C1283.66 171.712 1276.36 170.281 1269.58 167.418C1262.8 164.555 1256.85 160.638 1251.72 155.666C1246.75 150.694 1242.76 144.818 1239.74 138.038C1236.88 131.258 1235.45 123.951 1235.45 116.116C1235.45 105.871 1237.86 96.6046 1242.68 88.318C1247.5 80.0313 1254.21 73.176 1262.8 67.752C1267.92 64.4373 1272.74 61.9513 1277.26 60.294C1281.78 58.6366 1287.2 57.808 1293.53 57.808ZM1333.31 105.72C1332.86 99.9946 1331.35 94.7213 1328.79 89.9C1326.23 84.928 1322.99 80.7093 1319.07 77.244C1315.15 73.628 1310.63 70.8406 1305.51 68.882C1300.39 66.7726 1294.96 65.718 1289.24 65.718C1285.62 65.718 1282.08 66.0946 1278.62 66.848C1275.15 67.6013 1271.84 68.882 1268.67 70.69C1262.5 74.1553 1257.52 79.1273 1253.76 85.606C1249.99 92.0846 1247.73 98.7893 1246.98 105.72H1333.31Z" fill="#393939"/>
<path d="M95.48 384L36.268 314.618H14.572V384H3.49798V224.896L0.333984 219.472H51.41C57.738 219.472 63.6893 220.677 69.264 223.088C74.9893 225.499 79.9613 228.813 84.18 233.032C88.3987 237.1 91.7133 241.921 94.124 247.496C96.6853 253.071 97.966 259.097 97.966 265.576C97.966 274.164 95.932 281.923 91.864 288.854C87.9467 295.634 82.372 301.209 75.14 305.578C70.7707 308.29 66.6273 310.324 62.71 311.68C58.7927 312.885 54.1973 313.488 48.924 313.488L109.492 384H95.48ZM87.118 268.514C87.118 262.939 85.988 257.666 83.728 252.694C81.6187 247.722 78.6807 243.428 74.914 239.812C71.1473 236.045 66.778 233.107 61.806 230.998C56.834 228.889 51.5607 227.834 45.986 227.834H14.572V306.482H50.958C53.9713 306.482 57.06 306.181 60.224 305.578C63.5387 304.825 66.4767 303.695 69.038 302.188C71.75 300.681 74.236 298.647 76.496 296.086C78.756 293.525 80.6393 290.737 82.146 287.724C83.8033 284.56 85.0087 281.396 85.762 278.232C86.666 274.917 87.118 271.678 87.118 268.514Z" fill="#393939"/>
<path d="M228.682 328.404C228.682 338.649 226.196 347.84 221.224 355.976C216.403 364.112 209.698 370.892 201.11 376.316C195.686 379.781 190.413 382.343 185.29 384C180.318 385.808 174.593 386.712 168.114 386.712C160.43 386.712 153.198 385.281 146.418 382.418C139.638 379.555 133.687 375.638 128.564 370.666C123.592 365.694 119.6 359.818 116.586 353.038C113.724 346.258 112.292 338.951 112.292 331.116C112.292 320.72 114.703 311.529 119.524 303.544C124.496 295.408 131.276 288.628 139.864 283.204C145.288 279.739 150.486 277.177 155.458 275.52C160.581 273.712 166.382 272.808 172.86 272.808C180.544 272.808 187.776 274.239 194.556 277.102C201.336 279.965 207.212 283.957 212.184 289.08C217.307 294.052 221.3 299.928 224.162 306.708C227.176 313.488 228.682 320.72 228.682 328.404ZM217.834 331.116C217.834 324.185 216.554 317.707 213.992 311.68C211.431 305.503 207.89 300.154 203.37 295.634C198.85 290.963 193.577 287.347 187.55 284.786C181.524 282.074 175.045 280.718 168.114 280.718C164.197 280.718 160.355 281.095 156.588 281.848C152.972 282.601 149.432 284.033 145.966 286.142C138.734 290.511 133.084 296.613 129.016 304.448C125.099 312.132 123.14 320.117 123.14 328.404C123.14 335.335 124.421 341.889 126.982 348.066C129.544 354.093 133.084 359.441 137.604 364.112C142.124 368.632 147.398 372.248 153.424 374.96C159.451 377.521 165.93 378.802 172.86 378.802C176.326 378.802 180.168 378.35 184.386 377.446C188.605 376.542 192.221 375.186 195.234 373.378C198.7 371.269 201.788 368.632 204.5 365.468C207.363 362.304 209.774 358.839 211.732 355.072C213.691 351.305 215.198 347.388 216.252 343.32C217.307 339.252 217.834 335.184 217.834 331.116Z" fill="#393939"/>
<path d="M380.162 384V305.804C380.162 298.421 377.752 292.395 372.93 287.724C368.109 283.053 362.082 280.718 354.85 280.718C348.221 280.718 342.496 282.451 337.674 285.916C333.004 289.231 329.162 293.675 326.148 299.25V384H315.3V305.804C315.3 298.421 312.89 292.395 308.068 287.724C303.247 283.053 297.145 280.718 289.762 280.718C283.133 280.718 277.483 282.526 272.812 286.142C268.142 289.607 264.224 293.977 261.06 299.25V384H250.212V282.752L247.048 277.328L260.834 272.808V290.662C264.902 285.841 270.1 281.697 276.428 278.232C282.907 274.616 289.386 272.808 295.864 272.808C302.343 272.808 308.144 274.465 313.266 277.78C318.389 281.095 322.005 285.916 324.114 292.244C326.073 289.683 328.408 287.272 331.12 285.012C333.983 282.601 336.996 280.492 340.16 278.684C343.475 276.876 346.865 275.445 350.33 274.39C353.796 273.335 357.186 272.808 360.5 272.808C369.39 272.808 376.697 275.595 382.422 281.17C388.148 286.745 391.01 293.977 391.01 302.866V384H380.162Z" fill="#393939"/>
<path d="M504.468 384.904H500.852C494.373 384.904 489.552 383.774 486.388 381.514C483.374 379.103 481.566 374.583 480.964 367.954C478.553 370.666 475.841 373.152 472.828 375.412C469.814 377.521 466.801 379.48 463.788 381.288C460.774 383.096 457.761 384.452 454.748 385.356C451.734 386.26 448.42 386.712 444.804 386.712C440.434 386.712 436.291 386.034 432.374 384.678C428.456 383.322 424.991 381.439 421.978 379.028C418.964 376.467 416.554 373.378 414.746 369.762C412.938 366.146 412.034 362.003 412.034 357.332C412.034 344.525 417.533 334.807 428.532 328.178L433.504 325.24C436.818 323.281 440.359 321.775 444.126 320.72C448.043 319.515 452.036 318.611 456.104 318.008C460.172 317.255 464.24 316.727 468.308 316.426C472.526 316.125 476.519 315.899 480.286 315.748C479.984 314.091 479.909 312.358 480.06 310.55C480.21 308.742 480.21 307.009 480.06 305.352C479.608 297.216 476.971 291.114 472.15 287.046C467.328 282.827 460.85 280.718 452.714 280.718C447.892 280.718 442.996 281.396 438.024 282.752C433.202 283.957 428.607 285.615 424.238 287.724L422.43 282.978C428.155 279.663 433.88 277.177 439.606 275.52C445.482 273.712 451.81 272.808 458.59 272.808C467.931 272.808 475.615 275.369 481.642 280.492C487.819 285.464 490.908 292.847 490.908 302.64V360.27C490.908 366.598 491.962 371.043 494.072 373.604C496.332 376.165 500.776 377.446 507.406 377.446L504.468 384.904ZM480.286 322.528C477.272 322.528 473.656 322.679 469.438 322.98C465.37 323.131 461.151 323.507 456.782 324.11C452.563 324.562 448.495 325.315 444.578 326.37C440.66 327.425 437.421 328.705 434.86 330.212C430.792 332.773 427.703 336.163 425.594 340.382C423.484 344.601 422.43 349.121 422.43 353.942C422.43 358.01 423.183 361.626 424.69 364.79C426.347 367.803 428.456 370.365 431.018 372.474C433.73 374.583 436.743 376.241 440.058 377.446C443.523 378.501 447.139 379.028 450.906 379.028C457.535 379.028 463.185 377.22 467.856 373.604C472.677 369.837 476.82 365.317 480.286 360.044V322.528Z" fill="#393939"/>
<path d="M602.958 384V311.228C602.958 301.887 600.02 294.504 594.144 289.08C588.268 283.505 580.734 280.718 571.544 280.718C563.558 280.718 556.854 282.451 551.43 285.916C546.006 289.231 540.808 293.826 535.836 299.702V384H524.988V282.752L521.824 276.65L535.61 272.808V292.018C540.883 286.745 547.286 282.225 554.82 278.458C562.353 274.691 569.886 272.808 577.42 272.808C582.693 272.808 587.514 273.637 591.884 275.294C596.404 276.951 600.246 279.362 603.41 282.526C606.724 285.539 609.286 289.231 611.094 293.6C612.902 297.969 613.806 302.791 613.806 308.064V384H602.958Z" fill="#393939"/>
<path d="M832.12 374.056C827.901 376.768 823.758 379.028 819.69 380.836C815.773 382.493 811.78 383.774 807.712 384.678C803.644 385.733 799.425 386.486 795.056 386.938C790.687 387.39 786.016 387.616 781.044 387.616C769.443 387.616 758.444 385.431 748.048 381.062C737.803 376.693 728.838 370.741 721.154 363.208C713.47 355.524 707.368 346.559 702.848 336.314C698.328 326.069 696.068 315.07 696.068 303.318C696.068 286.443 700.287 271.527 708.724 258.57C717.312 245.613 728.913 235.217 743.528 227.382C750.308 223.766 757.088 220.979 763.868 219.02C770.799 216.911 778.181 215.856 786.016 215.856C794.001 215.856 801.761 216.685 809.294 218.342C816.827 219.999 824.135 222.636 831.216 226.252L827.374 236.196C820.142 231.977 812.759 228.964 805.226 227.156C797.693 225.197 789.783 224.218 781.496 224.218C775.017 224.218 768.614 224.971 762.286 226.478C756.109 227.834 750.157 230.169 744.432 233.484C738.556 236.949 733.283 241.093 728.612 245.914C724.092 250.735 720.25 256.084 717.086 261.96C713.922 267.836 711.511 274.089 709.854 280.718C708.197 287.197 707.368 293.751 707.368 300.38C707.368 311.228 709.402 321.473 713.47 331.116C717.689 340.608 723.339 348.97 730.42 356.202C737.652 363.434 746.014 369.159 755.506 373.378C765.149 377.446 775.394 379.48 786.242 379.48C794.378 379.48 802.137 378.576 809.52 376.768C817.053 374.96 824.436 372.022 831.668 367.954L832.12 374.056Z" fill="#393939"/>
<path d="M941.239 384.904H937.623C931.144 384.904 926.323 383.774 923.159 381.514C920.146 379.103 918.338 374.583 917.735 367.954C915.324 370.666 912.612 373.152 909.599 375.412C906.586 377.521 903.572 379.48 900.559 381.288C897.546 383.096 894.532 384.452 891.519 385.356C888.506 386.26 885.191 386.712 881.575 386.712C877.206 386.712 873.062 386.034 869.145 384.678C865.228 383.322 861.762 381.439 858.749 379.028C855.736 376.467 853.325 373.378 851.517 369.762C849.709 366.146 848.805 362.003 848.805 357.332C848.805 344.525 854.304 334.807 865.303 328.178L870.275 325.24C873.59 323.281 877.13 321.775 880.897 320.72C884.814 319.515 888.807 318.611 892.875 318.008C896.943 317.255 901.011 316.727 905.079 316.426C909.298 316.125 913.29 315.899 917.057 315.748C916.756 314.091 916.68 312.358 916.831 310.55C916.982 308.742 916.982 307.009 916.831 305.352C916.379 297.216 913.742 291.114 908.921 287.046C904.1 282.827 897.621 280.718 889.485 280.718C884.664 280.718 879.767 281.396 874.795 282.752C869.974 283.957 865.378 285.615 861.009 287.724L859.201 282.978C864.926 279.663 870.652 277.177 876.377 275.52C882.253 273.712 888.581 272.808 895.361 272.808C904.702 272.808 912.386 275.369 918.413 280.492C924.59 285.464 927.679 292.847 927.679 302.64V360.27C927.679 366.598 928.734 371.043 930.843 373.604C933.103 376.165 937.548 377.446 944.177 377.446L941.239 384.904ZM917.057 322.528C914.044 322.528 910.428 322.679 906.209 322.98C902.141 323.131 897.922 323.507 893.553 324.11C889.334 324.562 885.266 325.315 881.349 326.37C877.432 327.425 874.192 328.705 871.631 330.212C867.563 332.773 864.474 336.163 862.365 340.382C860.256 344.601 859.201 349.121 859.201 353.942C859.201 358.01 859.954 361.626 861.461 364.79C863.118 367.803 865.228 370.365 867.789 372.474C870.501 374.583 873.514 376.241 876.829 377.446C880.294 378.501 883.91 379.028 887.677 379.028C894.306 379.028 899.956 377.22 904.627 373.604C909.448 369.837 913.592 365.317 917.057 360.044V322.528Z" fill="#393939"/>
<path d="M1039.73 384V311.228C1039.73 301.887 1036.79 294.504 1030.92 289.08C1025.04 283.505 1017.51 280.718 1008.32 280.718C1000.33 280.718 993.625 282.451 988.201 285.916C982.777 289.231 977.579 293.826 972.607 299.702V384H961.759V282.752L958.595 276.65L972.381 272.808V292.018C977.654 286.745 984.058 282.225 991.591 278.458C999.125 274.691 1006.66 272.808 1014.19 272.808C1019.46 272.808 1024.29 273.637 1028.66 275.294C1033.18 276.951 1037.02 279.362 1040.18 282.526C1043.5 285.539 1046.06 289.231 1047.87 293.6C1049.67 297.969 1050.58 302.791 1050.58 308.064V384H1039.73Z" fill="#393939"/>
<path d="M1162.35 384V373.152C1157.07 377.22 1151.27 380.535 1144.94 383.096C1138.62 385.507 1132.06 386.712 1125.28 386.712C1117.6 386.712 1110.37 385.281 1103.59 382.418C1096.96 379.405 1091.16 375.412 1086.18 370.44C1081.36 365.317 1077.52 359.441 1074.66 352.812C1071.8 346.032 1070.36 338.8 1070.36 331.116C1070.36 321.021 1072.85 311.831 1077.82 303.544C1082.79 295.257 1089.5 288.477 1097.94 283.204C1103.21 279.889 1108.26 277.328 1113.08 275.52C1118.05 273.712 1123.7 272.808 1130.03 272.808C1135.75 272.808 1141.4 273.787 1146.98 275.746C1152.7 277.554 1157.83 280.266 1162.35 283.882V227.608L1159.18 222.184L1173.19 217.664V384H1162.35ZM1162.35 296.312C1157.68 291.34 1152.18 287.498 1145.85 284.786C1139.52 282.074 1132.97 280.718 1126.19 280.718C1122.27 280.718 1118.43 281.095 1114.66 281.848C1111.04 282.601 1107.58 284.033 1104.26 286.142C1097.03 290.511 1091.38 296.538 1087.31 304.222C1083.25 311.906 1081.21 319.967 1081.21 328.404C1081.21 335.335 1082.49 341.889 1085.05 348.066C1087.62 354.093 1091.16 359.441 1095.68 364.112C1100.2 368.632 1105.47 372.248 1111.5 374.96C1117.52 377.521 1124 378.802 1130.93 378.802C1142.99 378.802 1153.46 374.659 1162.35 366.372V296.312Z" fill="#393939"/>
<path d="M1203.21 384V227.608L1200.04 222.184L1214.06 217.664V384H1203.21Z" fill="#393939"/>
<path d="M1293.53 272.808C1299.56 272.808 1305.21 273.863 1310.48 275.972C1315.91 277.931 1320.73 280.718 1324.95 284.334C1329.32 287.95 1333.01 292.244 1336.02 297.216C1339.03 302.037 1341.14 307.386 1342.35 313.262C1342.8 315.823 1343.1 318.309 1343.25 320.72C1343.4 323.131 1343.48 325.617 1343.48 328.178H1246.75C1246.45 329.082 1246.3 329.76 1246.3 330.212C1246.3 336.841 1247.65 343.169 1250.37 349.196C1253.08 355.072 1256.77 360.27 1261.44 364.79C1266.11 369.159 1271.46 372.625 1277.49 375.186C1283.51 377.747 1289.84 379.028 1296.47 379.028C1300.84 379.028 1305.28 378.576 1309.8 377.672C1314.48 376.617 1318.77 374.96 1322.69 372.7C1325.1 371.193 1327.36 369.536 1329.47 367.728C1331.73 365.92 1333.91 364.187 1336.02 362.53L1339.18 367.276C1336.17 370.289 1332.78 373.001 1329.01 375.412C1325.25 377.672 1321.26 379.706 1317.04 381.514C1312.97 383.171 1308.67 384.452 1304.15 385.356C1299.79 386.26 1295.57 386.712 1291.5 386.712C1283.66 386.712 1276.36 385.281 1269.58 382.418C1262.8 379.555 1256.85 375.638 1251.72 370.666C1246.75 365.694 1242.76 359.818 1239.74 353.038C1236.88 346.258 1235.45 338.951 1235.45 331.116C1235.45 320.871 1237.86 311.605 1242.68 303.318C1247.5 295.031 1254.21 288.176 1262.8 282.752C1267.92 279.437 1272.74 276.951 1277.26 275.294C1281.78 273.637 1287.2 272.808 1293.53 272.808ZM1333.31 320.72C1332.86 314.995 1331.35 309.721 1328.79 304.9C1326.23 299.928 1322.99 295.709 1319.07 292.244C1315.15 288.628 1310.63 285.841 1305.51 283.882C1300.39 281.773 1294.96 280.718 1289.24 280.718C1285.62 280.718 1282.08 281.095 1278.62 281.848C1275.15 282.601 1271.84 283.882 1268.67 285.69C1262.5 289.155 1257.52 294.127 1253.76 300.606C1249.99 307.085 1247.73 313.789 1246.98 320.72H1333.31Z" fill="#393939"/>
<path d="M95.48 599L36.268 529.618H14.572V599H3.49798V439.896L0.333984 434.472H51.41C57.738 434.472 63.6893 435.677 69.264 438.088C74.9893 440.499 79.9613 443.813 84.18 448.032C88.3987 452.1 91.7133 456.921 94.124 462.496C96.6853 468.071 97.966 474.097 97.966 480.576C97.966 489.164 95.932 496.923 91.864 503.854C87.9467 510.634 82.372 516.209 75.14 520.578C70.7707 523.29 66.6273 525.324 62.71 526.68C58.7927 527.885 54.1973 528.488 48.924 528.488L109.492 599H95.48ZM87.118 483.514C87.118 477.939 85.988 472.666 83.728 467.694C81.6187 462.722 78.6807 458.428 74.914 454.812C71.1473 451.045 66.778 448.107 61.806 445.998C56.834 443.889 51.5607 442.834 45.986 442.834H14.572V521.482H50.958C53.9713 521.482 57.06 521.181 60.224 520.578C63.5387 519.825 66.4767 518.695 69.038 517.188C71.75 515.681 74.236 513.647 76.496 511.086C78.756 508.525 80.6393 505.737 82.146 502.724C83.8033 499.56 85.0087 496.396 85.762 493.232C86.666 489.917 87.118 486.678 87.118 483.514Z" fill="#393939"/>
<path d="M228.682 543.404C228.682 553.649 226.196 562.84 221.224 570.976C216.403 579.112 209.698 585.892 201.11 591.316C195.686 594.781 190.413 597.343 185.29 599C180.318 600.808 174.593 601.712 168.114 601.712C160.43 601.712 153.198 600.281 146.418 597.418C139.638 594.555 133.687 590.638 128.564 585.666C123.592 580.694 119.6 574.818 116.586 568.038C113.724 561.258 112.292 553.951 112.292 546.116C112.292 535.72 114.703 526.529 119.524 518.544C124.496 510.408 131.276 503.628 139.864 498.204C145.288 494.739 150.486 492.177 155.458 490.52C160.581 488.712 166.382 487.808 172.86 487.808C180.544 487.808 187.776 489.239 194.556 492.102C201.336 494.965 207.212 498.957 212.184 504.08C217.307 509.052 221.3 514.928 224.162 521.708C227.176 528.488 228.682 535.72 228.682 543.404ZM217.834 546.116C217.834 539.185 216.554 532.707 213.992 526.68C211.431 520.503 207.89 515.154 203.37 510.634C198.85 505.963 193.577 502.347 187.55 499.786C181.524 497.074 175.045 495.718 168.114 495.718C164.197 495.718 160.355 496.095 156.588 496.848C152.972 497.601 149.432 499.033 145.966 501.142C138.734 505.511 133.084 511.613 129.016 519.448C125.099 527.132 123.14 535.117 123.14 543.404C123.14 550.335 124.421 556.889 126.982 563.066C129.544 569.093 133.084 574.441 137.604 579.112C142.124 583.632 147.398 587.248 153.424 589.96C159.451 592.521 165.93 593.802 172.86 593.802C176.326 593.802 180.168 593.35 184.386 592.446C188.605 591.542 192.221 590.186 195.234 588.378C198.7 586.269 201.788 583.632 204.5 580.468C207.363 577.304 209.774 573.839 211.732 570.072C213.691 566.305 215.198 562.388 216.252 558.32C217.307 554.252 217.834 550.184 217.834 546.116Z" fill="#393939"/>
<path d="M380.162 599V520.804C380.162 513.421 377.752 507.395 372.93 502.724C368.109 498.053 362.082 495.718 354.85 495.718C348.221 495.718 342.496 497.451 337.674 500.916C333.004 504.231 329.162 508.675 326.148 514.25V599H315.3V520.804C315.3 513.421 312.89 507.395 308.068 502.724C303.247 498.053 297.145 495.718 289.762 495.718C283.133 495.718 277.483 497.526 272.812 501.142C268.142 504.607 264.224 508.977 261.06 514.25V599H250.212V497.752L247.048 492.328L260.834 487.808V505.662C264.902 500.841 270.1 496.697 276.428 493.232C282.907 489.616 289.386 487.808 295.864 487.808C302.343 487.808 308.144 489.465 313.266 492.78C318.389 496.095 322.005 500.916 324.114 507.244C326.073 504.683 328.408 502.272 331.12 500.012C333.983 497.601 336.996 495.492 340.16 493.684C343.475 491.876 346.865 490.445 350.33 489.39C353.796 488.335 357.186 487.808 360.5 487.808C369.39 487.808 376.697 490.595 382.422 496.17C388.148 501.745 391.01 508.977 391.01 517.866V599H380.162Z" fill="#393939"/>
<path d="M504.468 599.904H500.852C494.373 599.904 489.552 598.774 486.388 596.514C483.374 594.103 481.566 589.583 480.964 582.954C478.553 585.666 475.841 588.152 472.828 590.412C469.814 592.521 466.801 594.48 463.788 596.288C460.774 598.096 457.761 599.452 454.748 600.356C451.734 601.26 448.42 601.712 444.804 601.712C440.434 601.712 436.291 601.034 432.374 599.678C428.456 598.322 424.991 596.439 421.978 594.028C418.964 591.467 416.554 588.378 414.746 584.762C412.938 581.146 412.034 577.003 412.034 572.332C412.034 559.525 417.533 549.807 428.532 543.178L433.504 540.24C436.818 538.281 440.359 536.775 444.126 535.72C448.043 534.515 452.036 533.611 456.104 533.008C460.172 532.255 464.24 531.727 468.308 531.426C472.526 531.125 476.519 530.899 480.286 530.748C479.984 529.091 479.909 527.358 480.06 525.55C480.21 523.742 480.21 522.009 480.06 520.352C479.608 512.216 476.971 506.114 472.15 502.046C467.328 497.827 460.85 495.718 452.714 495.718C447.892 495.718 442.996 496.396 438.024 497.752C433.202 498.957 428.607 500.615 424.238 502.724L422.43 497.978C428.155 494.663 433.88 492.177 439.606 490.52C445.482 488.712 451.81 487.808 458.59 487.808C467.931 487.808 475.615 490.369 481.642 495.492C487.819 500.464 490.908 507.847 490.908 517.64V575.27C490.908 581.598 491.962 586.043 494.072 588.604C496.332 591.165 500.776 592.446 507.406 592.446L504.468 599.904ZM480.286 537.528C477.272 537.528 473.656 537.679 469.438 537.98C465.37 538.131 461.151 538.507 456.782 539.11C452.563 539.562 448.495 540.315 444.578 541.37C440.66 542.425 437.421 543.705 434.86 545.212C430.792 547.773 427.703 551.163 425.594 555.382C423.484 559.601 422.43 564.121 422.43 568.942C422.43 573.01 423.183 576.626 424.69 579.79C426.347 582.803 428.456 585.365 431.018 587.474C433.73 589.583 436.743 591.241 440.058 592.446C443.523 593.501 447.139 594.028 450.906 594.028C457.535 594.028 463.185 592.22 467.856 588.604C472.677 584.837 476.82 580.317 480.286 575.044V537.528Z" fill="#393939"/>
<path d="M602.958 599V526.228C602.958 516.887 600.02 509.504 594.144 504.08C588.268 498.505 580.734 495.718 571.544 495.718C563.558 495.718 556.854 497.451 551.43 500.916C546.006 504.231 540.808 508.826 535.836 514.702V599H524.988V497.752L521.824 491.65L535.61 487.808V507.018C540.883 501.745 547.286 497.225 554.82 493.458C562.353 489.691 569.886 487.808 577.42 487.808C582.693 487.808 587.514 488.637 591.884 490.294C596.404 491.951 600.246 494.362 603.41 497.526C606.724 500.539 609.286 504.231 611.094 508.6C612.902 512.969 613.806 517.791 613.806 523.064V599H602.958Z" fill="#393939"/>
<path d="M832.12 589.056C827.901 591.768 823.758 594.028 819.69 595.836C815.773 597.493 811.78 598.774 807.712 599.678C803.644 600.733 799.425 601.486 795.056 601.938C790.687 602.39 786.016 602.616 781.044 602.616C769.443 602.616 758.444 600.431 748.048 596.062C737.803 591.693 728.838 585.741 721.154 578.208C713.47 570.524 707.368 561.559 702.848 551.314C698.328 541.069 696.068 530.07 696.068 518.318C696.068 501.443 700.287 486.527 708.724 473.57C717.312 460.613 728.913 450.217 743.528 442.382C750.308 438.766 757.088 435.979 763.868 434.02C770.799 431.911 778.181 430.856 786.016 430.856C794.001 430.856 801.761 431.685 809.294 433.342C816.827 434.999 824.135 437.636 831.216 441.252L827.374 451.196C820.142 446.977 812.759 443.964 805.226 442.156C797.693 440.197 789.783 439.218 781.496 439.218C775.017 439.218 768.614 439.971 762.286 441.478C756.109 442.834 750.157 445.169 744.432 448.484C738.556 451.949 733.283 456.093 728.612 460.914C724.092 465.735 720.25 471.084 717.086 476.96C713.922 482.836 711.511 489.089 709.854 495.718C708.197 502.197 707.368 508.751 707.368 515.38C707.368 526.228 709.402 536.473 713.47 546.116C717.689 555.608 723.339 563.97 730.42 571.202C737.652 578.434 746.014 584.159 755.506 588.378C765.149 592.446 775.394 594.48 786.242 594.48C794.378 594.48 802.137 593.576 809.52 591.768C817.053 589.96 824.436 587.022 831.668 582.954L832.12 589.056Z" fill="#393939"/>
<path d="M941.239 599.904H937.623C931.144 599.904 926.323 598.774 923.159 596.514C920.146 594.103 918.338 589.583 917.735 582.954C915.324 585.666 912.612 588.152 909.599 590.412C906.586 592.521 903.572 594.48 900.559 596.288C897.546 598.096 894.532 599.452 891.519 600.356C888.506 601.26 885.191 601.712 881.575 601.712C877.206 601.712 873.062 601.034 869.145 599.678C865.228 598.322 861.762 596.439 858.749 594.028C855.736 591.467 853.325 588.378 851.517 584.762C849.709 581.146 848.805 577.003 848.805 572.332C848.805 559.525 854.304 549.807 865.303 543.178L870.275 540.24C873.59 538.281 877.13 536.775 880.897 535.72C884.814 534.515 888.807 533.611 892.875 533.008C896.943 532.255 901.011 531.727 905.079 531.426C909.298 531.125 913.29 530.899 917.057 530.748C916.756 529.091 916.68 527.358 916.831 525.55C916.982 523.742 916.982 522.009 916.831 520.352C916.379 512.216 913.742 506.114 908.921 502.046C904.1 497.827 897.621 495.718 889.485 495.718C884.664 495.718 879.767 496.396 874.795 497.752C869.974 498.957 865.378 500.615 861.009 502.724L859.201 497.978C864.926 494.663 870.652 492.177 876.377 490.52C882.253 488.712 888.581 487.808 895.361 487.808C904.702 487.808 912.386 490.369 918.413 495.492C924.59 500.464 927.679 507.847 927.679 517.64V575.27C927.679 581.598 928.734 586.043 930.843 588.604C933.103 591.165 937.548 592.446 944.177 592.446L941.239 599.904ZM917.057 537.528C914.044 537.528 910.428 537.679 906.209 537.98C902.141 538.131 897.922 538.507 893.553 539.11C889.334 539.562 885.266 540.315 881.349 541.37C877.432 542.425 874.192 543.705 871.631 545.212C867.563 547.773 864.474 551.163 862.365 555.382C860.256 559.601 859.201 564.121 859.201 568.942C859.201 573.01 859.954 576.626 861.461 579.79C863.118 582.803 865.228 585.365 867.789 587.474C870.501 589.583 873.514 591.241 876.829 592.446C880.294 593.501 883.91 594.028 887.677 594.028C894.306 594.028 899.956 592.22 904.627 588.604C909.448 584.837 913.592 580.317 917.057 575.044V537.528Z" fill="#393939"/>
<path d="M1039.73 599V526.228C1039.73 516.887 1036.79 509.504 1030.92 504.08C1025.04 498.505 1017.51 495.718 1008.32 495.718C1000.33 495.718 993.625 497.451 988.201 500.916C982.777 504.231 977.579 508.826 972.607 514.702V599H961.759V497.752L958.595 491.65L972.381 487.808V507.018C977.654 501.745 984.058 497.225 991.591 493.458C999.125 489.691 1006.66 487.808 1014.19 487.808C1019.46 487.808 1024.29 488.637 1028.66 490.294C1033.18 491.951 1037.02 494.362 1040.18 497.526C1043.5 500.539 1046.06 504.231 1047.87 508.6C1049.67 512.969 1050.58 517.791 1050.58 523.064V599H1039.73Z" fill="#393939"/>
<path d="M1162.35 599V588.152C1157.07 592.22 1151.27 595.535 1144.94 598.096C1138.62 600.507 1132.06 601.712 1125.28 601.712C1117.6 601.712 1110.37 600.281 1103.59 597.418C1096.96 594.405 1091.16 590.412 1086.18 585.44C1081.36 580.317 1077.52 574.441 1074.66 567.812C1071.8 561.032 1070.36 553.8 1070.36 546.116C1070.36 536.021 1072.85 526.831 1077.82 518.544C1082.79 510.257 1089.5 503.477 1097.94 498.204C1103.21 494.889 1108.26 492.328 1113.08 490.52C1118.05 488.712 1123.7 487.808 1130.03 487.808C1135.75 487.808 1141.4 488.787 1146.98 490.746C1152.7 492.554 1157.83 495.266 1162.35 498.882V442.608L1159.18 437.184L1173.19 432.664V599H1162.35ZM1162.35 511.312C1157.68 506.34 1152.18 502.498 1145.85 499.786C1139.52 497.074 1132.97 495.718 1126.19 495.718C1122.27 495.718 1118.43 496.095 1114.66 496.848C1111.04 497.601 1107.58 499.033 1104.26 501.142C1097.03 505.511 1091.38 511.538 1087.31 519.222C1083.25 526.906 1081.21 534.967 1081.21 543.404C1081.21 550.335 1082.49 556.889 1085.05 563.066C1087.62 569.093 1091.16 574.441 1095.68 579.112C1100.2 583.632 1105.47 587.248 1111.5 589.96C1117.52 592.521 1124 593.802 1130.93 593.802C1142.99 593.802 1153.46 589.659 1162.35 581.372V511.312Z" fill="#393939"/>
<path d="M1203.21 599V442.608L1200.04 437.184L1214.06 432.664V599H1203.21Z" fill="#393939"/>
<path d="M1293.53 487.808C1299.56 487.808 1305.21 488.863 1310.48 490.972C1315.91 492.931 1320.73 495.718 1324.95 499.334C1329.32 502.95 1333.01 507.244 1336.02 512.216C1339.03 517.037 1341.14 522.386 1342.35 528.262C1342.8 530.823 1343.1 533.309 1343.25 535.72C1343.4 538.131 1343.48 540.617 1343.48 543.178H1246.75C1246.45 544.082 1246.3 544.76 1246.3 545.212C1246.3 551.841 1247.65 558.169 1250.37 564.196C1253.08 570.072 1256.77 575.27 1261.44 579.79C1266.11 584.159 1271.46 587.625 1277.49 590.186C1283.51 592.747 1289.84 594.028 1296.47 594.028C1300.84 594.028 1305.28 593.576 1309.8 592.672C1314.48 591.617 1318.77 589.96 1322.69 587.7C1325.1 586.193 1327.36 584.536 1329.47 582.728C1331.73 580.92 1333.91 579.187 1336.02 577.53L1339.18 582.276C1336.17 585.289 1332.78 588.001 1329.01 590.412C1325.25 592.672 1321.26 594.706 1317.04 596.514C1312.97 598.171 1308.67 599.452 1304.15 600.356C1299.79 601.26 1295.57 601.712 1291.5 601.712C1283.66 601.712 1276.36 600.281 1269.58 597.418C1262.8 594.555 1256.85 590.638 1251.72 585.666C1246.75 580.694 1242.76 574.818 1239.74 568.038C1236.88 561.258 1235.45 553.951 1235.45 546.116C1235.45 535.871 1237.86 526.605 1242.68 518.318C1247.5 510.031 1254.21 503.176 1262.8 497.752C1267.92 494.437 1272.74 491.951 1277.26 490.294C1281.78 488.637 1287.2 487.808 1293.53 487.808ZM1333.31 535.72C1332.86 529.995 1331.35 524.721 1328.79 519.9C1326.23 514.928 1322.99 510.709 1319.07 507.244C1315.15 503.628 1310.63 500.841 1305.51 498.882C1300.39 496.773 1294.96 495.718 1289.24 495.718C1285.62 495.718 1282.08 496.095 1278.62 496.848C1275.15 497.601 1271.84 498.882 1268.67 500.69C1262.5 504.155 1257.52 509.127 1253.76 515.606C1249.99 522.085 1247.73 528.789 1246.98 535.72H1333.31Z" fill="#393939"/>
</svg>
