<svg width="61" height="60" viewBox="0 0 61 60" fill="none" xmlns="http://www.w3.org/2000/svg">
<path d="M30.0829 59.2431C24.1474 59.2431 18.3451 57.5065 13.4099 54.2528C8.4746 50.9992 4.62817 46.3747 2.35671 40.964C0.0852594 35.5534 -0.50904 29.5998 0.648928 23.8559C1.8069 18.112 4.66515 12.8359 8.86223 8.69475C13.0593 4.55363 18.4066 1.73345 24.2282 0.590916C30.0497 -0.55162 36.0837 0.0347776 41.5675 2.27593C47.0513 4.51707 51.7384 8.31236 55.0361 13.1818C58.3337 18.0512 60.0937 23.7761 60.0937 29.6325C60.0848 37.483 56.92 45.0094 51.2938 50.5606C45.6677 56.1117 38.0396 59.2343 30.0829 59.2431ZM30.0829 16.3241C27.4152 16.3241 24.8073 17.1046 22.5892 18.567C20.371 20.0293 18.6424 22.1079 17.6215 24.5397C16.6006 26.9715 16.3334 29.6474 16.8539 32.229C17.3743 34.8106 18.659 37.1819 20.5454 39.0432C22.4318 40.9044 24.8353 42.1718 27.4518 42.6853C30.0683 43.1988 32.7802 42.9353 35.2448 41.928C37.7095 40.9207 39.8161 39.2149 41.2983 37.0263C42.7804 34.8378 43.5714 32.2647 43.5714 29.6325C43.5673 26.1041 42.145 22.7214 39.6163 20.2265C37.0876 17.7315 33.659 16.3281 30.0829 16.3241Z" fill="#393939"/>
</svg>
